<?xml version="1.0" encoding="UTF-8"?>
        <svg xmlns="http://www.w3.org/2000/svg" xmlns:xlink="http://www.w3.org/1999/xlink"
             width="150" height="150" viewBox="0 -1500 1500 1500">

<defs>

</defs>

<rect fill="#84A1AE" height="70" rx="15" width="70" x="265" y="-335" />
<rect fill="#84A1AE" height="70" rx="15" width="70" x="265" y="-435" />
<rect fill="#84A1AE" height="70" rx="15" width="70" x="265" y="-535" />
<rect fill="#84A1AE" height="70" rx="15" width="70" x="265" y="-635" />
<rect fill="#84A1AE" height="70" rx="15" width="70" x="265" y="-735" />
<rect fill="#84A1AE" height="70" rx="15" width="70" x="265" y="-835" />
<rect fill="#84A1AE" height="70" rx="15" width="70" x="265" y="-935" />
<rect fill="#84A1AE" height="70" rx="15" width="70" x="265" y="-1035" />
<rect fill="#84A1AE" height="70" rx="15" width="70" x="265" y="-1135" />
<rect fill="#84A1AE" height="70" rx="15" width="70" x="265" y="-1235" />
<rect fill="#84A1AE" height="70" rx="15" width="70" x="365" y="-335" />
<rect fill="#84A1AE" height="70" rx="15" width="70" x="365" y="-535" />
<rect fill="#84A1AE" height="70" rx="15" width="70" x="365" y="-1035" />
<rect fill="#84A1AE" height="70" rx="15" width="70" x="365" y="-1235" />
<rect fill="#84A1AE" height="70" rx="15" width="70" x="465" y="-335" />
<rect fill="#84A1AE" height="70" rx="15" width="70" x="465" y="-735" />
<rect fill="#84A1AE" height="70" rx="15" width="70" x="465" y="-835" />
<rect fill="#84A1AE" height="70" rx="15" width="70" x="465" y="-1235" />
<rect fill="#84A1AE" height="70" rx="15" width="70" x="565" y="-335" />
<rect fill="#84A1AE" height="70" rx="15" width="70" x="565" y="-435" />
<rect fill="#84A1AE" height="70" rx="15" width="70" x="565" y="-535" />
<rect fill="#84A1AE" height="70" rx="15" width="70" x="565" y="-735" />
<rect fill="#84A1AE" height="70" rx="15" width="70" x="565" y="-935" />
<rect fill="#84A1AE" height="70" rx="15" width="70" x="565" y="-1035" />
<rect fill="#84A1AE" height="70" rx="15" width="70" x="565" y="-1235" />
<rect fill="#84A1AE" height="70" rx="15" width="70" x="665" y="-335" />
<rect fill="#84A1AE" height="70" rx="15" width="70" x="665" y="-835" />
<rect fill="#84A1AE" height="70" rx="15" width="70" x="665" y="-1235" />
<rect fill="#84A1AE" height="70" rx="15" width="70" x="765" y="-335" />
<rect fill="#84A1AE" height="70" rx="15" width="70" x="765" y="-535" />
<rect fill="#84A1AE" height="70" rx="15" width="70" x="765" y="-635" />
<rect fill="#84A1AE" height="70" rx="15" width="70" x="765" y="-735" />
<rect fill="#84A1AE" height="70" rx="15" width="70" x="765" y="-1235" />
<rect fill="#84A1AE" height="70" rx="15" width="70" x="865" y="-335" />
<rect fill="#84A1AE" height="70" rx="15" width="70" x="865" y="-535" />
<rect fill="#84A1AE" height="70" rx="15" width="70" x="865" y="-735" />
<rect fill="#84A1AE" height="70" rx="15" width="70" x="865" y="-835" />
<rect fill="#84A1AE" height="70" rx="15" width="70" x="865" y="-935" />
<rect fill="#84A1AE" height="70" rx="15" width="70" x="865" y="-1035" />
<rect fill="#84A1AE" height="70" rx="15" width="70" x="865" y="-1235" />
<rect fill="#84A1AE" height="70" rx="15" width="70" x="965" y="-335" />
<rect fill="#84A1AE" height="70" rx="15" width="70" x="965" y="-835" />
<rect fill="#84A1AE" height="70" rx="15" width="70" x="965" y="-1035" />
<rect fill="#84A1AE" height="70" rx="15" width="70" x="965" y="-1235" />
<rect fill="#84A1AE" height="70" rx="15" width="70" x="1065" y="-335" />
<rect fill="#84A1AE" height="70" rx="15" width="70" x="1065" y="-435" />
<rect fill="#84A1AE" height="70" rx="15" width="70" x="1065" y="-835" />
<rect fill="#84A1AE" height="70" rx="15" width="70" x="1065" y="-1235" />
<rect fill="#84A1AE" height="70" rx="15" width="70" x="1165" y="-335" />
<rect fill="#84A1AE" height="70" rx="15" width="70" x="1165" y="-435" />
<rect fill="#84A1AE" height="70" rx="15" width="70" x="1165" y="-535" />
<rect fill="#84A1AE" height="70" rx="15" width="70" x="1165" y="-635" />
<rect fill="#84A1AE" height="70" rx="15" width="70" x="1165" y="-735" />
<rect fill="#84A1AE" height="70" rx="15" width="70" x="1165" y="-835" />
<rect fill="#84A1AE" height="70" rx="15" width="70" x="1165" y="-935" />
<rect fill="#84A1AE" height="70" rx="15" width="70" x="1165" y="-1035" />
<rect fill="#84A1AE" height="70" rx="15" width="70" x="1165" y="-1135" />
<rect fill="#84A1AE" height="70" rx="15" width="70" x="1165" y="-1235" />
<circle cx="500" cy="-500" fill="#c1433c" r="35"> <animate attributeName="cy" dur="29.400000000000002s" keyTimes="0.0;0.0094339623;0.0188679245;0.0377358491;0.0471698113;0.0660377358;0.0754716981;0.0849056604;0.0943396226;0.1037735849;0.1132075472;0.1226415094;0.1320754717;0.141509434;0.1509433962;0.1603773585;0.1698113208;0.179245283;0.1886792453;0.1981132075;0.2075471698;0.2169811321;0.2264150943;0.2358490566;0.2452830189;0.2547169811;0.2641509434;0.2735849057;0.2830188679;0.2924528302;0.3018867925;0.3113207547;0.320754717;0.3301886792;0.3396226415;0.3490566038;0.358490566;0.3679245283;0.3773584906;0.3867924528;0.3962264151;0.4056603774;0.4150943396;0.4245283019;0.4339622642;0.4433962264;0.4528301887;0.4622641509;0.4716981132;0.4811320755;0.4905660377;0.5;0.5094339623;0.5188679245;0.5283018868;0.5377358491;0.5471698113;0.5566037736;0.5660377358;0.5754716981;0.5849056604;0.5943396226;0.6037735849;0.6132075472;0.6226415094;0.6320754717;0.641509434;0.6509433962;0.6603773585;0.6698113208;0.679245283;0.6886792453;0.6981132075;0.7075471698;0.7169811321;0.7264150943;0.7358490566;0.7452830189;0.7547169811;0.7641509434;0.7735849057;0.7830188679;0.7924528302;0.8018867925;0.8113207547;0.820754717;0.8301886792;0.8396226415;0.8490566038;0.858490566;0.8679245283;0.8773584906;0.8867924528;0.8962264151;0.9056603774;0.9150943396;0.9245283019;0.9339622642;0.9622641509;0.9716981132;0.9811320755;1.0" repeatCount="indefinite" values="-500;-500;-600;-600;-700;-700;-600;-500;-600;-500;-600;-500;-600;-500;-600;-500;-600;-500;-500;-600;-500;-600;-500;-600;-500;-600;-500;-600;-500;-600;-500;-500;-600;-500;-600;-600;-500;-600;-600;-500;-600;-500;-600;-500;-600;-500;-600;-500;-600;-500;-600;-500;-600;-500;-600;-500;-600;-500;-600;-500;-600;-600;-700;-600;-500;-600;-500;-600;-500;-600;-500;-600;-500;-600;-500;-600;-500;-600;-500;-600;-500;-600;-500;-600;-500;-600;-500;-600;-500;-600;-500;-600;-500;-600;-500;-600;-500;-400;-400;-500;-600;-600"/>
<animate attributeName="cx" dur="29.400000000000002s" keyTimes="0.0;0.0094339623;0.0188679245;0.0283018868;0.0377358491;0.9339622642;0.9433962264;0.9528301887;0.9622641509;0.9811320755;0.9905660377;1.0" repeatCount="indefinite" values="500;500;500;600;700;700;800;900;1000;1000;1100;1100"/>
<animate attributeName="visibility" dur="29.400000000000002s" keyTimes="0.0;0.0094339623;0.9811320755;0.9905660377;1.0" repeatCount="indefinite" values="visible;visible;visible;hidden;hidden"/> </circle>
<circle cx="1100" cy="-600" fill="none" r="35" stroke="#c1433c" stroke-width="10"> <animate attributeName="visibility" dur="29.400000000000002s" keyTimes="0.0;0.0094339623;0.9811320755;0.9905660377;1.0" repeatCount="indefinite" values="visible;visible;visible;hidden;hidden"/> </circle>
</svg>