<?xml version="1.0" encoding="UTF-8"?>
        <svg xmlns="http://www.w3.org/2000/svg" xmlns:xlink="http://www.w3.org/1999/xlink"
             width="190" height="190" viewBox="0 -1900 1900 1900">

<defs>

</defs>

<rect fill="#84A1AE" height="70" rx="15" width="70" x="465" y="-535" />
<rect fill="#84A1AE" height="70" rx="15" width="70" x="465" y="-635" />
<rect fill="#84A1AE" height="70" rx="15" width="70" x="465" y="-735" />
<rect fill="#84A1AE" height="70" rx="15" width="70" x="465" y="-835" />
<rect fill="#84A1AE" height="70" rx="15" width="70" x="465" y="-935" />
<rect fill="#84A1AE" height="70" rx="15" width="70" x="465" y="-1035" />
<rect fill="#84A1AE" height="70" rx="15" width="70" x="465" y="-1135" />
<rect fill="#84A1AE" height="70" rx="15" width="70" x="465" y="-1235" />
<rect fill="#84A1AE" height="70" rx="15" width="70" x="465" y="-1335" />
<rect fill="#84A1AE" height="70" rx="15" width="70" x="465" y="-1435" />
<rect fill="#84A1AE" height="70" rx="15" width="70" x="565" y="-535" />
<rect fill="#84A1AE" height="70" rx="15" width="70" x="565" y="-735" />
<rect fill="#84A1AE" height="70" rx="15" width="70" x="565" y="-1135" />
<rect fill="#84A1AE" height="70" rx="15" width="70" x="565" y="-1435" />
<rect fill="#84A1AE" height="70" rx="15" width="70" x="665" y="-535" />
<rect fill="#84A1AE" height="70" rx="15" width="70" x="665" y="-1435" />
<rect fill="#84A1AE" height="70" rx="15" width="70" x="765" y="-535" />
<rect fill="#84A1AE" height="70" rx="15" width="70" x="765" y="-635" />
<rect fill="#84A1AE" height="70" rx="15" width="70" x="765" y="-735" />
<rect fill="#84A1AE" height="70" rx="15" width="70" x="765" y="-1435" />
<rect fill="#84A1AE" height="70" rx="15" width="70" x="865" y="-535" />
<rect fill="#84A1AE" height="70" rx="15" width="70" x="865" y="-1135" />
<rect fill="#84A1AE" height="70" rx="15" width="70" x="865" y="-1435" />
<rect fill="#84A1AE" height="70" rx="15" width="70" x="965" y="-535" />
<rect fill="#84A1AE" height="70" rx="15" width="70" x="965" y="-835" />
<rect fill="#84A1AE" height="70" rx="15" width="70" x="965" y="-935" />
<rect fill="#84A1AE" height="70" rx="15" width="70" x="965" y="-1035" />
<rect fill="#84A1AE" height="70" rx="15" width="70" x="965" y="-1135" />
<rect fill="#84A1AE" height="70" rx="15" width="70" x="965" y="-1435" />
<rect fill="#84A1AE" height="70" rx="15" width="70" x="1065" y="-535" />
<rect fill="#84A1AE" height="70" rx="15" width="70" x="1065" y="-735" />
<rect fill="#84A1AE" height="70" rx="15" width="70" x="1065" y="-835" />
<rect fill="#84A1AE" height="70" rx="15" width="70" x="1065" y="-935" />
<rect fill="#84A1AE" height="70" rx="15" width="70" x="1065" y="-1035" />
<rect fill="#84A1AE" height="70" rx="15" width="70" x="1065" y="-1235" />
<rect fill="#84A1AE" height="70" rx="15" width="70" x="1065" y="-1335" />
<rect fill="#84A1AE" height="70" rx="15" width="70" x="1065" y="-1435" />
<rect fill="#84A1AE" height="70" rx="15" width="70" x="1165" y="-535" />
<rect fill="#84A1AE" height="70" rx="15" width="70" x="1165" y="-735" />
<rect fill="#84A1AE" height="70" rx="15" width="70" x="1165" y="-935" />
<rect fill="#84A1AE" height="70" rx="15" width="70" x="1165" y="-1035" />
<rect fill="#84A1AE" height="70" rx="15" width="70" x="1165" y="-1235" />
<rect fill="#84A1AE" height="70" rx="15" width="70" x="1165" y="-1335" />
<rect fill="#84A1AE" height="70" rx="15" width="70" x="1165" y="-1435" />
<rect fill="#84A1AE" height="70" rx="15" width="70" x="1265" y="-535" />
<rect fill="#84A1AE" height="70" rx="15" width="70" x="1265" y="-735" />
<rect fill="#84A1AE" height="70" rx="15" width="70" x="1265" y="-1435" />
<rect fill="#84A1AE" height="70" rx="15" width="70" x="1365" y="-535" />
<rect fill="#84A1AE" height="70" rx="15" width="70" x="1365" y="-635" />
<rect fill="#84A1AE" height="70" rx="15" width="70" x="1365" y="-735" />
<rect fill="#84A1AE" height="70" rx="15" width="70" x="1365" y="-835" />
<rect fill="#84A1AE" height="70" rx="15" width="70" x="1365" y="-935" />
<rect fill="#84A1AE" height="70" rx="15" width="70" x="1365" y="-1035" />
<rect fill="#84A1AE" height="70" rx="15" width="70" x="1365" y="-1135" />
<rect fill="#84A1AE" height="70" rx="15" width="70" x="1365" y="-1235" />
<rect fill="#84A1AE" height="70" rx="15" width="70" x="1365" y="-1335" />
<rect fill="#84A1AE" height="70" rx="15" width="70" x="1365" y="-1435" />
<circle cx="900" cy="-1300" fill="#c1433c" r="35"> <animate attributeName="cy" dur="3.3600000000000003s" keyTimes="0.0;0.0769230769;0.3076923077;0.3846153846;0.7692307692;0.8461538462;0.9230769231;1.0" repeatCount="indefinite" values="-1300;-1300;-1300;-1200;-1200;-1100;-1000;-1000"/>
<animate attributeName="cx" dur="3.3600000000000003s" keyTimes="0.0;0.0769230769;0.1538461538;0.2307692308;0.3076923077;0.3846153846;0.4615384615;0.5384615385;0.6153846154;0.6923076923;0.7692307692;1.0" repeatCount="indefinite" values="900;900;800;800;900;900;800;700;800;700;800;800"/>
<animate attributeName="visibility" dur="3.3600000000000003s" keyTimes="0.0;0.0769230769;0.8461538462;0.9230769231;1.0" repeatCount="indefinite" values="visible;visible;visible;hidden;hidden"/> </circle>
<circle cx="800" cy="-1000" fill="none" r="35" stroke="#c1433c" stroke-width="10"> <animate attributeName="visibility" dur="3.3600000000000003s" keyTimes="0.0;0.0769230769;0.8461538462;0.9230769231;1.0" repeatCount="indefinite" values="visible;visible;visible;hidden;hidden"/> </circle>
</svg>