<?xml version="1.0" encoding="UTF-8"?>
        <svg xmlns="http://www.w3.org/2000/svg" xmlns:xlink="http://www.w3.org/1999/xlink"
             width="150" height="150" viewBox="0 -1500 1500 1500">

<defs>

</defs>

<rect fill="#84A1AE" height="70" rx="15" width="70" x="265" y="-335" />
<rect fill="#84A1AE" height="70" rx="15" width="70" x="265" y="-435" />
<rect fill="#84A1AE" height="70" rx="15" width="70" x="265" y="-535" />
<rect fill="#84A1AE" height="70" rx="15" width="70" x="265" y="-635" />
<rect fill="#84A1AE" height="70" rx="15" width="70" x="265" y="-735" />
<rect fill="#84A1AE" height="70" rx="15" width="70" x="265" y="-835" />
<rect fill="#84A1AE" height="70" rx="15" width="70" x="265" y="-935" />
<rect fill="#84A1AE" height="70" rx="15" width="70" x="265" y="-1035" />
<rect fill="#84A1AE" height="70" rx="15" width="70" x="265" y="-1135" />
<rect fill="#84A1AE" height="70" rx="15" width="70" x="265" y="-1235" />
<rect fill="#84A1AE" height="70" rx="15" width="70" x="365" y="-335" />
<rect fill="#84A1AE" height="70" rx="15" width="70" x="365" y="-935" />
<rect fill="#84A1AE" height="70" rx="15" width="70" x="365" y="-1235" />
<rect fill="#84A1AE" height="70" rx="15" width="70" x="465" y="-335" />
<rect fill="#84A1AE" height="70" rx="15" width="70" x="465" y="-435" />
<rect fill="#84A1AE" height="70" rx="15" width="70" x="465" y="-1235" />
<rect fill="#84A1AE" height="70" rx="15" width="70" x="565" y="-335" />
<rect fill="#84A1AE" height="70" rx="15" width="70" x="565" y="-735" />
<rect fill="#84A1AE" height="70" rx="15" width="70" x="565" y="-835" />
<rect fill="#84A1AE" height="70" rx="15" width="70" x="565" y="-935" />
<rect fill="#84A1AE" height="70" rx="15" width="70" x="565" y="-1235" />
<rect fill="#84A1AE" height="70" rx="15" width="70" x="665" y="-335" />
<rect fill="#84A1AE" height="70" rx="15" width="70" x="665" y="-435" />
<rect fill="#84A1AE" height="70" rx="15" width="70" x="665" y="-535" />
<rect fill="#84A1AE" height="70" rx="15" width="70" x="665" y="-635" />
<rect fill="#84A1AE" height="70" rx="15" width="70" x="665" y="-735" />
<rect fill="#84A1AE" height="70" rx="15" width="70" x="665" y="-935" />
<rect fill="#84A1AE" height="70" rx="15" width="70" x="665" y="-1235" />
<rect fill="#84A1AE" height="70" rx="15" width="70" x="765" y="-335" />
<rect fill="#84A1AE" height="70" rx="15" width="70" x="765" y="-435" />
<rect fill="#84A1AE" height="70" rx="15" width="70" x="765" y="-535" />
<rect fill="#84A1AE" height="70" rx="15" width="70" x="765" y="-935" />
<rect fill="#84A1AE" height="70" rx="15" width="70" x="765" y="-1235" />
<rect fill="#84A1AE" height="70" rx="15" width="70" x="865" y="-335" />
<rect fill="#84A1AE" height="70" rx="15" width="70" x="865" y="-935" />
<rect fill="#84A1AE" height="70" rx="15" width="70" x="865" y="-1235" />
<rect fill="#84A1AE" height="70" rx="15" width="70" x="965" y="-335" />
<rect fill="#84A1AE" height="70" rx="15" width="70" x="965" y="-435" />
<rect fill="#84A1AE" height="70" rx="15" width="70" x="965" y="-535" />
<rect fill="#84A1AE" height="70" rx="15" width="70" x="965" y="-1135" />
<rect fill="#84A1AE" height="70" rx="15" width="70" x="965" y="-1235" />
<rect fill="#84A1AE" height="70" rx="15" width="70" x="1065" y="-335" />
<rect fill="#84A1AE" height="70" rx="15" width="70" x="1065" y="-635" />
<rect fill="#84A1AE" height="70" rx="15" width="70" x="1065" y="-735" />
<rect fill="#84A1AE" height="70" rx="15" width="70" x="1065" y="-835" />
<rect fill="#84A1AE" height="70" rx="15" width="70" x="1065" y="-1135" />
<rect fill="#84A1AE" height="70" rx="15" width="70" x="1065" y="-1235" />
<rect fill="#84A1AE" height="70" rx="15" width="70" x="1165" y="-335" />
<rect fill="#84A1AE" height="70" rx="15" width="70" x="1165" y="-435" />
<rect fill="#84A1AE" height="70" rx="15" width="70" x="1165" y="-535" />
<rect fill="#84A1AE" height="70" rx="15" width="70" x="1165" y="-635" />
<rect fill="#84A1AE" height="70" rx="15" width="70" x="1165" y="-735" />
<rect fill="#84A1AE" height="70" rx="15" width="70" x="1165" y="-835" />
<rect fill="#84A1AE" height="70" rx="15" width="70" x="1165" y="-935" />
<rect fill="#84A1AE" height="70" rx="15" width="70" x="1165" y="-1035" />
<rect fill="#84A1AE" height="70" rx="15" width="70" x="1165" y="-1135" />
<rect fill="#84A1AE" height="70" rx="15" width="70" x="1165" y="-1235" />
<circle cx="900" cy="-400" fill="#c1433c" r="35"> <animate attributeName="cy" dur="35.0s" keyTimes="0.0;0.0079365079;0.0158730159;0.0238095238;0.0396825397;0.0476190476;0.0555555556;0.0634920635;0.0714285714;0.0793650794;0.0873015873;0.126984127;0.1349206349;0.1984126984;0.2063492063;0.2380952381;0.246031746;0.2619047619;0.2698412698;0.2777777778;0.2857142857;0.2936507937;0.3015873016;0.3095238095;0.3253968254;0.3333333333;0.3412698413;0.3492063492;0.373015873;0.380952381;0.3888888889;0.3968253968;0.4047619048;0.4365079365;0.4444444444;0.5952380952;0.6031746032;0.6349206349;0.6428571429;0.6825396825;0.6904761905;0.6984126984;0.7063492063;0.7142857143;0.7222222222;0.7301587302;0.7380952381;0.746031746;0.753968254;0.7619047619;0.7698412698;0.8968253968;0.9047619048;0.9126984127;0.9285714286;0.9365079365;0.9444444444;0.9523809524;0.9603174603;0.9682539683;1.0" repeatCount="indefinite" values="-400;-400;-500;-600;-600;-700;-800;-800;-700;-700;-600;-600;-700;-700;-800;-800;-700;-700;-800;-800;-700;-700;-800;-700;-700;-800;-700;-800;-800;-700;-700;-800;-700;-700;-800;-800;-700;-700;-800;-800;-700;-700;-600;-600;-700;-800;-800;-700;-700;-800;-700;-700;-800;-700;-700;-800;-800;-700;-700;-800;-800"/>
<animate attributeName="cx" dur="35.0s" keyTimes="0.0;0.0079365079;0.0238095238;0.0317460317;0.0555555556;0.0634920635;0.0714285714;0.0793650794;0.1031746032;0.1111111111;0.119047619;0.1349206349;0.1428571429;0.1507936508;0.1587301587;0.1666666667;0.1746031746;0.1825396825;0.1904761905;0.1984126984;0.2063492063;0.2142857143;0.2222222222;0.2301587302;0.2380952381;0.246031746;0.253968254;0.2619047619;0.2698412698;0.2777777778;0.2857142857;0.2936507937;0.3095238095;0.3174603175;0.3253968254;0.3492063492;0.3571428571;0.3650793651;0.373015873;0.380952381;0.3888888889;0.4047619048;0.4126984127;0.4206349206;0.4285714286;0.4365079365;0.4444444444;0.4523809524;0.4603174603;0.4682539683;0.4761904762;0.4841269841;0.5714285714;0.5793650794;0.5873015873;0.5952380952;0.6031746032;0.6111111111;0.619047619;0.626984127;0.6349206349;0.6428571429;0.6507936508;0.6587301587;0.6666666667;0.6746031746;0.6825396825;0.6904761905;0.6984126984;0.7063492063;0.7142857143;0.7301587302;0.7380952381;0.746031746;0.753968254;0.7698412698;0.7777777778;0.7857142857;0.7936507937;0.8015873016;0.8095238095;0.8174603175;0.8253968254;0.8333333333;0.8412698413;0.8492063492;0.8571428571;0.8650793651;0.873015873;0.880952381;0.8888888889;0.8968253968;0.9126984127;0.9206349206;0.9285714286;0.9365079365;0.9444444444;0.9523809524;0.9603174603;0.9682539683;0.9761904762;0.9841269841;0.9920634921;1.0" repeatCount="indefinite" values="900;900;900;800;800;900;900;800;800;900;800;800;900;800;900;800;900;800;900;800;800;900;800;900;800;800;900;800;800;900;900;800;800;900;800;800;900;800;900;900;800;800;900;800;900;800;800;900;800;900;800;700;700;800;900;800;800;900;800;900;800;800;900;800;700;700;800;800;900;900;800;800;900;900;800;800;900;800;900;800;900;800;900;800;900;800;900;800;900;800;900;800;800;900;800;800;900;900;800;800;900;800;700;700"/>
<animate attributeName="visibility" dur="35.0s" keyTimes="0.0;0.0079365079;1.0" repeatCount="indefinite" values="visible;visible;visible"/> </circle>
<circle cx="500" cy="-600" fill="none" r="35" stroke="#c1433c" stroke-width="10"> <animate attributeName="visibility" dur="35.0s" keyTimes="0.0;0.0079365079;1.0" repeatCount="indefinite" values="visible;visible;visible"/> </circle>
</svg>