<?xml version="1.0" encoding="UTF-8"?>
        <svg xmlns="http://www.w3.org/2000/svg" xmlns:xlink="http://www.w3.org/1999/xlink"
             width="190" height="190" viewBox="0 -1900 1900 1900">

<defs>

</defs>

<rect fill="#84A1AE" height="70" rx="15" width="70" x="465" y="-535" />
<rect fill="#84A1AE" height="70" rx="15" width="70" x="465" y="-635" />
<rect fill="#84A1AE" height="70" rx="15" width="70" x="465" y="-735" />
<rect fill="#84A1AE" height="70" rx="15" width="70" x="465" y="-835" />
<rect fill="#84A1AE" height="70" rx="15" width="70" x="465" y="-935" />
<rect fill="#84A1AE" height="70" rx="15" width="70" x="465" y="-1035" />
<rect fill="#84A1AE" height="70" rx="15" width="70" x="465" y="-1135" />
<rect fill="#84A1AE" height="70" rx="15" width="70" x="465" y="-1235" />
<rect fill="#84A1AE" height="70" rx="15" width="70" x="465" y="-1335" />
<rect fill="#84A1AE" height="70" rx="15" width="70" x="465" y="-1435" />
<rect fill="#84A1AE" height="70" rx="15" width="70" x="565" y="-535" />
<rect fill="#84A1AE" height="70" rx="15" width="70" x="565" y="-735" />
<rect fill="#84A1AE" height="70" rx="15" width="70" x="565" y="-835" />
<rect fill="#84A1AE" height="70" rx="15" width="70" x="565" y="-1035" />
<rect fill="#84A1AE" height="70" rx="15" width="70" x="565" y="-1435" />
<rect fill="#84A1AE" height="70" rx="15" width="70" x="665" y="-535" />
<rect fill="#84A1AE" height="70" rx="15" width="70" x="665" y="-1035" />
<rect fill="#84A1AE" height="70" rx="15" width="70" x="665" y="-1135" />
<rect fill="#84A1AE" height="70" rx="15" width="70" x="665" y="-1335" />
<rect fill="#84A1AE" height="70" rx="15" width="70" x="665" y="-1435" />
<rect fill="#84A1AE" height="70" rx="15" width="70" x="765" y="-535" />
<rect fill="#84A1AE" height="70" rx="15" width="70" x="765" y="-1235" />
<rect fill="#84A1AE" height="70" rx="15" width="70" x="765" y="-1335" />
<rect fill="#84A1AE" height="70" rx="15" width="70" x="765" y="-1435" />
<rect fill="#84A1AE" height="70" rx="15" width="70" x="865" y="-535" />
<rect fill="#84A1AE" height="70" rx="15" width="70" x="865" y="-1335" />
<rect fill="#84A1AE" height="70" rx="15" width="70" x="865" y="-1435" />
<rect fill="#84A1AE" height="70" rx="15" width="70" x="965" y="-535" />
<rect fill="#84A1AE" height="70" rx="15" width="70" x="965" y="-935" />
<rect fill="#84A1AE" height="70" rx="15" width="70" x="965" y="-1035" />
<rect fill="#84A1AE" height="70" rx="15" width="70" x="965" y="-1135" />
<rect fill="#84A1AE" height="70" rx="15" width="70" x="965" y="-1435" />
<rect fill="#84A1AE" height="70" rx="15" width="70" x="1065" y="-535" />
<rect fill="#84A1AE" height="70" rx="15" width="70" x="1065" y="-635" />
<rect fill="#84A1AE" height="70" rx="15" width="70" x="1065" y="-835" />
<rect fill="#84A1AE" height="70" rx="15" width="70" x="1065" y="-935" />
<rect fill="#84A1AE" height="70" rx="15" width="70" x="1065" y="-1435" />
<rect fill="#84A1AE" height="70" rx="15" width="70" x="1165" y="-535" />
<rect fill="#84A1AE" height="70" rx="15" width="70" x="1165" y="-1035" />
<rect fill="#84A1AE" height="70" rx="15" width="70" x="1165" y="-1135" />
<rect fill="#84A1AE" height="70" rx="15" width="70" x="1165" y="-1435" />
<rect fill="#84A1AE" height="70" rx="15" width="70" x="1265" y="-535" />
<rect fill="#84A1AE" height="70" rx="15" width="70" x="1265" y="-735" />
<rect fill="#84A1AE" height="70" rx="15" width="70" x="1265" y="-1035" />
<rect fill="#84A1AE" height="70" rx="15" width="70" x="1265" y="-1235" />
<rect fill="#84A1AE" height="70" rx="15" width="70" x="1265" y="-1435" />
<rect fill="#84A1AE" height="70" rx="15" width="70" x="1365" y="-535" />
<rect fill="#84A1AE" height="70" rx="15" width="70" x="1365" y="-635" />
<rect fill="#84A1AE" height="70" rx="15" width="70" x="1365" y="-735" />
<rect fill="#84A1AE" height="70" rx="15" width="70" x="1365" y="-835" />
<rect fill="#84A1AE" height="70" rx="15" width="70" x="1365" y="-935" />
<rect fill="#84A1AE" height="70" rx="15" width="70" x="1365" y="-1035" />
<rect fill="#84A1AE" height="70" rx="15" width="70" x="1365" y="-1135" />
<rect fill="#84A1AE" height="70" rx="15" width="70" x="1365" y="-1235" />
<rect fill="#84A1AE" height="70" rx="15" width="70" x="1365" y="-1335" />
<rect fill="#84A1AE" height="70" rx="15" width="70" x="1365" y="-1435" />
<circle cx="1000" cy="-1300" fill="#c1433c" r="35"> <animate attributeName="cy" dur="27.44s" keyTimes="0.0;0.0101010101;0.3737373737;0.3838383838;0.3939393939;0.4949494949;0.5050505051;0.5151515152;0.5252525253;0.5353535354;0.5454545455;0.5555555556;0.5656565657;0.5757575758;0.5858585859;0.6060606061;0.6161616162;0.6262626263;0.6363636364;0.6464646465;0.6565656566;0.6666666667;0.6767676768;0.6868686869;0.696969697;0.7373737374;0.7474747475;0.7777777778;0.7878787879;0.797979798;0.8080808081;0.8383838384;0.8484848485;0.8585858586;0.8686868687;0.9191919192;0.9292929293;0.9494949495;0.9595959596;0.9696969697;0.9797979798;0.9898989899;1.0" repeatCount="indefinite" values="-1300;-1300;-1300;-1200;-1300;-1300;-1200;-1100;-1100;-1000;-1100;-1100;-1200;-1200;-1300;-1300;-1200;-1200;-1100;-1100;-1000;-1100;-1200;-1200;-1300;-1300;-1200;-1200;-1300;-1300;-1200;-1200;-1100;-1100;-1200;-1200;-1300;-1300;-1200;-1200;-1100;-1000;-1000"/>
<animate attributeName="cx" dur="27.44s" keyTimes="0.0;0.0101010101;0.0202020202;0.0303030303;0.0404040404;0.0505050505;0.0606060606;0.0707070707;0.1212121212;0.1313131313;0.1515151515;0.1616161616;0.1717171717;0.202020202;0.2121212121;0.2222222222;0.2323232323;0.3636363636;0.3737373737;0.4343434343;0.4444444444;0.4747474747;0.4848484848;0.4949494949;0.595959596;0.6060606061;0.6161616162;0.6262626263;0.6767676768;0.6868686869;0.7070707071;0.7171717172;0.7272727273;0.7474747475;0.7575757576;0.7676767677;0.7777777778;0.8080808081;0.8181818182;0.8282828283;0.8383838384;0.8787878788;0.8888888889;0.898989899;0.9090909091;0.9191919192;0.9595959596;0.9696969697;1.0" repeatCount="indefinite" values="1000;1000;1100;1100;1000;1100;1100;1000;1000;1100;1100;1200;1300;1300;1200;1200;1300;1300;1200;1200;1300;1300;1200;1100;1100;1000;1000;900;900;1000;1000;1100;1000;1000;900;900;1000;1000;1100;1000;900;900;1000;900;900;1000;1000;1100;1100"/>
<animate attributeName="visibility" dur="27.44s" keyTimes="0.0;0.0101010101;1.0" repeatCount="indefinite" values="visible;visible;visible"/> </circle>
<circle cx="1000" cy="-600" fill="none" r="35" stroke="#c1433c" stroke-width="10"> <animate attributeName="visibility" dur="27.44s" keyTimes="0.0;0.0101010101;1.0" repeatCount="indefinite" values="visible;visible;visible"/> </circle>
</svg>