<?xml version="1.0" encoding="UTF-8"?>
        <svg xmlns="http://www.w3.org/2000/svg" xmlns:xlink="http://www.w3.org/1999/xlink"
             width="150" height="150" viewBox="0 -1500 1500 1500">

<defs>

</defs>

<rect fill="#84A1AE" height="70" rx="15" width="70" x="265" y="-335" />
<rect fill="#84A1AE" height="70" rx="15" width="70" x="265" y="-435" />
<rect fill="#84A1AE" height="70" rx="15" width="70" x="265" y="-535" />
<rect fill="#84A1AE" height="70" rx="15" width="70" x="265" y="-635" />
<rect fill="#84A1AE" height="70" rx="15" width="70" x="265" y="-735" />
<rect fill="#84A1AE" height="70" rx="15" width="70" x="265" y="-835" />
<rect fill="#84A1AE" height="70" rx="15" width="70" x="265" y="-935" />
<rect fill="#84A1AE" height="70" rx="15" width="70" x="265" y="-1035" />
<rect fill="#84A1AE" height="70" rx="15" width="70" x="265" y="-1135" />
<rect fill="#84A1AE" height="70" rx="15" width="70" x="265" y="-1235" />
<rect fill="#84A1AE" height="70" rx="15" width="70" x="365" y="-335" />
<rect fill="#84A1AE" height="70" rx="15" width="70" x="365" y="-1235" />
<rect fill="#84A1AE" height="70" rx="15" width="70" x="465" y="-335" />
<rect fill="#84A1AE" height="70" rx="15" width="70" x="465" y="-435" />
<rect fill="#84A1AE" height="70" rx="15" width="70" x="465" y="-1235" />
<rect fill="#84A1AE" height="70" rx="15" width="70" x="565" y="-335" />
<rect fill="#84A1AE" height="70" rx="15" width="70" x="565" y="-635" />
<rect fill="#84A1AE" height="70" rx="15" width="70" x="565" y="-835" />
<rect fill="#84A1AE" height="70" rx="15" width="70" x="565" y="-1135" />
<rect fill="#84A1AE" height="70" rx="15" width="70" x="565" y="-1235" />
<rect fill="#84A1AE" height="70" rx="15" width="70" x="665" y="-335" />
<rect fill="#84A1AE" height="70" rx="15" width="70" x="665" y="-635" />
<rect fill="#84A1AE" height="70" rx="15" width="70" x="665" y="-1135" />
<rect fill="#84A1AE" height="70" rx="15" width="70" x="665" y="-1235" />
<rect fill="#84A1AE" height="70" rx="15" width="70" x="765" y="-335" />
<rect fill="#84A1AE" height="70" rx="15" width="70" x="765" y="-535" />
<rect fill="#84A1AE" height="70" rx="15" width="70" x="765" y="-735" />
<rect fill="#84A1AE" height="70" rx="15" width="70" x="765" y="-1035" />
<rect fill="#84A1AE" height="70" rx="15" width="70" x="765" y="-1235" />
<rect fill="#84A1AE" height="70" rx="15" width="70" x="865" y="-335" />
<rect fill="#84A1AE" height="70" rx="15" width="70" x="865" y="-435" />
<rect fill="#84A1AE" height="70" rx="15" width="70" x="865" y="-935" />
<rect fill="#84A1AE" height="70" rx="15" width="70" x="865" y="-1235" />
<rect fill="#84A1AE" height="70" rx="15" width="70" x="965" y="-335" />
<rect fill="#84A1AE" height="70" rx="15" width="70" x="965" y="-435" />
<rect fill="#84A1AE" height="70" rx="15" width="70" x="965" y="-635" />
<rect fill="#84A1AE" height="70" rx="15" width="70" x="965" y="-735" />
<rect fill="#84A1AE" height="70" rx="15" width="70" x="965" y="-935" />
<rect fill="#84A1AE" height="70" rx="15" width="70" x="965" y="-1235" />
<rect fill="#84A1AE" height="70" rx="15" width="70" x="1065" y="-335" />
<rect fill="#84A1AE" height="70" rx="15" width="70" x="1065" y="-1235" />
<rect fill="#84A1AE" height="70" rx="15" width="70" x="1165" y="-335" />
<rect fill="#84A1AE" height="70" rx="15" width="70" x="1165" y="-435" />
<rect fill="#84A1AE" height="70" rx="15" width="70" x="1165" y="-535" />
<rect fill="#84A1AE" height="70" rx="15" width="70" x="1165" y="-635" />
<rect fill="#84A1AE" height="70" rx="15" width="70" x="1165" y="-735" />
<rect fill="#84A1AE" height="70" rx="15" width="70" x="1165" y="-835" />
<rect fill="#84A1AE" height="70" rx="15" width="70" x="1165" y="-935" />
<rect fill="#84A1AE" height="70" rx="15" width="70" x="1165" y="-1035" />
<rect fill="#84A1AE" height="70" rx="15" width="70" x="1165" y="-1135" />
<rect fill="#84A1AE" height="70" rx="15" width="70" x="1165" y="-1235" />
<circle cx="1000" cy="-1100" fill="#c1433c" r="35"> <animate attributeName="cy" dur="33.040000000000006s" keyTimes="0.0;0.0084033613;1.0" repeatCount="indefinite" values="-1100;-1100;-1100"/>
<animate attributeName="cx" dur="33.040000000000006s" keyTimes="0.0;0.0084033613;0.0168067227;0.025210084;0.1344537815;0.1428571429;0.1512605042;0.1680672269;0.1764705882;0.1848739496;0.4033613445;0.4117647059;0.4201680672;0.4537815126;0.4621848739;0.4705882353;0.7058823529;0.7142857143;0.7226890756;0.7983193277;0.8067226891;0.8151260504;0.8403361345;0.8487394958;0.8571428571;0.974789916;0.9831932773;0.9915966387;1.0" repeatCount="indefinite" values="1000;1000;900;800;800;900;800;800;900;800;800;900;800;800;900;800;800;900;800;800;900;800;800;900;800;800;900;800;800"/>
<animate attributeName="visibility" dur="33.040000000000006s" keyTimes="0.0;0.0084033613;1.0" repeatCount="indefinite" values="visible;visible;visible"/> </circle>
<circle cx="700" cy="-1000" fill="none" r="35" stroke="#c1433c" stroke-width="10"> <animate attributeName="visibility" dur="33.040000000000006s" keyTimes="0.0;0.0084033613;1.0" repeatCount="indefinite" values="visible;visible;visible"/> </circle>
</svg>