<?xml version="1.0" encoding="UTF-8"?>
        <svg xmlns="http://www.w3.org/2000/svg" xmlns:xlink="http://www.w3.org/1999/xlink"
             width="150" height="150" viewBox="0 -1500 1500 1500">

<defs>

</defs>

<rect fill="#84A1AE" height="70" rx="15" width="70" x="265" y="-335" />
<rect fill="#84A1AE" height="70" rx="15" width="70" x="265" y="-435" />
<rect fill="#84A1AE" height="70" rx="15" width="70" x="265" y="-535" />
<rect fill="#84A1AE" height="70" rx="15" width="70" x="265" y="-635" />
<rect fill="#84A1AE" height="70" rx="15" width="70" x="265" y="-735" />
<rect fill="#84A1AE" height="70" rx="15" width="70" x="265" y="-835" />
<rect fill="#84A1AE" height="70" rx="15" width="70" x="265" y="-935" />
<rect fill="#84A1AE" height="70" rx="15" width="70" x="265" y="-1035" />
<rect fill="#84A1AE" height="70" rx="15" width="70" x="265" y="-1135" />
<rect fill="#84A1AE" height="70" rx="15" width="70" x="265" y="-1235" />
<rect fill="#84A1AE" height="70" rx="15" width="70" x="365" y="-335" />
<rect fill="#84A1AE" height="70" rx="15" width="70" x="365" y="-935" />
<rect fill="#84A1AE" height="70" rx="15" width="70" x="365" y="-1035" />
<rect fill="#84A1AE" height="70" rx="15" width="70" x="365" y="-1235" />
<rect fill="#84A1AE" height="70" rx="15" width="70" x="465" y="-335" />
<rect fill="#84A1AE" height="70" rx="15" width="70" x="465" y="-435" />
<rect fill="#84A1AE" height="70" rx="15" width="70" x="465" y="-635" />
<rect fill="#84A1AE" height="70" rx="15" width="70" x="465" y="-835" />
<rect fill="#84A1AE" height="70" rx="15" width="70" x="465" y="-1235" />
<rect fill="#84A1AE" height="70" rx="15" width="70" x="565" y="-335" />
<rect fill="#84A1AE" height="70" rx="15" width="70" x="565" y="-635" />
<rect fill="#84A1AE" height="70" rx="15" width="70" x="565" y="-735" />
<rect fill="#84A1AE" height="70" rx="15" width="70" x="565" y="-1035" />
<rect fill="#84A1AE" height="70" rx="15" width="70" x="565" y="-1235" />
<rect fill="#84A1AE" height="70" rx="15" width="70" x="665" y="-335" />
<rect fill="#84A1AE" height="70" rx="15" width="70" x="665" y="-435" />
<rect fill="#84A1AE" height="70" rx="15" width="70" x="665" y="-1135" />
<rect fill="#84A1AE" height="70" rx="15" width="70" x="665" y="-1235" />
<rect fill="#84A1AE" height="70" rx="15" width="70" x="765" y="-335" />
<rect fill="#84A1AE" height="70" rx="15" width="70" x="765" y="-735" />
<rect fill="#84A1AE" height="70" rx="15" width="70" x="765" y="-935" />
<rect fill="#84A1AE" height="70" rx="15" width="70" x="765" y="-1135" />
<rect fill="#84A1AE" height="70" rx="15" width="70" x="765" y="-1235" />
<rect fill="#84A1AE" height="70" rx="15" width="70" x="865" y="-335" />
<rect fill="#84A1AE" height="70" rx="15" width="70" x="865" y="-435" />
<rect fill="#84A1AE" height="70" rx="15" width="70" x="865" y="-735" />
<rect fill="#84A1AE" height="70" rx="15" width="70" x="865" y="-935" />
<rect fill="#84A1AE" height="70" rx="15" width="70" x="865" y="-1235" />
<rect fill="#84A1AE" height="70" rx="15" width="70" x="965" y="-335" />
<rect fill="#84A1AE" height="70" rx="15" width="70" x="965" y="-1035" />
<rect fill="#84A1AE" height="70" rx="15" width="70" x="965" y="-1135" />
<rect fill="#84A1AE" height="70" rx="15" width="70" x="965" y="-1235" />
<rect fill="#84A1AE" height="70" rx="15" width="70" x="1065" y="-335" />
<rect fill="#84A1AE" height="70" rx="15" width="70" x="1065" y="-435" />
<rect fill="#84A1AE" height="70" rx="15" width="70" x="1065" y="-735" />
<rect fill="#84A1AE" height="70" rx="15" width="70" x="1065" y="-935" />
<rect fill="#84A1AE" height="70" rx="15" width="70" x="1065" y="-1035" />
<rect fill="#84A1AE" height="70" rx="15" width="70" x="1065" y="-1235" />
<rect fill="#84A1AE" height="70" rx="15" width="70" x="1165" y="-335" />
<rect fill="#84A1AE" height="70" rx="15" width="70" x="1165" y="-435" />
<rect fill="#84A1AE" height="70" rx="15" width="70" x="1165" y="-535" />
<rect fill="#84A1AE" height="70" rx="15" width="70" x="1165" y="-635" />
<rect fill="#84A1AE" height="70" rx="15" width="70" x="1165" y="-735" />
<rect fill="#84A1AE" height="70" rx="15" width="70" x="1165" y="-835" />
<rect fill="#84A1AE" height="70" rx="15" width="70" x="1165" y="-935" />
<rect fill="#84A1AE" height="70" rx="15" width="70" x="1165" y="-1035" />
<rect fill="#84A1AE" height="70" rx="15" width="70" x="1165" y="-1135" />
<rect fill="#84A1AE" height="70" rx="15" width="70" x="1165" y="-1235" />
<circle cx="900" cy="-800" fill="#c1433c" r="35"> <animate attributeName="cy" dur="35.84s" keyTimes="0.0;0.007751938;0.0387596899;0.0465116279;0.0542635659;0.0775193798;0.0852713178;0.0930232558;0.1007751938;0.1085271318;0.1162790698;0.1240310078;0.1317829457;0.1395348837;0.1472868217;0.1550387597;0.1627906977;0.1705426357;0.1782945736;0.1860465116;0.1937984496;0.2015503876;0.2093023256;0.2170542636;0.2248062016;0.2325581395;0.2403100775;0.2480620155;0.2558139535;0.2945736434;0.3023255814;0.3100775194;0.3178294574;0.3255813953;0.4573643411;0.4651162791;0.4728682171;0.6666666667;0.6744186047;0.6821705426;0.6899224806;0.6976744186;0.7054263566;0.7131782946;0.7209302326;0.7286821705;0.7441860465;0.7519379845;0.7596899225;0.7674418605;0.7751937984;0.7829457364;0.7906976744;0.7984496124;0.8449612403;0.8527131783;0.8604651163;0.8682170543;0.8759689922;0.8837209302;0.8914728682;0.8992248062;0.976744186;0.984496124;0.992248062;1.0" repeatCount="indefinite" values="-800;-800;-800;-900;-800;-800;-700;-600;-700;-700;-600;-700;-600;-700;-800;-900;-800;-700;-800;-700;-600;-700;-600;-700;-600;-700;-800;-900;-800;-800;-900;-800;-700;-800;-800;-700;-800;-800;-700;-600;-700;-800;-700;-600;-700;-800;-800;-900;-900;-800;-700;-600;-700;-800;-800;-900;-800;-800;-700;-800;-900;-800;-800;-900;-800;-800"/>
<animate attributeName="cx" dur="35.84s" keyTimes="0.0;0.007751938;0.015503876;0.023255814;0.0310077519;0.0697674419;0.0775193798;0.2558139535;0.2635658915;0.2868217054;0.2945736434;0.3255813953;0.3333333333;0.3410852713;0.3488372093;0.3565891473;0.3643410853;0.4496124031;0.4573643411;0.4728682171;0.480620155;0.503875969;0.511627907;0.519379845;0.6434108527;0.6511627907;0.6589147287;0.6666666667;0.7286821705;0.7364341085;0.7519379845;0.7596899225;0.7984496124;0.8062015504;0.8139534884;0.8217054264;0.8294573643;0.8372093023;0.8449612403;0.8604651163;0.8682170543;0.8992248062;0.9069767442;0.9302325581;0.9379844961;0.9457364341;1.0" repeatCount="indefinite" values="900;900;800;700;600;600;700;700;600;600;700;700;600;700;600;700;600;600;700;700;600;600;700;600;600;700;800;700;700;600;600;700;700;600;700;600;600;700;600;600;700;700;600;600;700;600;600"/>
<animate attributeName="visibility" dur="35.84s" keyTimes="0.0;0.007751938;1.0" repeatCount="indefinite" values="visible;visible;visible"/> </circle>
<circle cx="500" cy="-700" fill="none" r="35" stroke="#c1433c" stroke-width="10"> <animate attributeName="visibility" dur="35.84s" keyTimes="0.0;0.007751938;1.0" repeatCount="indefinite" values="visible;visible;visible"/> </circle>
</svg>