<?xml version="1.0" encoding="UTF-8"?>
        <svg xmlns="http://www.w3.org/2000/svg" xmlns:xlink="http://www.w3.org/1999/xlink"
             width="190" height="190" viewBox="0 -1900 1900 1900">

<defs>

</defs>

<rect fill="#84A1AE" height="70" rx="15" width="70" x="465" y="-535" />
<rect fill="#84A1AE" height="70" rx="15" width="70" x="465" y="-635" />
<rect fill="#84A1AE" height="70" rx="15" width="70" x="465" y="-735" />
<rect fill="#84A1AE" height="70" rx="15" width="70" x="465" y="-835" />
<rect fill="#84A1AE" height="70" rx="15" width="70" x="465" y="-935" />
<rect fill="#84A1AE" height="70" rx="15" width="70" x="465" y="-1035" />
<rect fill="#84A1AE" height="70" rx="15" width="70" x="465" y="-1135" />
<rect fill="#84A1AE" height="70" rx="15" width="70" x="465" y="-1235" />
<rect fill="#84A1AE" height="70" rx="15" width="70" x="465" y="-1335" />
<rect fill="#84A1AE" height="70" rx="15" width="70" x="465" y="-1435" />
<rect fill="#84A1AE" height="70" rx="15" width="70" x="565" y="-535" />
<rect fill="#84A1AE" height="70" rx="15" width="70" x="565" y="-835" />
<rect fill="#84A1AE" height="70" rx="15" width="70" x="565" y="-935" />
<rect fill="#84A1AE" height="70" rx="15" width="70" x="565" y="-1335" />
<rect fill="#84A1AE" height="70" rx="15" width="70" x="565" y="-1435" />
<rect fill="#84A1AE" height="70" rx="15" width="70" x="665" y="-535" />
<rect fill="#84A1AE" height="70" rx="15" width="70" x="665" y="-735" />
<rect fill="#84A1AE" height="70" rx="15" width="70" x="665" y="-835" />
<rect fill="#84A1AE" height="70" rx="15" width="70" x="665" y="-935" />
<rect fill="#84A1AE" height="70" rx="15" width="70" x="665" y="-1435" />
<rect fill="#84A1AE" height="70" rx="15" width="70" x="765" y="-535" />
<rect fill="#84A1AE" height="70" rx="15" width="70" x="765" y="-835" />
<rect fill="#84A1AE" height="70" rx="15" width="70" x="765" y="-1035" />
<rect fill="#84A1AE" height="70" rx="15" width="70" x="765" y="-1435" />
<rect fill="#84A1AE" height="70" rx="15" width="70" x="865" y="-535" />
<rect fill="#84A1AE" height="70" rx="15" width="70" x="865" y="-635" />
<rect fill="#84A1AE" height="70" rx="15" width="70" x="865" y="-1135" />
<rect fill="#84A1AE" height="70" rx="15" width="70" x="865" y="-1335" />
<rect fill="#84A1AE" height="70" rx="15" width="70" x="865" y="-1435" />
<rect fill="#84A1AE" height="70" rx="15" width="70" x="965" y="-535" />
<rect fill="#84A1AE" height="70" rx="15" width="70" x="965" y="-1035" />
<rect fill="#84A1AE" height="70" rx="15" width="70" x="965" y="-1235" />
<rect fill="#84A1AE" height="70" rx="15" width="70" x="965" y="-1435" />
<rect fill="#84A1AE" height="70" rx="15" width="70" x="1065" y="-535" />
<rect fill="#84A1AE" height="70" rx="15" width="70" x="1065" y="-835" />
<rect fill="#84A1AE" height="70" rx="15" width="70" x="1065" y="-935" />
<rect fill="#84A1AE" height="70" rx="15" width="70" x="1065" y="-1235" />
<rect fill="#84A1AE" height="70" rx="15" width="70" x="1065" y="-1435" />
<rect fill="#84A1AE" height="70" rx="15" width="70" x="1165" y="-535" />
<rect fill="#84A1AE" height="70" rx="15" width="70" x="1165" y="-1435" />
<rect fill="#84A1AE" height="70" rx="15" width="70" x="1265" y="-535" />
<rect fill="#84A1AE" height="70" rx="15" width="70" x="1265" y="-735" />
<rect fill="#84A1AE" height="70" rx="15" width="70" x="1265" y="-1435" />
<rect fill="#84A1AE" height="70" rx="15" width="70" x="1365" y="-535" />
<rect fill="#84A1AE" height="70" rx="15" width="70" x="1365" y="-635" />
<rect fill="#84A1AE" height="70" rx="15" width="70" x="1365" y="-735" />
<rect fill="#84A1AE" height="70" rx="15" width="70" x="1365" y="-835" />
<rect fill="#84A1AE" height="70" rx="15" width="70" x="1365" y="-935" />
<rect fill="#84A1AE" height="70" rx="15" width="70" x="1365" y="-1035" />
<rect fill="#84A1AE" height="70" rx="15" width="70" x="1365" y="-1135" />
<rect fill="#84A1AE" height="70" rx="15" width="70" x="1365" y="-1235" />
<rect fill="#84A1AE" height="70" rx="15" width="70" x="1365" y="-1335" />
<rect fill="#84A1AE" height="70" rx="15" width="70" x="1365" y="-1435" />
<circle cx="1200" cy="-900" fill="#c1433c" r="35"> <animate attributeName="cy" dur="17.92s" keyTimes="0.0;0.0153846154;0.0769230769;0.0923076923;0.1076923077;0.1230769231;0.1538461538;0.1692307692;0.1846153846;0.2;0.2153846154;0.2307692308;0.2461538462;0.2615384615;0.2769230769;0.2923076923;0.3076923077;0.3230769231;0.3384615385;0.4153846154;0.4307692308;0.5076923077;0.5230769231;0.5846153846;0.6;0.6153846154;0.6307692308;0.6461538462;0.6615384615;0.6769230769;0.6923076923;0.7538461538;0.7692307692;0.8153846154;0.8307692308;0.8615384615;0.8769230769;0.8923076923;0.9692307692;0.9846153846;1.0" repeatCount="indefinite" values="-900;-900;-900;-1000;-1000;-1100;-1100;-1000;-1100;-1000;-1000;-1100;-1200;-1300;-1300;-1200;-1300;-1300;-1200;-1200;-1100;-1100;-1000;-1000;-1100;-1100;-1200;-1300;-1200;-1200;-1300;-1300;-1200;-1200;-1300;-1300;-1200;-1300;-1300;-1200;-1200"/>
<animate attributeName="cx" dur="17.92s" keyTimes="0.0;0.0153846154;0.0307692308;0.0461538462;0.0615384615;0.1230769231;0.1384615385;0.1538461538;0.2;0.2153846154;0.3076923077;0.3230769231;0.3538461538;0.3692307692;0.3846153846;0.4;0.4153846154;0.4769230769;0.4923076923;0.5076923077;0.5230769231;0.5384615385;0.5538461538;0.6;0.6153846154;0.6923076923;0.7076923077;0.7692307692;0.7846153846;0.8;1.0" repeatCount="indefinite" values="1200;1200;1300;1200;1300;1300;1200;1100;1100;1200;1200;1300;1300;1200;1300;1200;1300;1300;1200;1100;1100;1200;1300;1300;1200;1200;1300;1300;1200;1300;1300"/>
<animate attributeName="visibility" dur="17.92s" keyTimes="0.0;0.0153846154;1.0" repeatCount="indefinite" values="visible;visible;visible"/> </circle>
<circle cx="700" cy="-600" fill="none" r="35" stroke="#c1433c" stroke-width="10"> <animate attributeName="visibility" dur="17.92s" keyTimes="0.0;0.0153846154;1.0" repeatCount="indefinite" values="visible;visible;visible"/> </circle>
</svg>