<?xml version="1.0" encoding="UTF-8"?>
        <svg xmlns="http://www.w3.org/2000/svg" xmlns:xlink="http://www.w3.org/1999/xlink"
             width="150" height="150" viewBox="0 -1500 1500 1500">

<defs>

</defs>

<rect fill="#84A1AE" height="70" rx="15" width="70" x="265" y="-335" />
<rect fill="#84A1AE" height="70" rx="15" width="70" x="265" y="-435" />
<rect fill="#84A1AE" height="70" rx="15" width="70" x="265" y="-535" />
<rect fill="#84A1AE" height="70" rx="15" width="70" x="265" y="-635" />
<rect fill="#84A1AE" height="70" rx="15" width="70" x="265" y="-735" />
<rect fill="#84A1AE" height="70" rx="15" width="70" x="265" y="-835" />
<rect fill="#84A1AE" height="70" rx="15" width="70" x="265" y="-935" />
<rect fill="#84A1AE" height="70" rx="15" width="70" x="265" y="-1035" />
<rect fill="#84A1AE" height="70" rx="15" width="70" x="265" y="-1135" />
<rect fill="#84A1AE" height="70" rx="15" width="70" x="265" y="-1235" />
<rect fill="#84A1AE" height="70" rx="15" width="70" x="365" y="-335" />
<rect fill="#84A1AE" height="70" rx="15" width="70" x="365" y="-1135" />
<rect fill="#84A1AE" height="70" rx="15" width="70" x="365" y="-1235" />
<rect fill="#84A1AE" height="70" rx="15" width="70" x="465" y="-335" />
<rect fill="#84A1AE" height="70" rx="15" width="70" x="465" y="-635" />
<rect fill="#84A1AE" height="70" rx="15" width="70" x="465" y="-935" />
<rect fill="#84A1AE" height="70" rx="15" width="70" x="465" y="-1235" />
<rect fill="#84A1AE" height="70" rx="15" width="70" x="565" y="-335" />
<rect fill="#84A1AE" height="70" rx="15" width="70" x="565" y="-935" />
<rect fill="#84A1AE" height="70" rx="15" width="70" x="565" y="-1035" />
<rect fill="#84A1AE" height="70" rx="15" width="70" x="565" y="-1235" />
<rect fill="#84A1AE" height="70" rx="15" width="70" x="665" y="-335" />
<rect fill="#84A1AE" height="70" rx="15" width="70" x="665" y="-435" />
<rect fill="#84A1AE" height="70" rx="15" width="70" x="665" y="-535" />
<rect fill="#84A1AE" height="70" rx="15" width="70" x="665" y="-1235" />
<rect fill="#84A1AE" height="70" rx="15" width="70" x="765" y="-335" />
<rect fill="#84A1AE" height="70" rx="15" width="70" x="765" y="-535" />
<rect fill="#84A1AE" height="70" rx="15" width="70" x="765" y="-635" />
<rect fill="#84A1AE" height="70" rx="15" width="70" x="765" y="-835" />
<rect fill="#84A1AE" height="70" rx="15" width="70" x="765" y="-935" />
<rect fill="#84A1AE" height="70" rx="15" width="70" x="765" y="-1035" />
<rect fill="#84A1AE" height="70" rx="15" width="70" x="765" y="-1135" />
<rect fill="#84A1AE" height="70" rx="15" width="70" x="765" y="-1235" />
<rect fill="#84A1AE" height="70" rx="15" width="70" x="865" y="-335" />
<rect fill="#84A1AE" height="70" rx="15" width="70" x="865" y="-635" />
<rect fill="#84A1AE" height="70" rx="15" width="70" x="865" y="-935" />
<rect fill="#84A1AE" height="70" rx="15" width="70" x="865" y="-1035" />
<rect fill="#84A1AE" height="70" rx="15" width="70" x="865" y="-1235" />
<rect fill="#84A1AE" height="70" rx="15" width="70" x="965" y="-335" />
<rect fill="#84A1AE" height="70" rx="15" width="70" x="965" y="-835" />
<rect fill="#84A1AE" height="70" rx="15" width="70" x="965" y="-1135" />
<rect fill="#84A1AE" height="70" rx="15" width="70" x="965" y="-1235" />
<rect fill="#84A1AE" height="70" rx="15" width="70" x="1065" y="-335" />
<rect fill="#84A1AE" height="70" rx="15" width="70" x="1065" y="-535" />
<rect fill="#84A1AE" height="70" rx="15" width="70" x="1065" y="-1235" />
<rect fill="#84A1AE" height="70" rx="15" width="70" x="1165" y="-335" />
<rect fill="#84A1AE" height="70" rx="15" width="70" x="1165" y="-435" />
<rect fill="#84A1AE" height="70" rx="15" width="70" x="1165" y="-535" />
<rect fill="#84A1AE" height="70" rx="15" width="70" x="1165" y="-635" />
<rect fill="#84A1AE" height="70" rx="15" width="70" x="1165" y="-735" />
<rect fill="#84A1AE" height="70" rx="15" width="70" x="1165" y="-835" />
<rect fill="#84A1AE" height="70" rx="15" width="70" x="1165" y="-935" />
<rect fill="#84A1AE" height="70" rx="15" width="70" x="1165" y="-1035" />
<rect fill="#84A1AE" height="70" rx="15" width="70" x="1165" y="-1135" />
<rect fill="#84A1AE" height="70" rx="15" width="70" x="1165" y="-1235" />
<circle cx="1000" cy="-900" fill="#c1433c" r="35"> <animate attributeName="cy" dur="33.32s" keyTimes="0.0;0.0083333333;0.0166666667;0.025;0.0333333333;0.0416666667;0.05;0.0583333333;0.0666666667;0.075;0.0833333333;0.0916666667;0.1;0.125;0.1333333333;0.1416666667;0.15;0.1583333333;0.1666666667;0.175;0.1833333333;0.1916666667;0.2;0.2083333333;0.2166666667;0.225;0.2333333333;0.2416666667;0.25;0.2583333333;0.2666666667;0.275;0.2833333333;0.2916666667;0.3;0.3083333333;0.3166666667;0.325;0.3333333333;0.3416666667;0.3583333333;0.3666666667;0.375;0.3833333333;0.3916666667;0.4;0.4083333333;0.4166666667;0.4416666667;0.45;0.4666666667;0.475;0.4833333333;0.4916666667;0.5;0.5083333333;0.5166666667;0.525;0.5333333333;0.5416666667;0.55;0.5583333333;0.5666666667;0.575;0.5833333333;0.5916666667;0.6;0.6083333333;0.6166666667;0.625;0.6333333333;0.6416666667;0.65;0.6583333333;0.6666666667;0.675;0.6833333333;0.6916666667;0.7;0.7083333333;0.7166666667;0.725;0.7333333333;0.7416666667;0.75;0.7583333333;0.7666666667;0.775;0.7833333333;0.7916666667;0.8;0.8083333333;0.8166666667;0.825;0.8333333333;0.8416666667;0.85;0.8583333333;0.8666666667;0.875;0.8833333333;0.8916666667;0.9;0.9083333333;0.9833333333;0.9916666667;1.0" repeatCount="indefinite" values="-900;-900;-1000;-1000;-900;-900;-800;-900;-1000;-900;-900;-800;-900;-900;-1000;-1000;-900;-1000;-900;-900;-1000;-900;-800;-900;-1000;-900;-800;-900;-900;-1000;-1000;-900;-900;-1000;-1000;-900;-800;-900;-1000;-900;-900;-1000;-1000;-900;-800;-900;-800;-900;-900;-1000;-1000;-900;-800;-900;-800;-900;-800;-900;-900;-1000;-1000;-900;-800;-900;-900;-800;-900;-800;-900;-1000;-900;-1000;-900;-800;-900;-900;-1000;-900;-900;-800;-900;-900;-1000;-1000;-900;-900;-1000;-1000;-900;-900;-1000;-1000;-900;-1000;-900;-900;-800;-900;-800;-900;-800;-900;-800;-700;-700;-800;-800"/>
<animate attributeName="cx" dur="33.32s" keyTimes="0.0;0.0083333333;0.0166666667;0.025;0.1;0.1083333333;0.1333333333;0.1416666667;0.2416666667;0.25;0.2583333333;0.2666666667;0.275;0.2833333333;0.2916666667;0.3;0.3416666667;0.35;0.3666666667;0.375;0.425;0.4333333333;0.4583333333;0.4666666667;0.525;0.5333333333;0.5416666667;0.55;0.7166666667;0.725;0.7333333333;0.7416666667;0.75;0.7583333333;0.7666666667;0.775;0.7833333333;0.7916666667;0.8;0.8083333333;0.9083333333;0.9166666667;0.925;0.9333333333;0.9416666667;0.95;0.9583333333;0.9666666667;0.975;0.9833333333;1.0" repeatCount="indefinite" values="1000;1000;1000;1100;1100;1000;1000;1100;1100;1000;1000;1100;1100;1000;1000;1100;1100;1000;1000;1100;1100;1000;1000;1100;1100;1000;1000;1100;1100;1000;1000;1100;1100;1000;1000;1100;1100;1000;1000;1100;1100;1000;1100;1000;1000;1100;1000;900;800;700;700"/>
<animate attributeName="visibility" dur="33.32s" keyTimes="0.0;0.0083333333;0.9833333333;0.9916666667;1.0" repeatCount="indefinite" values="visible;visible;visible;hidden;hidden"/> </circle>
<circle cx="700" cy="-800" fill="none" r="35" stroke="#c1433c" stroke-width="10"> <animate attributeName="visibility" dur="33.32s" keyTimes="0.0;0.0083333333;0.9833333333;0.9916666667;1.0" repeatCount="indefinite" values="visible;visible;visible;hidden;hidden"/> </circle>
</svg>