<?xml version="1.0" encoding="UTF-8"?>
        <svg xmlns="http://www.w3.org/2000/svg" xmlns:xlink="http://www.w3.org/1999/xlink"
             width="150" height="150" viewBox="0 -1500 1500 1500">

<defs>

</defs>

<rect fill="#84A1AE" height="70" rx="15" width="70" x="265" y="-335" />
<rect fill="#84A1AE" height="70" rx="15" width="70" x="265" y="-435" />
<rect fill="#84A1AE" height="70" rx="15" width="70" x="265" y="-535" />
<rect fill="#84A1AE" height="70" rx="15" width="70" x="265" y="-635" />
<rect fill="#84A1AE" height="70" rx="15" width="70" x="265" y="-735" />
<rect fill="#84A1AE" height="70" rx="15" width="70" x="265" y="-835" />
<rect fill="#84A1AE" height="70" rx="15" width="70" x="265" y="-935" />
<rect fill="#84A1AE" height="70" rx="15" width="70" x="265" y="-1035" />
<rect fill="#84A1AE" height="70" rx="15" width="70" x="265" y="-1135" />
<rect fill="#84A1AE" height="70" rx="15" width="70" x="265" y="-1235" />
<rect fill="#84A1AE" height="70" rx="15" width="70" x="365" y="-335" />
<rect fill="#84A1AE" height="70" rx="15" width="70" x="365" y="-535" />
<rect fill="#84A1AE" height="70" rx="15" width="70" x="365" y="-1235" />
<rect fill="#84A1AE" height="70" rx="15" width="70" x="465" y="-335" />
<rect fill="#84A1AE" height="70" rx="15" width="70" x="465" y="-1235" />
<rect fill="#84A1AE" height="70" rx="15" width="70" x="565" y="-335" />
<rect fill="#84A1AE" height="70" rx="15" width="70" x="565" y="-1035" />
<rect fill="#84A1AE" height="70" rx="15" width="70" x="565" y="-1235" />
<rect fill="#84A1AE" height="70" rx="15" width="70" x="665" y="-335" />
<rect fill="#84A1AE" height="70" rx="15" width="70" x="665" y="-535" />
<rect fill="#84A1AE" height="70" rx="15" width="70" x="665" y="-835" />
<rect fill="#84A1AE" height="70" rx="15" width="70" x="665" y="-1035" />
<rect fill="#84A1AE" height="70" rx="15" width="70" x="665" y="-1235" />
<rect fill="#84A1AE" height="70" rx="15" width="70" x="765" y="-335" />
<rect fill="#84A1AE" height="70" rx="15" width="70" x="765" y="-435" />
<rect fill="#84A1AE" height="70" rx="15" width="70" x="765" y="-935" />
<rect fill="#84A1AE" height="70" rx="15" width="70" x="765" y="-1035" />
<rect fill="#84A1AE" height="70" rx="15" width="70" x="765" y="-1235" />
<rect fill="#84A1AE" height="70" rx="15" width="70" x="865" y="-335" />
<rect fill="#84A1AE" height="70" rx="15" width="70" x="865" y="-935" />
<rect fill="#84A1AE" height="70" rx="15" width="70" x="865" y="-1235" />
<rect fill="#84A1AE" height="70" rx="15" width="70" x="965" y="-335" />
<rect fill="#84A1AE" height="70" rx="15" width="70" x="965" y="-935" />
<rect fill="#84A1AE" height="70" rx="15" width="70" x="965" y="-1035" />
<rect fill="#84A1AE" height="70" rx="15" width="70" x="965" y="-1235" />
<rect fill="#84A1AE" height="70" rx="15" width="70" x="1065" y="-335" />
<rect fill="#84A1AE" height="70" rx="15" width="70" x="1065" y="-435" />
<rect fill="#84A1AE" height="70" rx="15" width="70" x="1065" y="-1235" />
<rect fill="#84A1AE" height="70" rx="15" width="70" x="1165" y="-335" />
<rect fill="#84A1AE" height="70" rx="15" width="70" x="1165" y="-435" />
<rect fill="#84A1AE" height="70" rx="15" width="70" x="1165" y="-535" />
<rect fill="#84A1AE" height="70" rx="15" width="70" x="1165" y="-635" />
<rect fill="#84A1AE" height="70" rx="15" width="70" x="1165" y="-735" />
<rect fill="#84A1AE" height="70" rx="15" width="70" x="1165" y="-835" />
<rect fill="#84A1AE" height="70" rx="15" width="70" x="1165" y="-935" />
<rect fill="#84A1AE" height="70" rx="15" width="70" x="1165" y="-1035" />
<rect fill="#84A1AE" height="70" rx="15" width="70" x="1165" y="-1135" />
<rect fill="#84A1AE" height="70" rx="15" width="70" x="1165" y="-1235" />
<circle cx="600" cy="-900" fill="#c1433c" r="35"> <animate attributeName="cy" dur="36.120000000000005s" keyTimes="0.0;0.0076923077;0.3307692308;0.3384615385;0.3461538462;0.3538461538;0.3615384615;0.4615384615;0.4692307692;0.4769230769;0.8384615385;0.8461538462;0.8538461538;0.9692307692;0.9769230769;0.9846153846;1.0" repeatCount="indefinite" values="-900;-900;-900;-800;-900;-800;-900;-900;-800;-900;-900;-800;-900;-900;-800;-900;-900"/>
<animate attributeName="cx" dur="36.120000000000005s" keyTimes="0.0;0.0076923077;0.0153846154;0.0230769231;0.0307692308;0.1846153846;0.1923076923;0.2;0.2076923077;0.2153846154;0.3;0.3076923077;0.3153846154;0.3230769231;0.3307692308;0.3615384615;0.3692307692;0.3769230769;0.3846153846;0.4384615385;0.4461538462;0.4538461538;0.4615384615;0.4769230769;0.4846153846;0.4923076923;0.5;0.5307692308;0.5384615385;0.5461538462;0.5538461538;0.5615384615;0.5692307692;0.5846153846;0.5923076923;0.6;0.6076923077;0.6153846154;0.6230769231;0.6461538462;0.6538461538;0.6615384615;0.6692307692;0.6769230769;0.6923076923;0.7;0.7076923077;0.7230769231;0.7307692308;0.7384615385;0.7461538462;0.7538461538;0.7692307692;0.7769230769;0.7846153846;0.8153846154;0.8230769231;0.8307692308;0.8384615385;0.8538461538;0.8615384615;0.8769230769;0.8846153846;0.8923076923;0.9615384615;0.9692307692;0.9846153846;0.9923076923;1.0" repeatCount="indefinite" values="600;600;700;600;700;700;600;700;600;700;700;600;700;700;600;600;700;600;700;700;600;700;600;600;700;600;700;700;600;700;700;600;700;700;600;700;700;600;700;700;600;700;600;700;700;600;700;700;600;700;600;700;700;600;700;700;600;700;600;600;700;700;600;700;700;600;600;700;700"/>
<animate attributeName="visibility" dur="36.120000000000005s" keyTimes="0.0;0.0076923077;1.0" repeatCount="indefinite" values="visible;visible;visible"/> </circle>
<circle cx="1000" cy="-1100" fill="none" r="35" stroke="#c1433c" stroke-width="10"> <animate attributeName="visibility" dur="36.120000000000005s" keyTimes="0.0;0.0076923077;1.0" repeatCount="indefinite" values="visible;visible;visible"/> </circle>
</svg>