<?xml version="1.0" encoding="UTF-8"?>
        <svg xmlns="http://www.w3.org/2000/svg" xmlns:xlink="http://www.w3.org/1999/xlink"
             width="190" height="190" viewBox="0 -1900 1900 1900">

<defs>

</defs>

<rect fill="#84A1AE" height="70" rx="15" width="70" x="465" y="-535" />
<rect fill="#84A1AE" height="70" rx="15" width="70" x="465" y="-635" />
<rect fill="#84A1AE" height="70" rx="15" width="70" x="465" y="-735" />
<rect fill="#84A1AE" height="70" rx="15" width="70" x="465" y="-835" />
<rect fill="#84A1AE" height="70" rx="15" width="70" x="465" y="-935" />
<rect fill="#84A1AE" height="70" rx="15" width="70" x="465" y="-1035" />
<rect fill="#84A1AE" height="70" rx="15" width="70" x="465" y="-1135" />
<rect fill="#84A1AE" height="70" rx="15" width="70" x="465" y="-1235" />
<rect fill="#84A1AE" height="70" rx="15" width="70" x="465" y="-1335" />
<rect fill="#84A1AE" height="70" rx="15" width="70" x="465" y="-1435" />
<rect fill="#84A1AE" height="70" rx="15" width="70" x="565" y="-535" />
<rect fill="#84A1AE" height="70" rx="15" width="70" x="565" y="-1435" />
<rect fill="#84A1AE" height="70" rx="15" width="70" x="665" y="-535" />
<rect fill="#84A1AE" height="70" rx="15" width="70" x="665" y="-1435" />
<rect fill="#84A1AE" height="70" rx="15" width="70" x="765" y="-535" />
<rect fill="#84A1AE" height="70" rx="15" width="70" x="765" y="-1135" />
<rect fill="#84A1AE" height="70" rx="15" width="70" x="765" y="-1435" />
<rect fill="#84A1AE" height="70" rx="15" width="70" x="865" y="-535" />
<rect fill="#84A1AE" height="70" rx="15" width="70" x="865" y="-635" />
<rect fill="#84A1AE" height="70" rx="15" width="70" x="865" y="-735" />
<rect fill="#84A1AE" height="70" rx="15" width="70" x="865" y="-1435" />
<rect fill="#84A1AE" height="70" rx="15" width="70" x="965" y="-535" />
<rect fill="#84A1AE" height="70" rx="15" width="70" x="965" y="-935" />
<rect fill="#84A1AE" height="70" rx="15" width="70" x="965" y="-1035" />
<rect fill="#84A1AE" height="70" rx="15" width="70" x="965" y="-1435" />
<rect fill="#84A1AE" height="70" rx="15" width="70" x="1065" y="-535" />
<rect fill="#84A1AE" height="70" rx="15" width="70" x="1065" y="-1035" />
<rect fill="#84A1AE" height="70" rx="15" width="70" x="1065" y="-1235" />
<rect fill="#84A1AE" height="70" rx="15" width="70" x="1065" y="-1335" />
<rect fill="#84A1AE" height="70" rx="15" width="70" x="1065" y="-1435" />
<rect fill="#84A1AE" height="70" rx="15" width="70" x="1165" y="-535" />
<rect fill="#84A1AE" height="70" rx="15" width="70" x="1165" y="-1035" />
<rect fill="#84A1AE" height="70" rx="15" width="70" x="1165" y="-1135" />
<rect fill="#84A1AE" height="70" rx="15" width="70" x="1165" y="-1435" />
<rect fill="#84A1AE" height="70" rx="15" width="70" x="1265" y="-535" />
<rect fill="#84A1AE" height="70" rx="15" width="70" x="1265" y="-935" />
<rect fill="#84A1AE" height="70" rx="15" width="70" x="1265" y="-1135" />
<rect fill="#84A1AE" height="70" rx="15" width="70" x="1265" y="-1435" />
<rect fill="#84A1AE" height="70" rx="15" width="70" x="1365" y="-535" />
<rect fill="#84A1AE" height="70" rx="15" width="70" x="1365" y="-635" />
<rect fill="#84A1AE" height="70" rx="15" width="70" x="1365" y="-735" />
<rect fill="#84A1AE" height="70" rx="15" width="70" x="1365" y="-835" />
<rect fill="#84A1AE" height="70" rx="15" width="70" x="1365" y="-935" />
<rect fill="#84A1AE" height="70" rx="15" width="70" x="1365" y="-1035" />
<rect fill="#84A1AE" height="70" rx="15" width="70" x="1365" y="-1135" />
<rect fill="#84A1AE" height="70" rx="15" width="70" x="1365" y="-1235" />
<rect fill="#84A1AE" height="70" rx="15" width="70" x="1365" y="-1335" />
<rect fill="#84A1AE" height="70" rx="15" width="70" x="1365" y="-1435" />
<circle cx="600" cy="-700" fill="#c1433c" r="35"> <animate attributeName="cy" dur="23.240000000000002s" keyTimes="0.0;0.0119047619;0.0238095238;0.0476190476;0.0595238095;0.0714285714;0.0833333333;0.0952380952;0.1071428571;0.119047619;0.130952381;0.1428571429;0.1547619048;0.1666666667;0.1785714286;0.1904761905;0.2023809524;0.2142857143;0.2261904762;0.25;0.2619047619;0.2738095238;0.2857142857;0.2976190476;0.3095238095;0.3214285714;0.3333333333;0.3452380952;0.3571428571;0.369047619;0.380952381;0.3928571429;0.4047619048;0.4166666667;0.4523809524;0.4642857143;0.5;0.5119047619;0.5238095238;0.5357142857;0.5476190476;0.5595238095;0.5714285714;0.5833333333;0.619047619;0.630952381;0.6428571429;0.6547619048;0.6666666667;0.6785714286;0.6904761905;0.7023809524;0.7142857143;0.7261904762;0.7380952381;0.75;0.7619047619;0.7738095238;0.7857142857;0.7976190476;0.8095238095;0.8214285714;0.8333333333;0.8452380952;0.8571428571;0.869047619;0.880952381;0.8928571429;0.9047619048;0.9166666667;0.9285714286;0.9523809524;0.9642857143;1.0" repeatCount="indefinite" values="-700;-700;-600;-600;-700;-600;-700;-800;-800;-700;-600;-600;-700;-800;-700;-800;-800;-900;-1000;-1000;-1100;-1100;-1200;-1300;-1200;-1100;-1200;-1100;-1100;-1000;-1100;-1200;-1300;-1200;-1200;-1300;-1300;-1200;-1200;-1100;-1000;-900;-900;-800;-800;-700;-600;-600;-700;-800;-900;-800;-800;-900;-1000;-900;-1000;-1000;-900;-1000;-900;-900;-800;-900;-800;-700;-800;-800;-700;-600;-700;-700;-800;-800"/>
<animate attributeName="cx" dur="23.240000000000002s" keyTimes="0.0;0.0119047619;0.0238095238;0.0357142857;0.0476190476;0.0952380952;0.1071428571;0.130952381;0.1428571429;0.1904761905;0.2023809524;0.2261904762;0.2380952381;0.25;0.2619047619;0.2738095238;0.4166666667;0.4285714286;0.4404761905;0.4523809524;0.4642857143;0.4761904762;0.4880952381;0.5952380952;0.6071428571;0.619047619;0.9285714286;0.9404761905;0.9523809524;0.9642857143;0.9761904762;0.9880952381;1.0" repeatCount="indefinite" values="600;600;600;700;800;800;700;700;800;800;900;900;800;700;700;600;600;700;700;800;800;700;600;600;700;600;600;700;800;800;900;1000;1000"/>
<animate attributeName="visibility" dur="23.240000000000002s" keyTimes="0.0;0.0119047619;0.9761904762;0.9880952381;1.0" repeatCount="indefinite" values="visible;visible;visible;hidden;hidden"/> </circle>
<circle cx="1000" cy="-800" fill="none" r="35" stroke="#c1433c" stroke-width="10"> <animate attributeName="visibility" dur="23.240000000000002s" keyTimes="0.0;0.0119047619;0.9761904762;0.9880952381;1.0" repeatCount="indefinite" values="visible;visible;visible;hidden;hidden"/> </circle>
</svg>