<?xml version="1.0" encoding="UTF-8"?>
        <svg xmlns="http://www.w3.org/2000/svg" xmlns:xlink="http://www.w3.org/1999/xlink"
             width="190" height="190" viewBox="0 -1900 1900 1900">

<defs>

</defs>

<rect fill="#84A1AE" height="70" rx="15" width="70" x="465" y="-535" />
<rect fill="#84A1AE" height="70" rx="15" width="70" x="465" y="-635" />
<rect fill="#84A1AE" height="70" rx="15" width="70" x="465" y="-735" />
<rect fill="#84A1AE" height="70" rx="15" width="70" x="465" y="-835" />
<rect fill="#84A1AE" height="70" rx="15" width="70" x="465" y="-935" />
<rect fill="#84A1AE" height="70" rx="15" width="70" x="465" y="-1035" />
<rect fill="#84A1AE" height="70" rx="15" width="70" x="465" y="-1135" />
<rect fill="#84A1AE" height="70" rx="15" width="70" x="465" y="-1235" />
<rect fill="#84A1AE" height="70" rx="15" width="70" x="465" y="-1335" />
<rect fill="#84A1AE" height="70" rx="15" width="70" x="465" y="-1435" />
<rect fill="#84A1AE" height="70" rx="15" width="70" x="565" y="-535" />
<rect fill="#84A1AE" height="70" rx="15" width="70" x="565" y="-635" />
<rect fill="#84A1AE" height="70" rx="15" width="70" x="565" y="-1135" />
<rect fill="#84A1AE" height="70" rx="15" width="70" x="565" y="-1235" />
<rect fill="#84A1AE" height="70" rx="15" width="70" x="565" y="-1435" />
<rect fill="#84A1AE" height="70" rx="15" width="70" x="665" y="-535" />
<rect fill="#84A1AE" height="70" rx="15" width="70" x="665" y="-735" />
<rect fill="#84A1AE" height="70" rx="15" width="70" x="665" y="-1035" />
<rect fill="#84A1AE" height="70" rx="15" width="70" x="665" y="-1435" />
<rect fill="#84A1AE" height="70" rx="15" width="70" x="765" y="-535" />
<rect fill="#84A1AE" height="70" rx="15" width="70" x="765" y="-835" />
<rect fill="#84A1AE" height="70" rx="15" width="70" x="765" y="-935" />
<rect fill="#84A1AE" height="70" rx="15" width="70" x="765" y="-1135" />
<rect fill="#84A1AE" height="70" rx="15" width="70" x="765" y="-1235" />
<rect fill="#84A1AE" height="70" rx="15" width="70" x="765" y="-1335" />
<rect fill="#84A1AE" height="70" rx="15" width="70" x="765" y="-1435" />
<rect fill="#84A1AE" height="70" rx="15" width="70" x="865" y="-535" />
<rect fill="#84A1AE" height="70" rx="15" width="70" x="865" y="-735" />
<rect fill="#84A1AE" height="70" rx="15" width="70" x="865" y="-1035" />
<rect fill="#84A1AE" height="70" rx="15" width="70" x="865" y="-1235" />
<rect fill="#84A1AE" height="70" rx="15" width="70" x="865" y="-1435" />
<rect fill="#84A1AE" height="70" rx="15" width="70" x="965" y="-535" />
<rect fill="#84A1AE" height="70" rx="15" width="70" x="965" y="-835" />
<rect fill="#84A1AE" height="70" rx="15" width="70" x="965" y="-1235" />
<rect fill="#84A1AE" height="70" rx="15" width="70" x="965" y="-1335" />
<rect fill="#84A1AE" height="70" rx="15" width="70" x="965" y="-1435" />
<rect fill="#84A1AE" height="70" rx="15" width="70" x="1065" y="-535" />
<rect fill="#84A1AE" height="70" rx="15" width="70" x="1065" y="-835" />
<rect fill="#84A1AE" height="70" rx="15" width="70" x="1065" y="-1435" />
<rect fill="#84A1AE" height="70" rx="15" width="70" x="1165" y="-535" />
<rect fill="#84A1AE" height="70" rx="15" width="70" x="1165" y="-635" />
<rect fill="#84A1AE" height="70" rx="15" width="70" x="1165" y="-1235" />
<rect fill="#84A1AE" height="70" rx="15" width="70" x="1165" y="-1435" />
<rect fill="#84A1AE" height="70" rx="15" width="70" x="1265" y="-535" />
<rect fill="#84A1AE" height="70" rx="15" width="70" x="1265" y="-735" />
<rect fill="#84A1AE" height="70" rx="15" width="70" x="1265" y="-935" />
<rect fill="#84A1AE" height="70" rx="15" width="70" x="1265" y="-1135" />
<rect fill="#84A1AE" height="70" rx="15" width="70" x="1265" y="-1435" />
<rect fill="#84A1AE" height="70" rx="15" width="70" x="1365" y="-535" />
<rect fill="#84A1AE" height="70" rx="15" width="70" x="1365" y="-635" />
<rect fill="#84A1AE" height="70" rx="15" width="70" x="1365" y="-735" />
<rect fill="#84A1AE" height="70" rx="15" width="70" x="1365" y="-835" />
<rect fill="#84A1AE" height="70" rx="15" width="70" x="1365" y="-935" />
<rect fill="#84A1AE" height="70" rx="15" width="70" x="1365" y="-1035" />
<rect fill="#84A1AE" height="70" rx="15" width="70" x="1365" y="-1135" />
<rect fill="#84A1AE" height="70" rx="15" width="70" x="1365" y="-1235" />
<rect fill="#84A1AE" height="70" rx="15" width="70" x="1365" y="-1335" />
<rect fill="#84A1AE" height="70" rx="15" width="70" x="1365" y="-1435" />
<circle cx="1100" cy="-1300" fill="#c1433c" r="35"> <animate attributeName="cy" dur="11.760000000000002s" keyTimes="0.0;0.023255814;0.0697674419;0.0930232558;0.1162790698;0.1860465116;0.2093023256;0.2325581395;0.2558139535;0.2790697674;0.3023255814;0.3255813953;0.3488372093;0.5813953488;0.6046511628;0.6279069767;0.7906976744;0.8139534884;0.8372093023;0.9302325581;0.9534883721;0.976744186;1.0" repeatCount="indefinite" values="-1300;-1300;-1300;-1200;-1100;-1100;-1000;-900;-1000;-1000;-900;-900;-800;-800;-900;-800;-800;-900;-800;-800;-900;-800;-800"/>
<animate attributeName="cx" dur="11.760000000000002s" keyTimes="0.0;0.023255814;0.0465116279;0.0697674419;0.1162790698;0.1395348837;0.1627906977;0.1860465116;0.3023255814;0.3255813953;1.0" repeatCount="indefinite" values="1100;1100;1200;1100;1100;1000;900;1000;1000;900;900"/>
<animate attributeName="visibility" dur="11.760000000000002s" keyTimes="0.0;0.023255814;1.0" repeatCount="indefinite" values="visible;visible;visible"/> </circle>
<circle cx="900" cy="-600" fill="none" r="35" stroke="#c1433c" stroke-width="10"> <animate attributeName="visibility" dur="11.760000000000002s" keyTimes="0.0;0.023255814;1.0" repeatCount="indefinite" values="visible;visible;visible"/> </circle>
</svg>