<?xml version="1.0" encoding="UTF-8"?>
        <svg xmlns="http://www.w3.org/2000/svg" xmlns:xlink="http://www.w3.org/1999/xlink"
             width="190" height="190" viewBox="0 -1900 1900 1900">

<defs>

</defs>

<rect fill="#84A1AE" height="70" rx="15" width="70" x="465" y="-535" />
<rect fill="#84A1AE" height="70" rx="15" width="70" x="465" y="-635" />
<rect fill="#84A1AE" height="70" rx="15" width="70" x="465" y="-735" />
<rect fill="#84A1AE" height="70" rx="15" width="70" x="465" y="-835" />
<rect fill="#84A1AE" height="70" rx="15" width="70" x="465" y="-935" />
<rect fill="#84A1AE" height="70" rx="15" width="70" x="465" y="-1035" />
<rect fill="#84A1AE" height="70" rx="15" width="70" x="465" y="-1135" />
<rect fill="#84A1AE" height="70" rx="15" width="70" x="465" y="-1235" />
<rect fill="#84A1AE" height="70" rx="15" width="70" x="465" y="-1335" />
<rect fill="#84A1AE" height="70" rx="15" width="70" x="465" y="-1435" />
<rect fill="#84A1AE" height="70" rx="15" width="70" x="565" y="-535" />
<rect fill="#84A1AE" height="70" rx="15" width="70" x="565" y="-935" />
<rect fill="#84A1AE" height="70" rx="15" width="70" x="565" y="-1235" />
<rect fill="#84A1AE" height="70" rx="15" width="70" x="565" y="-1435" />
<rect fill="#84A1AE" height="70" rx="15" width="70" x="665" y="-535" />
<rect fill="#84A1AE" height="70" rx="15" width="70" x="665" y="-835" />
<rect fill="#84A1AE" height="70" rx="15" width="70" x="665" y="-1435" />
<rect fill="#84A1AE" height="70" rx="15" width="70" x="765" y="-535" />
<rect fill="#84A1AE" height="70" rx="15" width="70" x="765" y="-635" />
<rect fill="#84A1AE" height="70" rx="15" width="70" x="765" y="-1435" />
<rect fill="#84A1AE" height="70" rx="15" width="70" x="865" y="-535" />
<rect fill="#84A1AE" height="70" rx="15" width="70" x="865" y="-635" />
<rect fill="#84A1AE" height="70" rx="15" width="70" x="865" y="-835" />
<rect fill="#84A1AE" height="70" rx="15" width="70" x="865" y="-935" />
<rect fill="#84A1AE" height="70" rx="15" width="70" x="865" y="-1235" />
<rect fill="#84A1AE" height="70" rx="15" width="70" x="865" y="-1435" />
<rect fill="#84A1AE" height="70" rx="15" width="70" x="965" y="-535" />
<rect fill="#84A1AE" height="70" rx="15" width="70" x="965" y="-1035" />
<rect fill="#84A1AE" height="70" rx="15" width="70" x="965" y="-1135" />
<rect fill="#84A1AE" height="70" rx="15" width="70" x="965" y="-1235" />
<rect fill="#84A1AE" height="70" rx="15" width="70" x="965" y="-1435" />
<rect fill="#84A1AE" height="70" rx="15" width="70" x="1065" y="-535" />
<rect fill="#84A1AE" height="70" rx="15" width="70" x="1065" y="-1235" />
<rect fill="#84A1AE" height="70" rx="15" width="70" x="1065" y="-1335" />
<rect fill="#84A1AE" height="70" rx="15" width="70" x="1065" y="-1435" />
<rect fill="#84A1AE" height="70" rx="15" width="70" x="1165" y="-535" />
<rect fill="#84A1AE" height="70" rx="15" width="70" x="1165" y="-1335" />
<rect fill="#84A1AE" height="70" rx="15" width="70" x="1165" y="-1435" />
<rect fill="#84A1AE" height="70" rx="15" width="70" x="1265" y="-535" />
<rect fill="#84A1AE" height="70" rx="15" width="70" x="1265" y="-635" />
<rect fill="#84A1AE" height="70" rx="15" width="70" x="1265" y="-1435" />
<rect fill="#84A1AE" height="70" rx="15" width="70" x="1365" y="-535" />
<rect fill="#84A1AE" height="70" rx="15" width="70" x="1365" y="-635" />
<rect fill="#84A1AE" height="70" rx="15" width="70" x="1365" y="-735" />
<rect fill="#84A1AE" height="70" rx="15" width="70" x="1365" y="-835" />
<rect fill="#84A1AE" height="70" rx="15" width="70" x="1365" y="-935" />
<rect fill="#84A1AE" height="70" rx="15" width="70" x="1365" y="-1035" />
<rect fill="#84A1AE" height="70" rx="15" width="70" x="1365" y="-1135" />
<rect fill="#84A1AE" height="70" rx="15" width="70" x="1365" y="-1235" />
<rect fill="#84A1AE" height="70" rx="15" width="70" x="1365" y="-1335" />
<rect fill="#84A1AE" height="70" rx="15" width="70" x="1365" y="-1435" />
<circle cx="1300" cy="-1300" fill="#c1433c" r="35"> <animate attributeName="cy" dur="26.6s" keyTimes="0.0;0.0104166667;0.1041666667;0.1145833333;0.125;0.1354166667;0.1458333333;0.1666666667;0.1770833333;0.1875;0.1979166667;0.25;0.2604166667;0.2708333333;0.28125;0.2916666667;0.3020833333;0.3125;0.4166666667;0.4270833333;0.4375;0.5104166667;0.5208333333;0.53125;0.5625;0.5729166667;0.5833333333;0.59375;0.6041666667;0.625;0.6354166667;0.65625;0.6666666667;0.7083333333;0.71875;0.7291666667;0.7395833333;0.75;0.7604166667;0.7708333333;0.78125;0.7916666667;0.8020833333;0.8125;0.8229166667;0.8541666667;0.8645833333;0.875;0.8854166667;0.90625;0.9166666667;0.9270833333;0.9791666667;0.9895833333;1.0" repeatCount="indefinite" values="-1300;-1300;-1300;-1200;-1300;-1300;-1200;-1200;-1100;-1100;-1200;-1200;-1100;-1000;-900;-800;-700;-600;-600;-700;-600;-600;-700;-800;-800;-900;-900;-800;-900;-900;-800;-800;-700;-700;-800;-900;-900;-800;-800;-900;-1000;-1000;-900;-900;-800;-800;-900;-900;-800;-800;-900;-800;-800;-900;-900"/>
<animate attributeName="cx" dur="26.6s" keyTimes="0.0;0.0104166667;0.1458333333;0.15625;0.2083333333;0.21875;0.2395833333;0.25;0.3125;0.3229166667;0.3333333333;0.34375;0.3541666667;0.3645833333;0.375;0.3854166667;0.3958333333;0.4479166667;0.4583333333;0.46875;0.5520833333;0.5625;0.5729166667;0.5833333333;0.6041666667;0.6145833333;0.6354166667;0.6458333333;0.6666666667;0.6770833333;0.8333333333;0.84375;0.8854166667;0.8958333333;0.9270833333;0.9375;0.9479166667;0.9583333333;1.0" repeatCount="indefinite" values="1300;1300;1300;1200;1200;1300;1300;1200;1200;1100;1100;1000;1100;1200;1200;1100;1000;1000;1100;1200;1200;1100;1100;1200;1200;1100;1100;1200;1200;1300;1300;1200;1200;1300;1300;1200;1100;1000;1000"/>
<animate attributeName="visibility" dur="26.6s" keyTimes="0.0;0.0104166667;1.0" repeatCount="indefinite" values="visible;visible;visible"/> </circle>
<circle cx="700" cy="-700" fill="none" r="35" stroke="#c1433c" stroke-width="10"> <animate attributeName="visibility" dur="26.6s" keyTimes="0.0;0.0104166667;1.0" repeatCount="indefinite" values="visible;visible;visible"/> </circle>
</svg>