<?xml version="1.0" encoding="UTF-8"?>
        <svg xmlns="http://www.w3.org/2000/svg" xmlns:xlink="http://www.w3.org/1999/xlink"
             width="190" height="190" viewBox="0 -1900 1900 1900">

<defs>

</defs>

<rect fill="#84A1AE" height="70" rx="15" width="70" x="465" y="-535" />
<rect fill="#84A1AE" height="70" rx="15" width="70" x="465" y="-635" />
<rect fill="#84A1AE" height="70" rx="15" width="70" x="465" y="-735" />
<rect fill="#84A1AE" height="70" rx="15" width="70" x="465" y="-835" />
<rect fill="#84A1AE" height="70" rx="15" width="70" x="465" y="-935" />
<rect fill="#84A1AE" height="70" rx="15" width="70" x="465" y="-1035" />
<rect fill="#84A1AE" height="70" rx="15" width="70" x="465" y="-1135" />
<rect fill="#84A1AE" height="70" rx="15" width="70" x="465" y="-1235" />
<rect fill="#84A1AE" height="70" rx="15" width="70" x="465" y="-1335" />
<rect fill="#84A1AE" height="70" rx="15" width="70" x="465" y="-1435" />
<rect fill="#84A1AE" height="70" rx="15" width="70" x="565" y="-535" />
<rect fill="#84A1AE" height="70" rx="15" width="70" x="565" y="-1035" />
<rect fill="#84A1AE" height="70" rx="15" width="70" x="565" y="-1235" />
<rect fill="#84A1AE" height="70" rx="15" width="70" x="565" y="-1335" />
<rect fill="#84A1AE" height="70" rx="15" width="70" x="565" y="-1435" />
<rect fill="#84A1AE" height="70" rx="15" width="70" x="665" y="-535" />
<rect fill="#84A1AE" height="70" rx="15" width="70" x="665" y="-635" />
<rect fill="#84A1AE" height="70" rx="15" width="70" x="665" y="-935" />
<rect fill="#84A1AE" height="70" rx="15" width="70" x="665" y="-1135" />
<rect fill="#84A1AE" height="70" rx="15" width="70" x="665" y="-1435" />
<rect fill="#84A1AE" height="70" rx="15" width="70" x="765" y="-535" />
<rect fill="#84A1AE" height="70" rx="15" width="70" x="765" y="-1135" />
<rect fill="#84A1AE" height="70" rx="15" width="70" x="765" y="-1335" />
<rect fill="#84A1AE" height="70" rx="15" width="70" x="765" y="-1435" />
<rect fill="#84A1AE" height="70" rx="15" width="70" x="865" y="-535" />
<rect fill="#84A1AE" height="70" rx="15" width="70" x="865" y="-635" />
<rect fill="#84A1AE" height="70" rx="15" width="70" x="865" y="-1435" />
<rect fill="#84A1AE" height="70" rx="15" width="70" x="965" y="-535" />
<rect fill="#84A1AE" height="70" rx="15" width="70" x="965" y="-635" />
<rect fill="#84A1AE" height="70" rx="15" width="70" x="965" y="-1035" />
<rect fill="#84A1AE" height="70" rx="15" width="70" x="965" y="-1135" />
<rect fill="#84A1AE" height="70" rx="15" width="70" x="965" y="-1435" />
<rect fill="#84A1AE" height="70" rx="15" width="70" x="1065" y="-535" />
<rect fill="#84A1AE" height="70" rx="15" width="70" x="1065" y="-635" />
<rect fill="#84A1AE" height="70" rx="15" width="70" x="1065" y="-1035" />
<rect fill="#84A1AE" height="70" rx="15" width="70" x="1065" y="-1435" />
<rect fill="#84A1AE" height="70" rx="15" width="70" x="1165" y="-535" />
<rect fill="#84A1AE" height="70" rx="15" width="70" x="1165" y="-635" />
<rect fill="#84A1AE" height="70" rx="15" width="70" x="1165" y="-1035" />
<rect fill="#84A1AE" height="70" rx="15" width="70" x="1165" y="-1435" />
<rect fill="#84A1AE" height="70" rx="15" width="70" x="1265" y="-535" />
<rect fill="#84A1AE" height="70" rx="15" width="70" x="1265" y="-935" />
<rect fill="#84A1AE" height="70" rx="15" width="70" x="1265" y="-1135" />
<rect fill="#84A1AE" height="70" rx="15" width="70" x="1265" y="-1435" />
<rect fill="#84A1AE" height="70" rx="15" width="70" x="1365" y="-535" />
<rect fill="#84A1AE" height="70" rx="15" width="70" x="1365" y="-635" />
<rect fill="#84A1AE" height="70" rx="15" width="70" x="1365" y="-735" />
<rect fill="#84A1AE" height="70" rx="15" width="70" x="1365" y="-835" />
<rect fill="#84A1AE" height="70" rx="15" width="70" x="1365" y="-935" />
<rect fill="#84A1AE" height="70" rx="15" width="70" x="1365" y="-1035" />
<rect fill="#84A1AE" height="70" rx="15" width="70" x="1365" y="-1135" />
<rect fill="#84A1AE" height="70" rx="15" width="70" x="1365" y="-1235" />
<rect fill="#84A1AE" height="70" rx="15" width="70" x="1365" y="-1335" />
<rect fill="#84A1AE" height="70" rx="15" width="70" x="1365" y="-1435" />
<circle cx="1300" cy="-1200" fill="#c1433c" r="35"> <animate attributeName="cy" dur="27.160000000000004s" keyTimes="0.0;0.0102040816;0.0204081633;0.0306122449;0.0714285714;0.0816326531;0.0918367347;0.1020408163;0.112244898;0.1224489796;0.1326530612;0.1632653061;0.1734693878;0.193877551;0.2040816327;0.3265306122;0.3367346939;0.3571428571;0.3673469388;0.387755102;0.3979591837;0.4081632653;0.4183673469;0.4285714286;0.4387755102;0.4897959184;0.5;0.5102040816;0.5204081633;0.5306122449;0.612244898;0.6224489796;0.6530612245;0.6632653061;0.6734693878;0.6836734694;0.693877551;0.7040816327;0.7551020408;0.7653061224;0.7857142857;0.7959183673;0.806122449;0.8163265306;0.8673469388;0.8775510204;0.9081632653;0.9183673469;0.9591836735;0.9693877551;0.9795918367;0.9897959184;1.0" repeatCount="indefinite" values="-1200;-1200;-1200;-1100;-1100;-1200;-1200;-1300;-1200;-1200;-1100;-1100;-1200;-1200;-1100;-1100;-1200;-1200;-1100;-1100;-1200;-1300;-1300;-1200;-1100;-1100;-1200;-1100;-1200;-1100;-1100;-1200;-1200;-1300;-1300;-1200;-1300;-1200;-1200;-1300;-1300;-1200;-1200;-1300;-1300;-1200;-1200;-1100;-1100;-1200;-1200;-1100;-1100"/>
<animate attributeName="cx" dur="27.160000000000004s" keyTimes="0.0;0.0102040816;0.0204081633;0.0816326531;0.0918367347;0.112244898;0.1224489796;0.1326530612;0.1428571429;0.1530612245;0.1734693878;0.1836734694;0.193877551;0.2040816327;0.2142857143;0.2346938776;0.2448979592;0.2755102041;0.2857142857;0.2959183673;0.306122449;0.3367346939;0.3469387755;0.3571428571;0.4489795918;0.4591836735;0.4693877551;0.4795918367;0.5714285714;0.5816326531;0.6020408163;0.612244898;0.6224489796;0.6326530612;0.6428571429;0.6530612245;0.6632653061;0.6734693878;0.7040816327;0.7142857143;0.7244897959;0.7346938776;0.7448979592;0.7551020408;0.7755102041;0.7857142857;0.7959183673;0.806122449;0.8163265306;0.8265306122;0.8367346939;0.8469387755;0.8571428571;0.8673469388;0.8775510204;0.887755102;0.8979591837;0.9081632653;0.9285714286;0.9387755102;0.9489795918;0.9693877551;0.9795918367;1.0" repeatCount="indefinite" values="1300;1300;1200;1200;1100;1100;1200;1200;1100;1200;1200;1100;1200;1200;1100;1100;1200;1200;1100;1200;1100;1100;1000;1100;1100;1200;1100;1200;1200;1100;1100;1200;1200;1300;1200;1100;1100;1200;1200;1100;1200;1100;1000;1100;1100;1000;1000;1100;1100;1200;1300;1300;1200;1300;1300;1200;1300;1200;1200;1100;1200;1200;1100;1100"/>
<animate attributeName="visibility" dur="27.160000000000004s" keyTimes="0.0;0.0102040816;1.0" repeatCount="indefinite" values="visible;visible;visible"/> </circle>
<circle cx="800" cy="-700" fill="none" r="35" stroke="#c1433c" stroke-width="10"> <animate attributeName="visibility" dur="27.160000000000004s" keyTimes="0.0;0.0102040816;1.0" repeatCount="indefinite" values="visible;visible;visible"/> </circle>
</svg>