<?xml version="1.0" encoding="UTF-8"?>
        <svg xmlns="http://www.w3.org/2000/svg" xmlns:xlink="http://www.w3.org/1999/xlink"
             width="190" height="190" viewBox="0 -1900 1900 1900">

<defs>

</defs>

<rect fill="#84A1AE" height="70" rx="15" width="70" x="465" y="-535" />
<rect fill="#84A1AE" height="70" rx="15" width="70" x="465" y="-635" />
<rect fill="#84A1AE" height="70" rx="15" width="70" x="465" y="-735" />
<rect fill="#84A1AE" height="70" rx="15" width="70" x="465" y="-835" />
<rect fill="#84A1AE" height="70" rx="15" width="70" x="465" y="-935" />
<rect fill="#84A1AE" height="70" rx="15" width="70" x="465" y="-1035" />
<rect fill="#84A1AE" height="70" rx="15" width="70" x="465" y="-1135" />
<rect fill="#84A1AE" height="70" rx="15" width="70" x="465" y="-1235" />
<rect fill="#84A1AE" height="70" rx="15" width="70" x="465" y="-1335" />
<rect fill="#84A1AE" height="70" rx="15" width="70" x="465" y="-1435" />
<rect fill="#84A1AE" height="70" rx="15" width="70" x="565" y="-535" />
<rect fill="#84A1AE" height="70" rx="15" width="70" x="565" y="-735" />
<rect fill="#84A1AE" height="70" rx="15" width="70" x="565" y="-1435" />
<rect fill="#84A1AE" height="70" rx="15" width="70" x="665" y="-535" />
<rect fill="#84A1AE" height="70" rx="15" width="70" x="665" y="-635" />
<rect fill="#84A1AE" height="70" rx="15" width="70" x="665" y="-835" />
<rect fill="#84A1AE" height="70" rx="15" width="70" x="665" y="-935" />
<rect fill="#84A1AE" height="70" rx="15" width="70" x="665" y="-1435" />
<rect fill="#84A1AE" height="70" rx="15" width="70" x="765" y="-535" />
<rect fill="#84A1AE" height="70" rx="15" width="70" x="765" y="-835" />
<rect fill="#84A1AE" height="70" rx="15" width="70" x="765" y="-1335" />
<rect fill="#84A1AE" height="70" rx="15" width="70" x="765" y="-1435" />
<rect fill="#84A1AE" height="70" rx="15" width="70" x="865" y="-535" />
<rect fill="#84A1AE" height="70" rx="15" width="70" x="865" y="-635" />
<rect fill="#84A1AE" height="70" rx="15" width="70" x="865" y="-935" />
<rect fill="#84A1AE" height="70" rx="15" width="70" x="865" y="-1035" />
<rect fill="#84A1AE" height="70" rx="15" width="70" x="865" y="-1435" />
<rect fill="#84A1AE" height="70" rx="15" width="70" x="965" y="-535" />
<rect fill="#84A1AE" height="70" rx="15" width="70" x="965" y="-1235" />
<rect fill="#84A1AE" height="70" rx="15" width="70" x="965" y="-1435" />
<rect fill="#84A1AE" height="70" rx="15" width="70" x="1065" y="-535" />
<rect fill="#84A1AE" height="70" rx="15" width="70" x="1065" y="-935" />
<rect fill="#84A1AE" height="70" rx="15" width="70" x="1065" y="-1435" />
<rect fill="#84A1AE" height="70" rx="15" width="70" x="1165" y="-535" />
<rect fill="#84A1AE" height="70" rx="15" width="70" x="1165" y="-735" />
<rect fill="#84A1AE" height="70" rx="15" width="70" x="1165" y="-835" />
<rect fill="#84A1AE" height="70" rx="15" width="70" x="1165" y="-1435" />
<rect fill="#84A1AE" height="70" rx="15" width="70" x="1265" y="-535" />
<rect fill="#84A1AE" height="70" rx="15" width="70" x="1265" y="-1235" />
<rect fill="#84A1AE" height="70" rx="15" width="70" x="1265" y="-1435" />
<rect fill="#84A1AE" height="70" rx="15" width="70" x="1365" y="-535" />
<rect fill="#84A1AE" height="70" rx="15" width="70" x="1365" y="-635" />
<rect fill="#84A1AE" height="70" rx="15" width="70" x="1365" y="-735" />
<rect fill="#84A1AE" height="70" rx="15" width="70" x="1365" y="-835" />
<rect fill="#84A1AE" height="70" rx="15" width="70" x="1365" y="-935" />
<rect fill="#84A1AE" height="70" rx="15" width="70" x="1365" y="-1035" />
<rect fill="#84A1AE" height="70" rx="15" width="70" x="1365" y="-1135" />
<rect fill="#84A1AE" height="70" rx="15" width="70" x="1365" y="-1235" />
<rect fill="#84A1AE" height="70" rx="15" width="70" x="1365" y="-1335" />
<rect fill="#84A1AE" height="70" rx="15" width="70" x="1365" y="-1435" />
<circle cx="1100" cy="-1300" fill="#c1433c" r="35"> <animate attributeName="cy" dur="22.400000000000002s" keyTimes="0.0;0.012345679;0.0864197531;0.0987654321;0.1111111111;0.2222222222;0.2345679012;0.2716049383;0.2839506173;0.2962962963;0.3209876543;0.3333333333;0.3456790123;0.3580246914;0.3703703704;0.3827160494;0.3950617284;0.4074074074;0.4197530864;0.4444444444;0.4567901235;0.4691358025;0.4814814815;0.4938271605;0.5061728395;0.5185185185;0.5308641975;0.5432098765;0.5925925926;0.6049382716;0.6172839506;0.6296296296;0.6419753086;0.6543209877;0.6666666667;0.6790123457;0.6913580247;0.7037037037;0.962962963;0.975308642;0.987654321;1.0" repeatCount="indefinite" values="-1300;-1300;-1300;-1200;-1300;-1300;-1200;-1200;-1100;-1200;-1200;-1300;-1200;-1300;-1200;-1300;-1300;-1200;-1300;-1300;-1200;-1300;-1200;-1300;-1300;-1200;-1200;-1300;-1300;-1200;-1300;-1200;-1300;-1200;-1100;-1000;-900;-800;-800;-900;-800;-800"/>
<animate attributeName="cx" dur="22.400000000000002s" keyTimes="0.0;0.012345679;0.024691358;0.037037037;0.049382716;0.0617283951;0.0740740741;0.0864197531;0.1111111111;0.1234567901;0.1358024691;0.1481481481;0.1604938272;0.1728395062;0.1851851852;0.1975308642;0.2098765432;0.2345679012;0.2469135802;0.2592592593;0.2716049383;0.2962962963;0.3086419753;0.3209876543;0.4197530864;0.4320987654;0.4444444444;0.4938271605;0.5061728395;0.5185185185;0.5308641975;0.5679012346;0.5802469136;0.5925925926;1.0" repeatCount="indefinite" values="1100;1100;1000;1100;1000;900;1000;1100;1100;1000;900;1000;1000;900;900;1000;900;900;800;700;800;800;700;600;600;700;600;600;700;700;600;600;700;600;600"/>
<animate attributeName="visibility" dur="22.400000000000002s" keyTimes="0.0;0.012345679;1.0" repeatCount="indefinite" values="visible;visible;visible"/> </circle>
<circle cx="1100" cy="-1000" fill="none" r="35" stroke="#c1433c" stroke-width="10"> <animate attributeName="visibility" dur="22.400000000000002s" keyTimes="0.0;0.012345679;1.0" repeatCount="indefinite" values="visible;visible;visible"/> </circle>
</svg>