<?xml version="1.0" encoding="UTF-8"?>
        <svg xmlns="http://www.w3.org/2000/svg" xmlns:xlink="http://www.w3.org/1999/xlink"
             width="190" height="190" viewBox="0 -1900 1900 1900">

<defs>

</defs>

<rect fill="#84A1AE" height="70" rx="15" width="70" x="465" y="-535" />
<rect fill="#84A1AE" height="70" rx="15" width="70" x="465" y="-635" />
<rect fill="#84A1AE" height="70" rx="15" width="70" x="465" y="-735" />
<rect fill="#84A1AE" height="70" rx="15" width="70" x="465" y="-835" />
<rect fill="#84A1AE" height="70" rx="15" width="70" x="465" y="-935" />
<rect fill="#84A1AE" height="70" rx="15" width="70" x="465" y="-1035" />
<rect fill="#84A1AE" height="70" rx="15" width="70" x="465" y="-1135" />
<rect fill="#84A1AE" height="70" rx="15" width="70" x="465" y="-1235" />
<rect fill="#84A1AE" height="70" rx="15" width="70" x="465" y="-1335" />
<rect fill="#84A1AE" height="70" rx="15" width="70" x="465" y="-1435" />
<rect fill="#84A1AE" height="70" rx="15" width="70" x="565" y="-535" />
<rect fill="#84A1AE" height="70" rx="15" width="70" x="565" y="-635" />
<rect fill="#84A1AE" height="70" rx="15" width="70" x="565" y="-835" />
<rect fill="#84A1AE" height="70" rx="15" width="70" x="565" y="-935" />
<rect fill="#84A1AE" height="70" rx="15" width="70" x="565" y="-1235" />
<rect fill="#84A1AE" height="70" rx="15" width="70" x="565" y="-1335" />
<rect fill="#84A1AE" height="70" rx="15" width="70" x="565" y="-1435" />
<rect fill="#84A1AE" height="70" rx="15" width="70" x="665" y="-535" />
<rect fill="#84A1AE" height="70" rx="15" width="70" x="665" y="-1435" />
<rect fill="#84A1AE" height="70" rx="15" width="70" x="765" y="-535" />
<rect fill="#84A1AE" height="70" rx="15" width="70" x="765" y="-935" />
<rect fill="#84A1AE" height="70" rx="15" width="70" x="765" y="-1435" />
<rect fill="#84A1AE" height="70" rx="15" width="70" x="865" y="-535" />
<rect fill="#84A1AE" height="70" rx="15" width="70" x="865" y="-1035" />
<rect fill="#84A1AE" height="70" rx="15" width="70" x="865" y="-1135" />
<rect fill="#84A1AE" height="70" rx="15" width="70" x="865" y="-1235" />
<rect fill="#84A1AE" height="70" rx="15" width="70" x="865" y="-1435" />
<rect fill="#84A1AE" height="70" rx="15" width="70" x="965" y="-535" />
<rect fill="#84A1AE" height="70" rx="15" width="70" x="965" y="-635" />
<rect fill="#84A1AE" height="70" rx="15" width="70" x="965" y="-835" />
<rect fill="#84A1AE" height="70" rx="15" width="70" x="965" y="-1135" />
<rect fill="#84A1AE" height="70" rx="15" width="70" x="965" y="-1435" />
<rect fill="#84A1AE" height="70" rx="15" width="70" x="1065" y="-535" />
<rect fill="#84A1AE" height="70" rx="15" width="70" x="1065" y="-635" />
<rect fill="#84A1AE" height="70" rx="15" width="70" x="1065" y="-1435" />
<rect fill="#84A1AE" height="70" rx="15" width="70" x="1165" y="-535" />
<rect fill="#84A1AE" height="70" rx="15" width="70" x="1165" y="-835" />
<rect fill="#84A1AE" height="70" rx="15" width="70" x="1165" y="-1435" />
<rect fill="#84A1AE" height="70" rx="15" width="70" x="1265" y="-535" />
<rect fill="#84A1AE" height="70" rx="15" width="70" x="1265" y="-635" />
<rect fill="#84A1AE" height="70" rx="15" width="70" x="1265" y="-735" />
<rect fill="#84A1AE" height="70" rx="15" width="70" x="1265" y="-935" />
<rect fill="#84A1AE" height="70" rx="15" width="70" x="1265" y="-1035" />
<rect fill="#84A1AE" height="70" rx="15" width="70" x="1265" y="-1435" />
<rect fill="#84A1AE" height="70" rx="15" width="70" x="1365" y="-535" />
<rect fill="#84A1AE" height="70" rx="15" width="70" x="1365" y="-635" />
<rect fill="#84A1AE" height="70" rx="15" width="70" x="1365" y="-735" />
<rect fill="#84A1AE" height="70" rx="15" width="70" x="1365" y="-835" />
<rect fill="#84A1AE" height="70" rx="15" width="70" x="1365" y="-935" />
<rect fill="#84A1AE" height="70" rx="15" width="70" x="1365" y="-1035" />
<rect fill="#84A1AE" height="70" rx="15" width="70" x="1365" y="-1135" />
<rect fill="#84A1AE" height="70" rx="15" width="70" x="1365" y="-1235" />
<rect fill="#84A1AE" height="70" rx="15" width="70" x="1365" y="-1335" />
<rect fill="#84A1AE" height="70" rx="15" width="70" x="1365" y="-1435" />
<circle cx="1300" cy="-1200" fill="#c1433c" r="35"> <animate attributeName="cy" dur="22.12s" keyTimes="0.0;0.0125;0.05;0.0625;0.075;0.1;0.1125;0.225;0.2375;0.25;0.2625;0.275;0.3125;0.325;0.3375;0.35;0.3625;0.3875;0.4;0.4125;0.5125;0.525;0.5875;0.6;0.925;0.9375;0.9625;0.975;1.0" repeatCount="indefinite" values="-1200;-1200;-1200;-1100;-1200;-1200;-1100;-1100;-1000;-1000;-900;-1000;-1000;-900;-900;-1000;-900;-900;-800;-700;-700;-600;-600;-700;-700;-600;-600;-700;-700"/>
<animate attributeName="cx" dur="22.12s" keyTimes="0.0;0.0125;0.025;0.0375;0.075;0.0875;0.1;0.1125;0.125;0.1375;0.15;0.1625;0.175;0.1875;0.2;0.2125;0.225;0.2375;0.25;0.275;0.2875;0.3;0.3125;0.325;0.3375;0.375;0.3875;0.4125;0.425;0.4375;0.45;0.5;0.5125;0.5375;0.55;0.5625;0.575;0.6;0.6125;0.625;0.6375;0.65;0.6625;0.85;0.8625;0.875;0.9;0.9125;0.975;0.9875;1.0" repeatCount="indefinite" values="1300;1300;1200;1300;1300;1200;1100;1100;1200;1300;1200;1100;1100;1200;1300;1200;1100;1100;1200;1200;1100;1200;1100;1100;1000;1000;900;900;1000;1100;1000;1000;900;900;800;800;700;700;600;600;700;700;600;600;700;600;600;700;700;800;800"/>
<animate attributeName="visibility" dur="22.12s" keyTimes="0.0;0.0125;0.975;0.9875;1.0" repeatCount="indefinite" values="visible;visible;visible;hidden;hidden"/> </circle>
<circle cx="800" cy="-700" fill="none" r="35" stroke="#c1433c" stroke-width="10"> <animate attributeName="visibility" dur="22.12s" keyTimes="0.0;0.0125;0.975;0.9875;1.0" repeatCount="indefinite" values="visible;visible;visible;hidden;hidden"/> </circle>
</svg>