<?xml version="1.0" encoding="UTF-8"?>
        <svg xmlns="http://www.w3.org/2000/svg" xmlns:xlink="http://www.w3.org/1999/xlink"
             width="190" height="190" viewBox="0 -1900 1900 1900">

<defs>

</defs>

<rect fill="#84A1AE" height="70" rx="15" width="70" x="465" y="-535" />
<rect fill="#84A1AE" height="70" rx="15" width="70" x="465" y="-635" />
<rect fill="#84A1AE" height="70" rx="15" width="70" x="465" y="-735" />
<rect fill="#84A1AE" height="70" rx="15" width="70" x="465" y="-835" />
<rect fill="#84A1AE" height="70" rx="15" width="70" x="465" y="-935" />
<rect fill="#84A1AE" height="70" rx="15" width="70" x="465" y="-1035" />
<rect fill="#84A1AE" height="70" rx="15" width="70" x="465" y="-1135" />
<rect fill="#84A1AE" height="70" rx="15" width="70" x="465" y="-1235" />
<rect fill="#84A1AE" height="70" rx="15" width="70" x="465" y="-1335" />
<rect fill="#84A1AE" height="70" rx="15" width="70" x="465" y="-1435" />
<rect fill="#84A1AE" height="70" rx="15" width="70" x="565" y="-535" />
<rect fill="#84A1AE" height="70" rx="15" width="70" x="565" y="-635" />
<rect fill="#84A1AE" height="70" rx="15" width="70" x="565" y="-835" />
<rect fill="#84A1AE" height="70" rx="15" width="70" x="565" y="-1235" />
<rect fill="#84A1AE" height="70" rx="15" width="70" x="565" y="-1435" />
<rect fill="#84A1AE" height="70" rx="15" width="70" x="665" y="-535" />
<rect fill="#84A1AE" height="70" rx="15" width="70" x="665" y="-635" />
<rect fill="#84A1AE" height="70" rx="15" width="70" x="665" y="-1435" />
<rect fill="#84A1AE" height="70" rx="15" width="70" x="765" y="-535" />
<rect fill="#84A1AE" height="70" rx="15" width="70" x="765" y="-1435" />
<rect fill="#84A1AE" height="70" rx="15" width="70" x="865" y="-535" />
<rect fill="#84A1AE" height="70" rx="15" width="70" x="865" y="-735" />
<rect fill="#84A1AE" height="70" rx="15" width="70" x="865" y="-1435" />
<rect fill="#84A1AE" height="70" rx="15" width="70" x="965" y="-535" />
<rect fill="#84A1AE" height="70" rx="15" width="70" x="965" y="-1135" />
<rect fill="#84A1AE" height="70" rx="15" width="70" x="965" y="-1335" />
<rect fill="#84A1AE" height="70" rx="15" width="70" x="965" y="-1435" />
<rect fill="#84A1AE" height="70" rx="15" width="70" x="1065" y="-535" />
<rect fill="#84A1AE" height="70" rx="15" width="70" x="1065" y="-635" />
<rect fill="#84A1AE" height="70" rx="15" width="70" x="1065" y="-935" />
<rect fill="#84A1AE" height="70" rx="15" width="70" x="1065" y="-1435" />
<rect fill="#84A1AE" height="70" rx="15" width="70" x="1165" y="-535" />
<rect fill="#84A1AE" height="70" rx="15" width="70" x="1165" y="-1035" />
<rect fill="#84A1AE" height="70" rx="15" width="70" x="1165" y="-1235" />
<rect fill="#84A1AE" height="70" rx="15" width="70" x="1165" y="-1435" />
<rect fill="#84A1AE" height="70" rx="15" width="70" x="1265" y="-535" />
<rect fill="#84A1AE" height="70" rx="15" width="70" x="1265" y="-1435" />
<rect fill="#84A1AE" height="70" rx="15" width="70" x="1365" y="-535" />
<rect fill="#84A1AE" height="70" rx="15" width="70" x="1365" y="-635" />
<rect fill="#84A1AE" height="70" rx="15" width="70" x="1365" y="-735" />
<rect fill="#84A1AE" height="70" rx="15" width="70" x="1365" y="-835" />
<rect fill="#84A1AE" height="70" rx="15" width="70" x="1365" y="-935" />
<rect fill="#84A1AE" height="70" rx="15" width="70" x="1365" y="-1035" />
<rect fill="#84A1AE" height="70" rx="15" width="70" x="1365" y="-1135" />
<rect fill="#84A1AE" height="70" rx="15" width="70" x="1365" y="-1235" />
<rect fill="#84A1AE" height="70" rx="15" width="70" x="1365" y="-1335" />
<rect fill="#84A1AE" height="70" rx="15" width="70" x="1365" y="-1435" />
<circle cx="1200" cy="-900" fill="#c1433c" r="35"> <animate attributeName="cy" dur="15.120000000000001s" keyTimes="0.0;0.0181818182;0.0363636364;0.0545454545;0.0727272727;0.1090909091;0.1272727273;0.1454545455;0.1636363636;0.3818181818;0.4;0.4181818182;0.4363636364;0.4545454545;0.4727272727;0.5272727273;0.5454545455;0.5636363636;0.5818181818;0.6;0.6545454545;0.6727272727;0.6909090909;0.7090909091;0.7272727273;0.7454545455;0.7818181818;0.8;0.8181818182;0.8545454545;0.8727272727;0.9090909091;0.9272727273;1.0" repeatCount="indefinite" values="-900;-900;-800;-800;-900;-900;-1000;-1000;-1100;-1100;-1200;-1100;-1000;-1000;-1100;-1100;-1000;-1100;-1200;-1100;-1100;-1200;-1200;-1100;-1200;-1100;-1100;-1000;-1100;-1100;-1200;-1200;-1100;-1100"/>
<animate attributeName="cx" dur="15.120000000000001s" keyTimes="0.0;0.0181818182;0.0363636364;0.0545454545;0.1636363636;0.1818181818;0.2;0.2181818182;0.2363636364;0.2545454545;0.2909090909;0.3090909091;0.3272727273;0.3454545455;0.3636363636;0.3818181818;0.4727272727;0.4909090909;0.5090909091;0.6;0.6181818182;0.6363636364;0.7454545455;0.7636363636;0.7818181818;0.8181818182;0.8363636364;0.8545454545;0.8727272727;0.8909090909;0.9090909091;0.9272727273;0.9454545455;0.9636363636;0.9818181818;1.0" repeatCount="indefinite" values="1200;1200;1200;1300;1300;1200;1100;1100;1200;1100;1100;1200;1100;1100;1200;1100;1100;1200;1100;1100;1200;1100;1100;1200;1100;1100;1200;1100;1100;1000;900;900;800;700;600;600"/>
<animate attributeName="visibility" dur="15.120000000000001s" keyTimes="0.0;0.0181818182;0.9636363636;0.9818181818;1.0" repeatCount="indefinite" values="visible;visible;visible;hidden;hidden"/> </circle>
<circle cx="600" cy="-1100" fill="none" r="35" stroke="#c1433c" stroke-width="10"> <animate attributeName="visibility" dur="15.120000000000001s" keyTimes="0.0;0.0181818182;0.9636363636;0.9818181818;1.0" repeatCount="indefinite" values="visible;visible;visible;hidden;hidden"/> </circle>
</svg>