<?xml version="1.0" encoding="UTF-8"?>
        <svg xmlns="http://www.w3.org/2000/svg" xmlns:xlink="http://www.w3.org/1999/xlink"
             width="150" height="150" viewBox="0 -1500 1500 1500">

<defs>

</defs>

<rect fill="#84A1AE" height="70" rx="15" width="70" x="265" y="-335" />
<rect fill="#84A1AE" height="70" rx="15" width="70" x="265" y="-435" />
<rect fill="#84A1AE" height="70" rx="15" width="70" x="265" y="-535" />
<rect fill="#84A1AE" height="70" rx="15" width="70" x="265" y="-635" />
<rect fill="#84A1AE" height="70" rx="15" width="70" x="265" y="-735" />
<rect fill="#84A1AE" height="70" rx="15" width="70" x="265" y="-835" />
<rect fill="#84A1AE" height="70" rx="15" width="70" x="265" y="-935" />
<rect fill="#84A1AE" height="70" rx="15" width="70" x="265" y="-1035" />
<rect fill="#84A1AE" height="70" rx="15" width="70" x="265" y="-1135" />
<rect fill="#84A1AE" height="70" rx="15" width="70" x="265" y="-1235" />
<rect fill="#84A1AE" height="70" rx="15" width="70" x="365" y="-335" />
<rect fill="#84A1AE" height="70" rx="15" width="70" x="365" y="-635" />
<rect fill="#84A1AE" height="70" rx="15" width="70" x="365" y="-735" />
<rect fill="#84A1AE" height="70" rx="15" width="70" x="365" y="-1035" />
<rect fill="#84A1AE" height="70" rx="15" width="70" x="365" y="-1235" />
<rect fill="#84A1AE" height="70" rx="15" width="70" x="465" y="-335" />
<rect fill="#84A1AE" height="70" rx="15" width="70" x="465" y="-635" />
<rect fill="#84A1AE" height="70" rx="15" width="70" x="465" y="-735" />
<rect fill="#84A1AE" height="70" rx="15" width="70" x="465" y="-1135" />
<rect fill="#84A1AE" height="70" rx="15" width="70" x="465" y="-1235" />
<rect fill="#84A1AE" height="70" rx="15" width="70" x="565" y="-335" />
<rect fill="#84A1AE" height="70" rx="15" width="70" x="565" y="-435" />
<rect fill="#84A1AE" height="70" rx="15" width="70" x="565" y="-635" />
<rect fill="#84A1AE" height="70" rx="15" width="70" x="565" y="-1235" />
<rect fill="#84A1AE" height="70" rx="15" width="70" x="665" y="-335" />
<rect fill="#84A1AE" height="70" rx="15" width="70" x="665" y="-935" />
<rect fill="#84A1AE" height="70" rx="15" width="70" x="665" y="-1235" />
<rect fill="#84A1AE" height="70" rx="15" width="70" x="765" y="-335" />
<rect fill="#84A1AE" height="70" rx="15" width="70" x="765" y="-535" />
<rect fill="#84A1AE" height="70" rx="15" width="70" x="765" y="-635" />
<rect fill="#84A1AE" height="70" rx="15" width="70" x="765" y="-735" />
<rect fill="#84A1AE" height="70" rx="15" width="70" x="765" y="-1235" />
<rect fill="#84A1AE" height="70" rx="15" width="70" x="865" y="-335" />
<rect fill="#84A1AE" height="70" rx="15" width="70" x="865" y="-635" />
<rect fill="#84A1AE" height="70" rx="15" width="70" x="865" y="-935" />
<rect fill="#84A1AE" height="70" rx="15" width="70" x="865" y="-1235" />
<rect fill="#84A1AE" height="70" rx="15" width="70" x="965" y="-335" />
<rect fill="#84A1AE" height="70" rx="15" width="70" x="965" y="-435" />
<rect fill="#84A1AE" height="70" rx="15" width="70" x="965" y="-535" />
<rect fill="#84A1AE" height="70" rx="15" width="70" x="965" y="-835" />
<rect fill="#84A1AE" height="70" rx="15" width="70" x="965" y="-935" />
<rect fill="#84A1AE" height="70" rx="15" width="70" x="965" y="-1235" />
<rect fill="#84A1AE" height="70" rx="15" width="70" x="1065" y="-335" />
<rect fill="#84A1AE" height="70" rx="15" width="70" x="1065" y="-435" />
<rect fill="#84A1AE" height="70" rx="15" width="70" x="1065" y="-735" />
<rect fill="#84A1AE" height="70" rx="15" width="70" x="1065" y="-935" />
<rect fill="#84A1AE" height="70" rx="15" width="70" x="1065" y="-1035" />
<rect fill="#84A1AE" height="70" rx="15" width="70" x="1065" y="-1235" />
<rect fill="#84A1AE" height="70" rx="15" width="70" x="1165" y="-335" />
<rect fill="#84A1AE" height="70" rx="15" width="70" x="1165" y="-435" />
<rect fill="#84A1AE" height="70" rx="15" width="70" x="1165" y="-535" />
<rect fill="#84A1AE" height="70" rx="15" width="70" x="1165" y="-635" />
<rect fill="#84A1AE" height="70" rx="15" width="70" x="1165" y="-735" />
<rect fill="#84A1AE" height="70" rx="15" width="70" x="1165" y="-835" />
<rect fill="#84A1AE" height="70" rx="15" width="70" x="1165" y="-935" />
<rect fill="#84A1AE" height="70" rx="15" width="70" x="1165" y="-1035" />
<rect fill="#84A1AE" height="70" rx="15" width="70" x="1165" y="-1135" />
<rect fill="#84A1AE" height="70" rx="15" width="70" x="1165" y="-1235" />
<circle cx="800" cy="-400" fill="#c1433c" r="35"> <animate attributeName="cy" dur="35.28s" keyTimes="0.0;0.0078740157;0.0157480315;0.0236220472;0.0551181102;0.062992126;0.0708661417;0.0787401575;0.0866141732;0.094488189;0.1023622047;0.1102362205;0.125984252;0.1338582677;0.1417322835;0.1496062992;0.157480315;0.1653543307;0.1732283465;0.1811023622;0.188976378;0.1968503937;0.2204724409;0.2283464567;0.2362204724;0.2440944882;0.2519685039;0.2598425197;0.2677165354;0.2755905512;0.2834645669;0.3070866142;0.3149606299;0.3228346457;0.3464566929;0.3543307087;0.3622047244;0.3700787402;0.3779527559;0.4330708661;0.4409448819;0.4488188976;0.4566929134;0.4645669291;0.4724409449;0.4803149606;0.4881889764;0.4960629921;0.5039370079;0.5118110236;0.5275590551;0.5354330709;0.5433070866;0.5669291339;0.5748031496;0.5826771654;0.5905511811;0.5984251969;0.6062992126;0.6141732283;0.6299212598;0.6377952756;0.6456692913;0.6535433071;0.6614173228;0.6692913386;0.6771653543;0.6850393701;0.6929133858;0.7007874016;0.7086614173;0.7165354331;0.7244094488;0.7322834646;0.7480314961;0.7559055118;0.7637795276;0.7716535433;0.8031496063;0.811023622;0.8188976378;0.8267716535;0.8346456693;0.842519685;0.8503937008;0.8582677165;0.8818897638;0.8897637795;0.8976377953;0.905511811;0.9133858268;0.9212598425;0.9291338583;0.9527559055;0.9606299213;0.968503937;0.9763779528;0.9842519685;0.9921259843;1.0" repeatCount="indefinite" values="-400;-400;-400;-500;-500;-400;-500;-500;-400;-500;-400;-500;-500;-400;-500;-500;-400;-500;-400;-500;-400;-500;-500;-400;-500;-500;-400;-500;-500;-400;-500;-500;-400;-500;-500;-400;-500;-400;-500;-500;-400;-500;-500;-400;-500;-500;-400;-500;-400;-500;-500;-400;-500;-500;-400;-500;-400;-500;-400;-500;-500;-400;-500;-500;-400;-500;-500;-400;-500;-400;-500;-400;-500;-400;-400;-500;-400;-500;-500;-400;-500;-500;-400;-500;-400;-500;-500;-400;-500;-400;-500;-400;-500;-500;-400;-500;-500;-400;-500;-500"/>
<animate attributeName="cx" dur="35.28s" keyTimes="0.0;0.0078740157;0.0157480315;0.7322834646;0.7401574803;0.7480314961;1.0" repeatCount="indefinite" values="800;800;900;900;800;900;900"/>
<animate attributeName="visibility" dur="35.28s" keyTimes="0.0;0.0078740157;1.0" repeatCount="indefinite" values="visible;visible;visible"/> </circle>
<circle cx="700" cy="-1000" fill="none" r="35" stroke="#c1433c" stroke-width="10"> <animate attributeName="visibility" dur="35.28s" keyTimes="0.0;0.0078740157;1.0" repeatCount="indefinite" values="visible;visible;visible"/> </circle>
</svg>