<?xml version="1.0" encoding="UTF-8"?>
        <svg xmlns="http://www.w3.org/2000/svg" xmlns:xlink="http://www.w3.org/1999/xlink"
             width="190" height="190" viewBox="0 -1900 1900 1900">

<defs>

</defs>

<rect fill="#84A1AE" height="70" rx="15" width="70" x="465" y="-535" />
<rect fill="#84A1AE" height="70" rx="15" width="70" x="465" y="-635" />
<rect fill="#84A1AE" height="70" rx="15" width="70" x="465" y="-735" />
<rect fill="#84A1AE" height="70" rx="15" width="70" x="465" y="-835" />
<rect fill="#84A1AE" height="70" rx="15" width="70" x="465" y="-935" />
<rect fill="#84A1AE" height="70" rx="15" width="70" x="465" y="-1035" />
<rect fill="#84A1AE" height="70" rx="15" width="70" x="465" y="-1135" />
<rect fill="#84A1AE" height="70" rx="15" width="70" x="465" y="-1235" />
<rect fill="#84A1AE" height="70" rx="15" width="70" x="465" y="-1335" />
<rect fill="#84A1AE" height="70" rx="15" width="70" x="465" y="-1435" />
<rect fill="#84A1AE" height="70" rx="15" width="70" x="565" y="-535" />
<rect fill="#84A1AE" height="70" rx="15" width="70" x="565" y="-735" />
<rect fill="#84A1AE" height="70" rx="15" width="70" x="565" y="-1135" />
<rect fill="#84A1AE" height="70" rx="15" width="70" x="565" y="-1435" />
<rect fill="#84A1AE" height="70" rx="15" width="70" x="665" y="-535" />
<rect fill="#84A1AE" height="70" rx="15" width="70" x="665" y="-1035" />
<rect fill="#84A1AE" height="70" rx="15" width="70" x="665" y="-1135" />
<rect fill="#84A1AE" height="70" rx="15" width="70" x="665" y="-1335" />
<rect fill="#84A1AE" height="70" rx="15" width="70" x="665" y="-1435" />
<rect fill="#84A1AE" height="70" rx="15" width="70" x="765" y="-535" />
<rect fill="#84A1AE" height="70" rx="15" width="70" x="765" y="-1435" />
<rect fill="#84A1AE" height="70" rx="15" width="70" x="865" y="-535" />
<rect fill="#84A1AE" height="70" rx="15" width="70" x="865" y="-635" />
<rect fill="#84A1AE" height="70" rx="15" width="70" x="865" y="-935" />
<rect fill="#84A1AE" height="70" rx="15" width="70" x="865" y="-1235" />
<rect fill="#84A1AE" height="70" rx="15" width="70" x="865" y="-1435" />
<rect fill="#84A1AE" height="70" rx="15" width="70" x="965" y="-535" />
<rect fill="#84A1AE" height="70" rx="15" width="70" x="965" y="-635" />
<rect fill="#84A1AE" height="70" rx="15" width="70" x="965" y="-1335" />
<rect fill="#84A1AE" height="70" rx="15" width="70" x="965" y="-1435" />
<rect fill="#84A1AE" height="70" rx="15" width="70" x="1065" y="-535" />
<rect fill="#84A1AE" height="70" rx="15" width="70" x="1065" y="-835" />
<rect fill="#84A1AE" height="70" rx="15" width="70" x="1065" y="-1035" />
<rect fill="#84A1AE" height="70" rx="15" width="70" x="1065" y="-1135" />
<rect fill="#84A1AE" height="70" rx="15" width="70" x="1065" y="-1435" />
<rect fill="#84A1AE" height="70" rx="15" width="70" x="1165" y="-535" />
<rect fill="#84A1AE" height="70" rx="15" width="70" x="1165" y="-635" />
<rect fill="#84A1AE" height="70" rx="15" width="70" x="1165" y="-835" />
<rect fill="#84A1AE" height="70" rx="15" width="70" x="1165" y="-1335" />
<rect fill="#84A1AE" height="70" rx="15" width="70" x="1165" y="-1435" />
<rect fill="#84A1AE" height="70" rx="15" width="70" x="1265" y="-535" />
<rect fill="#84A1AE" height="70" rx="15" width="70" x="1265" y="-635" />
<rect fill="#84A1AE" height="70" rx="15" width="70" x="1265" y="-735" />
<rect fill="#84A1AE" height="70" rx="15" width="70" x="1265" y="-1435" />
<rect fill="#84A1AE" height="70" rx="15" width="70" x="1365" y="-535" />
<rect fill="#84A1AE" height="70" rx="15" width="70" x="1365" y="-635" />
<rect fill="#84A1AE" height="70" rx="15" width="70" x="1365" y="-735" />
<rect fill="#84A1AE" height="70" rx="15" width="70" x="1365" y="-835" />
<rect fill="#84A1AE" height="70" rx="15" width="70" x="1365" y="-935" />
<rect fill="#84A1AE" height="70" rx="15" width="70" x="1365" y="-1035" />
<rect fill="#84A1AE" height="70" rx="15" width="70" x="1365" y="-1135" />
<rect fill="#84A1AE" height="70" rx="15" width="70" x="1365" y="-1235" />
<rect fill="#84A1AE" height="70" rx="15" width="70" x="1365" y="-1335" />
<rect fill="#84A1AE" height="70" rx="15" width="70" x="1365" y="-1435" />
<circle cx="1000" cy="-1200" fill="#c1433c" r="35"> <animate attributeName="cy" dur="21.000000000000004s" keyTimes="0.0;0.0131578947;0.0263157895;0.0394736842;0.0526315789;0.0657894737;0.0789473684;0.0921052632;0.1052631579;0.1184210526;0.1315789474;0.1447368421;0.1710526316;0.1842105263;0.1973684211;0.2105263158;0.2236842105;0.2368421053;0.25;0.2631578947;0.2763157895;0.2894736842;0.3026315789;0.3157894737;0.3289473684;0.3421052632;0.3552631579;0.3684210526;0.3815789474;0.3947368421;0.4078947368;0.4210526316;0.4342105263;0.4473684211;0.4605263158;0.4736842105;0.4868421053;0.5;0.5131578947;0.5263157895;0.5394736842;0.5526315789;0.5657894737;0.5789473684;0.5921052632;0.6052631579;0.6184210526;0.6315789474;0.6447368421;0.6578947368;0.6710526316;0.6842105263;0.6973684211;0.7105263158;0.7236842105;0.7368421053;0.8815789474;0.8947368421;0.9078947368;0.9210526316;0.9342105263;0.9473684211;0.9605263158;1.0" repeatCount="indefinite" values="-1200;-1200;-1100;-1000;-900;-800;-900;-800;-900;-800;-900;-800;-800;-900;-800;-900;-800;-900;-800;-900;-800;-900;-800;-900;-800;-900;-800;-900;-800;-900;-800;-900;-800;-900;-800;-900;-800;-900;-800;-900;-800;-900;-800;-900;-800;-900;-800;-900;-800;-900;-800;-900;-800;-900;-800;-900;-900;-800;-900;-800;-900;-800;-700;-700"/>
<animate attributeName="cx" dur="21.000000000000004s" keyTimes="0.0;0.0131578947;0.1447368421;0.1578947368;0.1710526316;0.7368421053;0.75;0.7631578947;0.7763157895;0.7894736842;0.8157894737;0.8289473684;0.8421052632;0.8552631579;0.8684210526;0.8815789474;0.9605263158;0.9736842105;0.9868421053;1.0" repeatCount="indefinite" values="1000;1000;1000;900;1000;1000;1100;1200;1100;1200;1200;1100;1200;1100;1100;1000;1000;1100;1200;1200"/>
<animate attributeName="visibility" dur="21.000000000000004s" keyTimes="0.0;0.0131578947;0.9736842105;0.9868421053;1.0" repeatCount="indefinite" values="visible;visible;visible;hidden;hidden"/> </circle>
<circle cx="1200" cy="-700" fill="none" r="35" stroke="#c1433c" stroke-width="10"> <animate attributeName="visibility" dur="21.000000000000004s" keyTimes="0.0;0.0131578947;0.9736842105;0.9868421053;1.0" repeatCount="indefinite" values="visible;visible;visible;hidden;hidden"/> </circle>
</svg>