<?xml version="1.0" encoding="UTF-8"?>
        <svg xmlns="http://www.w3.org/2000/svg" xmlns:xlink="http://www.w3.org/1999/xlink"
             width="190" height="190" viewBox="0 -1900 1900 1900">

<defs>

</defs>

<rect fill="#84A1AE" height="70" rx="15" width="70" x="465" y="-535" />
<rect fill="#84A1AE" height="70" rx="15" width="70" x="465" y="-635" />
<rect fill="#84A1AE" height="70" rx="15" width="70" x="465" y="-735" />
<rect fill="#84A1AE" height="70" rx="15" width="70" x="465" y="-835" />
<rect fill="#84A1AE" height="70" rx="15" width="70" x="465" y="-935" />
<rect fill="#84A1AE" height="70" rx="15" width="70" x="465" y="-1035" />
<rect fill="#84A1AE" height="70" rx="15" width="70" x="465" y="-1135" />
<rect fill="#84A1AE" height="70" rx="15" width="70" x="465" y="-1235" />
<rect fill="#84A1AE" height="70" rx="15" width="70" x="465" y="-1335" />
<rect fill="#84A1AE" height="70" rx="15" width="70" x="465" y="-1435" />
<rect fill="#84A1AE" height="70" rx="15" width="70" x="565" y="-535" />
<rect fill="#84A1AE" height="70" rx="15" width="70" x="565" y="-635" />
<rect fill="#84A1AE" height="70" rx="15" width="70" x="565" y="-935" />
<rect fill="#84A1AE" height="70" rx="15" width="70" x="565" y="-1235" />
<rect fill="#84A1AE" height="70" rx="15" width="70" x="565" y="-1435" />
<rect fill="#84A1AE" height="70" rx="15" width="70" x="665" y="-535" />
<rect fill="#84A1AE" height="70" rx="15" width="70" x="665" y="-1335" />
<rect fill="#84A1AE" height="70" rx="15" width="70" x="665" y="-1435" />
<rect fill="#84A1AE" height="70" rx="15" width="70" x="765" y="-535" />
<rect fill="#84A1AE" height="70" rx="15" width="70" x="765" y="-635" />
<rect fill="#84A1AE" height="70" rx="15" width="70" x="765" y="-835" />
<rect fill="#84A1AE" height="70" rx="15" width="70" x="765" y="-1235" />
<rect fill="#84A1AE" height="70" rx="15" width="70" x="765" y="-1335" />
<rect fill="#84A1AE" height="70" rx="15" width="70" x="765" y="-1435" />
<rect fill="#84A1AE" height="70" rx="15" width="70" x="865" y="-535" />
<rect fill="#84A1AE" height="70" rx="15" width="70" x="865" y="-1335" />
<rect fill="#84A1AE" height="70" rx="15" width="70" x="865" y="-1435" />
<rect fill="#84A1AE" height="70" rx="15" width="70" x="965" y="-535" />
<rect fill="#84A1AE" height="70" rx="15" width="70" x="965" y="-1435" />
<rect fill="#84A1AE" height="70" rx="15" width="70" x="1065" y="-535" />
<rect fill="#84A1AE" height="70" rx="15" width="70" x="1065" y="-1035" />
<rect fill="#84A1AE" height="70" rx="15" width="70" x="1065" y="-1435" />
<rect fill="#84A1AE" height="70" rx="15" width="70" x="1165" y="-535" />
<rect fill="#84A1AE" height="70" rx="15" width="70" x="1165" y="-735" />
<rect fill="#84A1AE" height="70" rx="15" width="70" x="1165" y="-1335" />
<rect fill="#84A1AE" height="70" rx="15" width="70" x="1165" y="-1435" />
<rect fill="#84A1AE" height="70" rx="15" width="70" x="1265" y="-535" />
<rect fill="#84A1AE" height="70" rx="15" width="70" x="1265" y="-835" />
<rect fill="#84A1AE" height="70" rx="15" width="70" x="1265" y="-1035" />
<rect fill="#84A1AE" height="70" rx="15" width="70" x="1265" y="-1435" />
<rect fill="#84A1AE" height="70" rx="15" width="70" x="1365" y="-535" />
<rect fill="#84A1AE" height="70" rx="15" width="70" x="1365" y="-635" />
<rect fill="#84A1AE" height="70" rx="15" width="70" x="1365" y="-735" />
<rect fill="#84A1AE" height="70" rx="15" width="70" x="1365" y="-835" />
<rect fill="#84A1AE" height="70" rx="15" width="70" x="1365" y="-935" />
<rect fill="#84A1AE" height="70" rx="15" width="70" x="1365" y="-1035" />
<rect fill="#84A1AE" height="70" rx="15" width="70" x="1365" y="-1135" />
<rect fill="#84A1AE" height="70" rx="15" width="70" x="1365" y="-1235" />
<rect fill="#84A1AE" height="70" rx="15" width="70" x="1365" y="-1335" />
<rect fill="#84A1AE" height="70" rx="15" width="70" x="1365" y="-1435" />
<circle cx="900" cy="-1200" fill="#c1433c" r="35"> <animate attributeName="cy" dur="15.400000000000002s" keyTimes="0.0;0.0178571429;0.0357142857;0.0714285714;0.0892857143;0.1071428571;0.1607142857;0.1785714286;0.1964285714;0.2142857143;0.2321428571;0.25;0.2678571429;0.2857142857;0.3035714286;0.3214285714;0.3392857143;0.3571428571;0.375;0.3928571429;0.4107142857;0.4285714286;0.5;0.5178571429;0.5535714286;0.5714285714;0.5892857143;0.6071428571;0.625;0.6428571429;0.6607142857;0.6785714286;0.6964285714;0.7142857143;0.7321428571;0.75;0.7678571429;0.7857142857;0.8392857143;0.8571428571;0.9285714286;0.9464285714;1.0" repeatCount="indefinite" values="-1200;-1200;-1100;-1100;-1200;-1100;-1100;-1200;-1100;-1200;-1200;-1300;-1300;-1200;-1100;-1200;-1100;-1100;-1200;-1200;-1100;-1200;-1200;-1100;-1100;-1000;-1100;-1100;-1200;-1200;-1100;-1100;-1200;-1100;-1200;-1100;-1200;-1100;-1100;-1200;-1200;-1100;-1100"/>
<animate attributeName="cx" dur="15.400000000000002s" keyTimes="0.0;0.0178571429;0.0535714286;0.0714285714;0.1071428571;0.125;0.1428571429;0.1607142857;0.2142857143;0.2321428571;0.25;0.2678571429;0.3392857143;0.3571428571;0.375;0.3928571429;0.4285714286;0.4464285714;0.4642857143;0.5357142857;0.5535714286;0.5892857143;0.6071428571;0.625;0.6428571429;0.6607142857;0.6785714286;0.7857142857;0.8035714286;0.8214285714;0.8392857143;0.875;0.8928571429;0.9107142857;0.9285714286;0.9464285714;0.9642857143;0.9821428571;1.0" repeatCount="indefinite" values="900;900;900;1000;1000;900;1000;900;900;1000;1000;1100;1100;1000;1000;1100;1100;1200;1300;1300;1200;1200;1100;1100;1200;1200;1100;1100;1200;1100;1000;1000;1100;1200;1300;1300;1200;1300;1300"/>
<animate attributeName="visibility" dur="15.400000000000002s" keyTimes="0.0;0.0178571429;1.0" repeatCount="indefinite" values="visible;visible;visible"/> </circle>
<circle cx="1300" cy="-600" fill="none" r="35" stroke="#c1433c" stroke-width="10"> <animate attributeName="visibility" dur="15.400000000000002s" keyTimes="0.0;0.0178571429;1.0" repeatCount="indefinite" values="visible;visible;visible"/> </circle>
</svg>