<?xml version="1.0" encoding="UTF-8"?>
        <svg xmlns="http://www.w3.org/2000/svg" xmlns:xlink="http://www.w3.org/1999/xlink"
             width="190" height="190" viewBox="0 -1900 1900 1900">

<defs>

</defs>

<rect fill="#84A1AE" height="70" rx="15" width="70" x="465" y="-535" />
<rect fill="#84A1AE" height="70" rx="15" width="70" x="465" y="-635" />
<rect fill="#84A1AE" height="70" rx="15" width="70" x="465" y="-735" />
<rect fill="#84A1AE" height="70" rx="15" width="70" x="465" y="-835" />
<rect fill="#84A1AE" height="70" rx="15" width="70" x="465" y="-935" />
<rect fill="#84A1AE" height="70" rx="15" width="70" x="465" y="-1035" />
<rect fill="#84A1AE" height="70" rx="15" width="70" x="465" y="-1135" />
<rect fill="#84A1AE" height="70" rx="15" width="70" x="465" y="-1235" />
<rect fill="#84A1AE" height="70" rx="15" width="70" x="465" y="-1335" />
<rect fill="#84A1AE" height="70" rx="15" width="70" x="465" y="-1435" />
<rect fill="#84A1AE" height="70" rx="15" width="70" x="565" y="-535" />
<rect fill="#84A1AE" height="70" rx="15" width="70" x="565" y="-1035" />
<rect fill="#84A1AE" height="70" rx="15" width="70" x="565" y="-1335" />
<rect fill="#84A1AE" height="70" rx="15" width="70" x="565" y="-1435" />
<rect fill="#84A1AE" height="70" rx="15" width="70" x="665" y="-535" />
<rect fill="#84A1AE" height="70" rx="15" width="70" x="665" y="-835" />
<rect fill="#84A1AE" height="70" rx="15" width="70" x="665" y="-1435" />
<rect fill="#84A1AE" height="70" rx="15" width="70" x="765" y="-535" />
<rect fill="#84A1AE" height="70" rx="15" width="70" x="765" y="-835" />
<rect fill="#84A1AE" height="70" rx="15" width="70" x="765" y="-1135" />
<rect fill="#84A1AE" height="70" rx="15" width="70" x="765" y="-1335" />
<rect fill="#84A1AE" height="70" rx="15" width="70" x="765" y="-1435" />
<rect fill="#84A1AE" height="70" rx="15" width="70" x="865" y="-535" />
<rect fill="#84A1AE" height="70" rx="15" width="70" x="865" y="-1235" />
<rect fill="#84A1AE" height="70" rx="15" width="70" x="865" y="-1435" />
<rect fill="#84A1AE" height="70" rx="15" width="70" x="965" y="-535" />
<rect fill="#84A1AE" height="70" rx="15" width="70" x="965" y="-735" />
<rect fill="#84A1AE" height="70" rx="15" width="70" x="965" y="-835" />
<rect fill="#84A1AE" height="70" rx="15" width="70" x="965" y="-1135" />
<rect fill="#84A1AE" height="70" rx="15" width="70" x="965" y="-1435" />
<rect fill="#84A1AE" height="70" rx="15" width="70" x="1065" y="-535" />
<rect fill="#84A1AE" height="70" rx="15" width="70" x="1065" y="-835" />
<rect fill="#84A1AE" height="70" rx="15" width="70" x="1065" y="-1235" />
<rect fill="#84A1AE" height="70" rx="15" width="70" x="1065" y="-1335" />
<rect fill="#84A1AE" height="70" rx="15" width="70" x="1065" y="-1435" />
<rect fill="#84A1AE" height="70" rx="15" width="70" x="1165" y="-535" />
<rect fill="#84A1AE" height="70" rx="15" width="70" x="1165" y="-735" />
<rect fill="#84A1AE" height="70" rx="15" width="70" x="1165" y="-1035" />
<rect fill="#84A1AE" height="70" rx="15" width="70" x="1165" y="-1135" />
<rect fill="#84A1AE" height="70" rx="15" width="70" x="1165" y="-1335" />
<rect fill="#84A1AE" height="70" rx="15" width="70" x="1165" y="-1435" />
<rect fill="#84A1AE" height="70" rx="15" width="70" x="1265" y="-535" />
<rect fill="#84A1AE" height="70" rx="15" width="70" x="1265" y="-635" />
<rect fill="#84A1AE" height="70" rx="15" width="70" x="1265" y="-735" />
<rect fill="#84A1AE" height="70" rx="15" width="70" x="1265" y="-1035" />
<rect fill="#84A1AE" height="70" rx="15" width="70" x="1265" y="-1135" />
<rect fill="#84A1AE" height="70" rx="15" width="70" x="1265" y="-1335" />
<rect fill="#84A1AE" height="70" rx="15" width="70" x="1265" y="-1435" />
<rect fill="#84A1AE" height="70" rx="15" width="70" x="1365" y="-535" />
<rect fill="#84A1AE" height="70" rx="15" width="70" x="1365" y="-635" />
<rect fill="#84A1AE" height="70" rx="15" width="70" x="1365" y="-735" />
<rect fill="#84A1AE" height="70" rx="15" width="70" x="1365" y="-835" />
<rect fill="#84A1AE" height="70" rx="15" width="70" x="1365" y="-935" />
<rect fill="#84A1AE" height="70" rx="15" width="70" x="1365" y="-1035" />
<rect fill="#84A1AE" height="70" rx="15" width="70" x="1365" y="-1135" />
<rect fill="#84A1AE" height="70" rx="15" width="70" x="1365" y="-1235" />
<rect fill="#84A1AE" height="70" rx="15" width="70" x="1365" y="-1335" />
<rect fill="#84A1AE" height="70" rx="15" width="70" x="1365" y="-1435" />
<circle cx="600" cy="-800" fill="#c1433c" r="35"> <animate attributeName="cy" dur="25.76s" keyTimes="0.0;0.0107526882;0.4623655914;0.4731182796;0.5161290323;0.5268817204;0.8279569892;0.8387096774;0.9032258065;0.9139784946;0.9247311828;0.935483871;0.9784946237;0.9892473118;1.0" repeatCount="indefinite" values="-800;-800;-800;-700;-700;-600;-600;-700;-700;-800;-800;-700;-700;-600;-600"/>
<animate attributeName="cx" dur="25.76s" keyTimes="0.0;0.0107526882;0.5913978495;0.6021505376;0.6129032258;0.8817204301;0.8924731183;0.9032258065;1.0" repeatCount="indefinite" values="600;600;600;700;600;600;700;600;600"/>
<animate attributeName="visibility" dur="25.76s" keyTimes="0.0;0.0107526882;1.0" repeatCount="indefinite" values="visible;visible;visible"/> </circle>
<circle cx="900" cy="-900" fill="none" r="35" stroke="#c1433c" stroke-width="10"> <animate attributeName="visibility" dur="25.76s" keyTimes="0.0;0.0107526882;1.0" repeatCount="indefinite" values="visible;visible;visible"/> </circle>
</svg>