<?xml version="1.0" encoding="UTF-8"?>
        <svg xmlns="http://www.w3.org/2000/svg" xmlns:xlink="http://www.w3.org/1999/xlink"
             width="190" height="190" viewBox="0 -1900 1900 1900">

<defs>

</defs>

<rect fill="#84A1AE" height="70" rx="15" width="70" x="465" y="-535" />
<rect fill="#84A1AE" height="70" rx="15" width="70" x="465" y="-635" />
<rect fill="#84A1AE" height="70" rx="15" width="70" x="465" y="-735" />
<rect fill="#84A1AE" height="70" rx="15" width="70" x="465" y="-835" />
<rect fill="#84A1AE" height="70" rx="15" width="70" x="465" y="-935" />
<rect fill="#84A1AE" height="70" rx="15" width="70" x="465" y="-1035" />
<rect fill="#84A1AE" height="70" rx="15" width="70" x="465" y="-1135" />
<rect fill="#84A1AE" height="70" rx="15" width="70" x="465" y="-1235" />
<rect fill="#84A1AE" height="70" rx="15" width="70" x="465" y="-1335" />
<rect fill="#84A1AE" height="70" rx="15" width="70" x="465" y="-1435" />
<rect fill="#84A1AE" height="70" rx="15" width="70" x="565" y="-535" />
<rect fill="#84A1AE" height="70" rx="15" width="70" x="565" y="-1035" />
<rect fill="#84A1AE" height="70" rx="15" width="70" x="565" y="-1135" />
<rect fill="#84A1AE" height="70" rx="15" width="70" x="565" y="-1435" />
<rect fill="#84A1AE" height="70" rx="15" width="70" x="665" y="-535" />
<rect fill="#84A1AE" height="70" rx="15" width="70" x="665" y="-635" />
<rect fill="#84A1AE" height="70" rx="15" width="70" x="665" y="-1035" />
<rect fill="#84A1AE" height="70" rx="15" width="70" x="665" y="-1335" />
<rect fill="#84A1AE" height="70" rx="15" width="70" x="665" y="-1435" />
<rect fill="#84A1AE" height="70" rx="15" width="70" x="765" y="-535" />
<rect fill="#84A1AE" height="70" rx="15" width="70" x="765" y="-635" />
<rect fill="#84A1AE" height="70" rx="15" width="70" x="765" y="-935" />
<rect fill="#84A1AE" height="70" rx="15" width="70" x="765" y="-1435" />
<rect fill="#84A1AE" height="70" rx="15" width="70" x="865" y="-535" />
<rect fill="#84A1AE" height="70" rx="15" width="70" x="865" y="-1235" />
<rect fill="#84A1AE" height="70" rx="15" width="70" x="865" y="-1435" />
<rect fill="#84A1AE" height="70" rx="15" width="70" x="965" y="-535" />
<rect fill="#84A1AE" height="70" rx="15" width="70" x="965" y="-1235" />
<rect fill="#84A1AE" height="70" rx="15" width="70" x="965" y="-1435" />
<rect fill="#84A1AE" height="70" rx="15" width="70" x="1065" y="-535" />
<rect fill="#84A1AE" height="70" rx="15" width="70" x="1065" y="-735" />
<rect fill="#84A1AE" height="70" rx="15" width="70" x="1065" y="-1335" />
<rect fill="#84A1AE" height="70" rx="15" width="70" x="1065" y="-1435" />
<rect fill="#84A1AE" height="70" rx="15" width="70" x="1165" y="-535" />
<rect fill="#84A1AE" height="70" rx="15" width="70" x="1165" y="-635" />
<rect fill="#84A1AE" height="70" rx="15" width="70" x="1165" y="-835" />
<rect fill="#84A1AE" height="70" rx="15" width="70" x="1165" y="-1035" />
<rect fill="#84A1AE" height="70" rx="15" width="70" x="1165" y="-1135" />
<rect fill="#84A1AE" height="70" rx="15" width="70" x="1165" y="-1235" />
<rect fill="#84A1AE" height="70" rx="15" width="70" x="1165" y="-1335" />
<rect fill="#84A1AE" height="70" rx="15" width="70" x="1165" y="-1435" />
<rect fill="#84A1AE" height="70" rx="15" width="70" x="1265" y="-535" />
<rect fill="#84A1AE" height="70" rx="15" width="70" x="1265" y="-735" />
<rect fill="#84A1AE" height="70" rx="15" width="70" x="1265" y="-1235" />
<rect fill="#84A1AE" height="70" rx="15" width="70" x="1265" y="-1335" />
<rect fill="#84A1AE" height="70" rx="15" width="70" x="1265" y="-1435" />
<rect fill="#84A1AE" height="70" rx="15" width="70" x="1365" y="-535" />
<rect fill="#84A1AE" height="70" rx="15" width="70" x="1365" y="-635" />
<rect fill="#84A1AE" height="70" rx="15" width="70" x="1365" y="-735" />
<rect fill="#84A1AE" height="70" rx="15" width="70" x="1365" y="-835" />
<rect fill="#84A1AE" height="70" rx="15" width="70" x="1365" y="-935" />
<rect fill="#84A1AE" height="70" rx="15" width="70" x="1365" y="-1035" />
<rect fill="#84A1AE" height="70" rx="15" width="70" x="1365" y="-1135" />
<rect fill="#84A1AE" height="70" rx="15" width="70" x="1365" y="-1235" />
<rect fill="#84A1AE" height="70" rx="15" width="70" x="1365" y="-1335" />
<rect fill="#84A1AE" height="70" rx="15" width="70" x="1365" y="-1435" />
<circle cx="1100" cy="-1100" fill="#c1433c" r="35"> <animate attributeName="cy" dur="20.720000000000002s" keyTimes="0.0;0.0133333333;0.0266666667;0.04;0.0533333333;0.0666666667;0.0933333333;0.1066666667;0.1333333333;0.1466666667;0.1866666667;0.2;0.2133333333;0.2266666667;0.28;0.2933333333;0.3066666667;0.32;0.3333333333;0.3466666667;0.36;0.3733333333;0.3866666667;0.4133333333;0.4266666667;0.4933333333;0.5066666667;0.5333333333;0.5466666667;0.56;0.5733333333;0.6133333333;0.6266666667;0.64;0.6933333333;0.7066666667;0.72;0.7333333333;0.7466666667;0.76;0.7733333333;0.7866666667;0.8;0.84;0.8533333333;0.8666666667;0.9466666667;0.96;0.9733333333;0.9866666667;1.0" repeatCount="indefinite" values="-1100;-1100;-1200;-1100;-1000;-1100;-1100;-1000;-1000;-1100;-1100;-1000;-1000;-900;-900;-1000;-1000;-900;-900;-1000;-1100;-1100;-1000;-1000;-900;-900;-1000;-1000;-1100;-1100;-1200;-1200;-1100;-1200;-1200;-1100;-1000;-1000;-900;-900;-800;-900;-800;-800;-900;-1000;-1000;-900;-900;-800;-800"/>
<animate attributeName="cx" dur="20.720000000000002s" keyTimes="0.0;0.0133333333;0.0666666667;0.08;0.0933333333;0.12;0.1333333333;0.1466666667;0.16;0.1733333333;0.1866666667;0.2;0.2133333333;0.2266666667;0.24;0.2666666667;0.28;0.2933333333;0.3066666667;0.32;0.3333333333;0.36;0.3733333333;0.3866666667;0.4;0.44;0.4533333333;0.4666666667;0.48;0.4933333333;0.5066666667;0.52;0.5466666667;0.56;0.72;0.7333333333;0.7466666667;0.76;0.8666666667;0.88;0.8933333333;0.9066666667;0.92;0.96;0.9733333333;1.0" repeatCount="indefinite" values="1100;1100;1100;1000;1100;1100;1000;1000;900;900;1000;1000;1100;1100;1200;1200;1100;1100;1000;1000;1100;1100;1000;1000;1100;1100;1000;1100;1000;900;900;1000;1000;1100;1100;1000;1000;1100;1100;1000;900;1000;1100;1100;1000;1000"/>
<animate attributeName="visibility" dur="20.720000000000002s" keyTimes="0.0;0.0133333333;0.9733333333;0.9866666667;1.0" repeatCount="indefinite" values="visible;visible;visible;hidden;hidden"/> </circle>
<circle cx="1000" cy="-800" fill="none" r="35" stroke="#c1433c" stroke-width="10"> <animate attributeName="visibility" dur="20.720000000000002s" keyTimes="0.0;0.0133333333;0.9733333333;0.9866666667;1.0" repeatCount="indefinite" values="visible;visible;visible;hidden;hidden"/> </circle>
</svg>