<?xml version="1.0" encoding="UTF-8"?>
        <svg xmlns="http://www.w3.org/2000/svg" xmlns:xlink="http://www.w3.org/1999/xlink"
             width="190" height="190" viewBox="0 -1900 1900 1900">

<defs>

</defs>

<rect fill="#84A1AE" height="70" rx="15" width="70" x="465" y="-535" />
<rect fill="#84A1AE" height="70" rx="15" width="70" x="465" y="-635" />
<rect fill="#84A1AE" height="70" rx="15" width="70" x="465" y="-735" />
<rect fill="#84A1AE" height="70" rx="15" width="70" x="465" y="-835" />
<rect fill="#84A1AE" height="70" rx="15" width="70" x="465" y="-935" />
<rect fill="#84A1AE" height="70" rx="15" width="70" x="465" y="-1035" />
<rect fill="#84A1AE" height="70" rx="15" width="70" x="465" y="-1135" />
<rect fill="#84A1AE" height="70" rx="15" width="70" x="465" y="-1235" />
<rect fill="#84A1AE" height="70" rx="15" width="70" x="465" y="-1335" />
<rect fill="#84A1AE" height="70" rx="15" width="70" x="465" y="-1435" />
<rect fill="#84A1AE" height="70" rx="15" width="70" x="565" y="-535" />
<rect fill="#84A1AE" height="70" rx="15" width="70" x="565" y="-635" />
<rect fill="#84A1AE" height="70" rx="15" width="70" x="565" y="-1135" />
<rect fill="#84A1AE" height="70" rx="15" width="70" x="565" y="-1435" />
<rect fill="#84A1AE" height="70" rx="15" width="70" x="665" y="-535" />
<rect fill="#84A1AE" height="70" rx="15" width="70" x="665" y="-1435" />
<rect fill="#84A1AE" height="70" rx="15" width="70" x="765" y="-535" />
<rect fill="#84A1AE" height="70" rx="15" width="70" x="765" y="-1435" />
<rect fill="#84A1AE" height="70" rx="15" width="70" x="865" y="-535" />
<rect fill="#84A1AE" height="70" rx="15" width="70" x="865" y="-935" />
<rect fill="#84A1AE" height="70" rx="15" width="70" x="865" y="-1035" />
<rect fill="#84A1AE" height="70" rx="15" width="70" x="865" y="-1435" />
<rect fill="#84A1AE" height="70" rx="15" width="70" x="965" y="-535" />
<rect fill="#84A1AE" height="70" rx="15" width="70" x="965" y="-935" />
<rect fill="#84A1AE" height="70" rx="15" width="70" x="965" y="-1235" />
<rect fill="#84A1AE" height="70" rx="15" width="70" x="965" y="-1435" />
<rect fill="#84A1AE" height="70" rx="15" width="70" x="1065" y="-535" />
<rect fill="#84A1AE" height="70" rx="15" width="70" x="1065" y="-1335" />
<rect fill="#84A1AE" height="70" rx="15" width="70" x="1065" y="-1435" />
<rect fill="#84A1AE" height="70" rx="15" width="70" x="1165" y="-535" />
<rect fill="#84A1AE" height="70" rx="15" width="70" x="1165" y="-735" />
<rect fill="#84A1AE" height="70" rx="15" width="70" x="1165" y="-935" />
<rect fill="#84A1AE" height="70" rx="15" width="70" x="1165" y="-1135" />
<rect fill="#84A1AE" height="70" rx="15" width="70" x="1165" y="-1235" />
<rect fill="#84A1AE" height="70" rx="15" width="70" x="1165" y="-1435" />
<rect fill="#84A1AE" height="70" rx="15" width="70" x="1265" y="-535" />
<rect fill="#84A1AE" height="70" rx="15" width="70" x="1265" y="-1235" />
<rect fill="#84A1AE" height="70" rx="15" width="70" x="1265" y="-1435" />
<rect fill="#84A1AE" height="70" rx="15" width="70" x="1365" y="-535" />
<rect fill="#84A1AE" height="70" rx="15" width="70" x="1365" y="-635" />
<rect fill="#84A1AE" height="70" rx="15" width="70" x="1365" y="-735" />
<rect fill="#84A1AE" height="70" rx="15" width="70" x="1365" y="-835" />
<rect fill="#84A1AE" height="70" rx="15" width="70" x="1365" y="-935" />
<rect fill="#84A1AE" height="70" rx="15" width="70" x="1365" y="-1035" />
<rect fill="#84A1AE" height="70" rx="15" width="70" x="1365" y="-1135" />
<rect fill="#84A1AE" height="70" rx="15" width="70" x="1365" y="-1235" />
<rect fill="#84A1AE" height="70" rx="15" width="70" x="1365" y="-1335" />
<rect fill="#84A1AE" height="70" rx="15" width="70" x="1365" y="-1435" />
<circle cx="1300" cy="-1000" fill="#c1433c" r="35"> <animate attributeName="cy" dur="25.200000000000003s" keyTimes="0.0;0.010989011;0.021978022;0.032967033;0.043956044;0.0659340659;0.0769230769;0.0879120879;0.3516483516;0.3626373626;0.3736263736;0.3846153846;0.3956043956;0.4065934066;0.4175824176;0.4285714286;0.5384615385;0.5494505495;0.5604395604;0.5714285714;0.5824175824;0.5934065934;0.6043956044;0.7252747253;0.7362637363;0.7472527473;0.7582417582;0.7692307692;0.7802197802;0.7912087912;0.8021978022;0.8131868132;0.8241758242;0.8351648352;0.8461538462;0.8571428571;0.8681318681;0.9230769231;0.9340659341;0.9450549451;0.956043956;1.0" repeatCount="indefinite" values="-1000;-1000;-900;-900;-800;-800;-700;-600;-600;-700;-700;-800;-700;-600;-700;-600;-600;-700;-600;-600;-700;-700;-600;-600;-700;-600;-700;-700;-600;-700;-600;-700;-700;-800;-900;-900;-1000;-1000;-900;-900;-1000;-1000"/>
<animate attributeName="cx" dur="25.200000000000003s" keyTimes="0.0;0.010989011;0.043956044;0.0549450549;0.0659340659;0.1098901099;0.1208791209;0.1428571429;0.1538461538;0.1648351648;0.1758241758;0.1868131868;0.1978021978;0.2087912088;0.2197802198;0.2417582418;0.2527472527;0.2857142857;0.2967032967;0.3076923077;0.3186813187;0.4285714286;0.4395604396;0.4505494505;0.6703296703;0.6813186813;0.7032967033;0.7142857143;0.8681318681;0.8791208791;0.9120879121;0.9230769231;0.956043956;0.967032967;0.978021978;0.989010989;1.0" repeatCount="indefinite" values="1300;1300;1300;1200;1300;1300;1200;1200;1300;1200;1200;1100;1100;1200;1300;1300;1200;1200;1100;1200;1300;1300;1200;1300;1300;1200;1200;1300;1300;1200;1200;1100;1100;1200;1100;1000;1000"/>
<animate attributeName="visibility" dur="25.200000000000003s" keyTimes="0.0;0.010989011;0.978021978;0.989010989;1.0" repeatCount="indefinite" values="visible;visible;visible;hidden;hidden"/> </circle>
<circle cx="1000" cy="-1000" fill="none" r="35" stroke="#c1433c" stroke-width="10"> <animate attributeName="visibility" dur="25.200000000000003s" keyTimes="0.0;0.010989011;0.978021978;0.989010989;1.0" repeatCount="indefinite" values="visible;visible;visible;hidden;hidden"/> </circle>
</svg>