<?xml version="1.0" encoding="UTF-8"?>
        <svg xmlns="http://www.w3.org/2000/svg" xmlns:xlink="http://www.w3.org/1999/xlink"
             width="150" height="150" viewBox="0 -1500 1500 1500">

<defs>

</defs>

<rect fill="#84A1AE" height="70" rx="15" width="70" x="265" y="-335" />
<rect fill="#84A1AE" height="70" rx="15" width="70" x="265" y="-435" />
<rect fill="#84A1AE" height="70" rx="15" width="70" x="265" y="-535" />
<rect fill="#84A1AE" height="70" rx="15" width="70" x="265" y="-635" />
<rect fill="#84A1AE" height="70" rx="15" width="70" x="265" y="-735" />
<rect fill="#84A1AE" height="70" rx="15" width="70" x="265" y="-835" />
<rect fill="#84A1AE" height="70" rx="15" width="70" x="265" y="-935" />
<rect fill="#84A1AE" height="70" rx="15" width="70" x="265" y="-1035" />
<rect fill="#84A1AE" height="70" rx="15" width="70" x="265" y="-1135" />
<rect fill="#84A1AE" height="70" rx="15" width="70" x="265" y="-1235" />
<rect fill="#84A1AE" height="70" rx="15" width="70" x="365" y="-335" />
<rect fill="#84A1AE" height="70" rx="15" width="70" x="365" y="-535" />
<rect fill="#84A1AE" height="70" rx="15" width="70" x="365" y="-635" />
<rect fill="#84A1AE" height="70" rx="15" width="70" x="365" y="-1235" />
<rect fill="#84A1AE" height="70" rx="15" width="70" x="465" y="-335" />
<rect fill="#84A1AE" height="70" rx="15" width="70" x="465" y="-635" />
<rect fill="#84A1AE" height="70" rx="15" width="70" x="465" y="-1035" />
<rect fill="#84A1AE" height="70" rx="15" width="70" x="465" y="-1235" />
<rect fill="#84A1AE" height="70" rx="15" width="70" x="565" y="-335" />
<rect fill="#84A1AE" height="70" rx="15" width="70" x="565" y="-1235" />
<rect fill="#84A1AE" height="70" rx="15" width="70" x="665" y="-335" />
<rect fill="#84A1AE" height="70" rx="15" width="70" x="665" y="-935" />
<rect fill="#84A1AE" height="70" rx="15" width="70" x="665" y="-1235" />
<rect fill="#84A1AE" height="70" rx="15" width="70" x="765" y="-335" />
<rect fill="#84A1AE" height="70" rx="15" width="70" x="765" y="-535" />
<rect fill="#84A1AE" height="70" rx="15" width="70" x="765" y="-935" />
<rect fill="#84A1AE" height="70" rx="15" width="70" x="765" y="-1135" />
<rect fill="#84A1AE" height="70" rx="15" width="70" x="765" y="-1235" />
<rect fill="#84A1AE" height="70" rx="15" width="70" x="865" y="-335" />
<rect fill="#84A1AE" height="70" rx="15" width="70" x="865" y="-435" />
<rect fill="#84A1AE" height="70" rx="15" width="70" x="865" y="-735" />
<rect fill="#84A1AE" height="70" rx="15" width="70" x="865" y="-835" />
<rect fill="#84A1AE" height="70" rx="15" width="70" x="865" y="-935" />
<rect fill="#84A1AE" height="70" rx="15" width="70" x="865" y="-1035" />
<rect fill="#84A1AE" height="70" rx="15" width="70" x="865" y="-1235" />
<rect fill="#84A1AE" height="70" rx="15" width="70" x="965" y="-335" />
<rect fill="#84A1AE" height="70" rx="15" width="70" x="965" y="-635" />
<rect fill="#84A1AE" height="70" rx="15" width="70" x="965" y="-1235" />
<rect fill="#84A1AE" height="70" rx="15" width="70" x="1065" y="-335" />
<rect fill="#84A1AE" height="70" rx="15" width="70" x="1065" y="-1235" />
<rect fill="#84A1AE" height="70" rx="15" width="70" x="1165" y="-335" />
<rect fill="#84A1AE" height="70" rx="15" width="70" x="1165" y="-435" />
<rect fill="#84A1AE" height="70" rx="15" width="70" x="1165" y="-535" />
<rect fill="#84A1AE" height="70" rx="15" width="70" x="1165" y="-635" />
<rect fill="#84A1AE" height="70" rx="15" width="70" x="1165" y="-735" />
<rect fill="#84A1AE" height="70" rx="15" width="70" x="1165" y="-835" />
<rect fill="#84A1AE" height="70" rx="15" width="70" x="1165" y="-935" />
<rect fill="#84A1AE" height="70" rx="15" width="70" x="1165" y="-1035" />
<rect fill="#84A1AE" height="70" rx="15" width="70" x="1165" y="-1135" />
<rect fill="#84A1AE" height="70" rx="15" width="70" x="1165" y="-1235" />
<circle cx="800" cy="-1000" fill="#c1433c" r="35"> <animate attributeName="cy" dur="35.84s" keyTimes="0.0;0.007751938;1.0" repeatCount="indefinite" values="-1000;-1000;-1000"/>
<animate attributeName="cx" dur="35.84s" keyTimes="0.0;0.007751938;0.015503876;0.023255814;0.0310077519;0.0387596899;0.0465116279;0.0542635659;0.0620155039;0.0697674419;0.0775193798;0.0852713178;0.0930232558;0.1007751938;0.1085271318;0.1162790698;0.1240310078;0.1317829457;0.1395348837;0.1472868217;0.1550387597;0.1627906977;0.1705426357;0.1782945736;0.1860465116;0.1937984496;0.2015503876;0.2093023256;0.2170542636;0.2403100775;0.2480620155;0.2635658915;0.2713178295;0.2790697674;0.2945736434;0.3023255814;0.3100775194;0.3178294574;0.3255813953;0.3333333333;0.3410852713;0.3488372093;0.3565891473;0.3643410853;0.3720930233;0.3798449612;0.3875968992;0.4186046512;0.4263565891;0.4341085271;0.4418604651;0.4496124031;0.4573643411;0.480620155;0.488372093;0.496124031;0.519379845;0.5271317829;0.5348837209;0.5426356589;0.5581395349;0.5658914729;0.5736434109;0.5813953488;0.5891472868;0.5968992248;0.6046511628;0.6124031008;0.6201550388;0.6279069767;0.6356589147;0.6434108527;0.6589147287;0.6666666667;0.6744186047;0.6821705426;0.6899224806;0.6976744186;0.7054263566;0.7131782946;0.7209302326;0.7286821705;0.7364341085;0.7441860465;0.7519379845;0.7596899225;0.7674418605;0.7751937984;0.7829457364;0.7906976744;0.7984496124;0.8062015504;0.8139534884;0.8527131783;0.8604651163;0.8682170543;0.8759689922;0.8837209302;0.8914728682;0.9069767442;0.9147286822;0.9224806202;0.9302325581;0.9379844961;0.9457364341;0.9534883721;0.9612403101;0.9689922481;0.976744186;0.984496124;0.992248062;1.0" repeatCount="indefinite" values="800;800;700;700;800;700;800;700;700;800;700;800;700;700;800;700;700;800;800;700;700;800;700;800;700;800;700;800;700;700;800;800;700;800;800;700;800;700;700;800;700;800;700;800;700;700;800;800;700;800;700;700;800;800;700;800;800;700;700;800;800;700;800;700;800;700;800;700;800;800;700;800;800;700;800;800;700;800;800;700;700;800;700;800;700;800;700;800;800;700;800;700;800;800;700;700;800;800;700;700;800;800;700;800;700;800;800;700;800;800;700;700"/>
<animate attributeName="visibility" dur="35.84s" keyTimes="0.0;0.007751938;1.0" repeatCount="indefinite" values="visible;visible;visible"/> </circle>
<circle cx="700" cy="-500" fill="none" r="35" stroke="#c1433c" stroke-width="10"> <animate attributeName="visibility" dur="35.84s" keyTimes="0.0;0.007751938;1.0" repeatCount="indefinite" values="visible;visible;visible"/> </circle>
</svg>