<?xml version="1.0" encoding="UTF-8"?>
        <svg xmlns="http://www.w3.org/2000/svg" xmlns:xlink="http://www.w3.org/1999/xlink"
             width="150" height="150" viewBox="0 -1500 1500 1500">

<defs>

</defs>

<rect fill="#84A1AE" height="70" rx="15" width="70" x="265" y="-335" />
<rect fill="#84A1AE" height="70" rx="15" width="70" x="265" y="-435" />
<rect fill="#84A1AE" height="70" rx="15" width="70" x="265" y="-535" />
<rect fill="#84A1AE" height="70" rx="15" width="70" x="265" y="-635" />
<rect fill="#84A1AE" height="70" rx="15" width="70" x="265" y="-735" />
<rect fill="#84A1AE" height="70" rx="15" width="70" x="265" y="-835" />
<rect fill="#84A1AE" height="70" rx="15" width="70" x="265" y="-935" />
<rect fill="#84A1AE" height="70" rx="15" width="70" x="265" y="-1035" />
<rect fill="#84A1AE" height="70" rx="15" width="70" x="265" y="-1135" />
<rect fill="#84A1AE" height="70" rx="15" width="70" x="265" y="-1235" />
<rect fill="#84A1AE" height="70" rx="15" width="70" x="365" y="-335" />
<rect fill="#84A1AE" height="70" rx="15" width="70" x="365" y="-635" />
<rect fill="#84A1AE" height="70" rx="15" width="70" x="365" y="-835" />
<rect fill="#84A1AE" height="70" rx="15" width="70" x="365" y="-1235" />
<rect fill="#84A1AE" height="70" rx="15" width="70" x="465" y="-335" />
<rect fill="#84A1AE" height="70" rx="15" width="70" x="465" y="-1235" />
<rect fill="#84A1AE" height="70" rx="15" width="70" x="565" y="-335" />
<rect fill="#84A1AE" height="70" rx="15" width="70" x="565" y="-1235" />
<rect fill="#84A1AE" height="70" rx="15" width="70" x="665" y="-335" />
<rect fill="#84A1AE" height="70" rx="15" width="70" x="665" y="-935" />
<rect fill="#84A1AE" height="70" rx="15" width="70" x="665" y="-1035" />
<rect fill="#84A1AE" height="70" rx="15" width="70" x="665" y="-1235" />
<rect fill="#84A1AE" height="70" rx="15" width="70" x="765" y="-335" />
<rect fill="#84A1AE" height="70" rx="15" width="70" x="765" y="-735" />
<rect fill="#84A1AE" height="70" rx="15" width="70" x="765" y="-935" />
<rect fill="#84A1AE" height="70" rx="15" width="70" x="765" y="-1035" />
<rect fill="#84A1AE" height="70" rx="15" width="70" x="765" y="-1135" />
<rect fill="#84A1AE" height="70" rx="15" width="70" x="765" y="-1235" />
<rect fill="#84A1AE" height="70" rx="15" width="70" x="865" y="-335" />
<rect fill="#84A1AE" height="70" rx="15" width="70" x="865" y="-435" />
<rect fill="#84A1AE" height="70" rx="15" width="70" x="865" y="-635" />
<rect fill="#84A1AE" height="70" rx="15" width="70" x="865" y="-835" />
<rect fill="#84A1AE" height="70" rx="15" width="70" x="865" y="-935" />
<rect fill="#84A1AE" height="70" rx="15" width="70" x="865" y="-1035" />
<rect fill="#84A1AE" height="70" rx="15" width="70" x="865" y="-1235" />
<rect fill="#84A1AE" height="70" rx="15" width="70" x="965" y="-335" />
<rect fill="#84A1AE" height="70" rx="15" width="70" x="965" y="-635" />
<rect fill="#84A1AE" height="70" rx="15" width="70" x="965" y="-735" />
<rect fill="#84A1AE" height="70" rx="15" width="70" x="965" y="-1035" />
<rect fill="#84A1AE" height="70" rx="15" width="70" x="965" y="-1235" />
<rect fill="#84A1AE" height="70" rx="15" width="70" x="1065" y="-335" />
<rect fill="#84A1AE" height="70" rx="15" width="70" x="1065" y="-1235" />
<rect fill="#84A1AE" height="70" rx="15" width="70" x="1165" y="-335" />
<rect fill="#84A1AE" height="70" rx="15" width="70" x="1165" y="-435" />
<rect fill="#84A1AE" height="70" rx="15" width="70" x="1165" y="-535" />
<rect fill="#84A1AE" height="70" rx="15" width="70" x="1165" y="-635" />
<rect fill="#84A1AE" height="70" rx="15" width="70" x="1165" y="-735" />
<rect fill="#84A1AE" height="70" rx="15" width="70" x="1165" y="-835" />
<rect fill="#84A1AE" height="70" rx="15" width="70" x="1165" y="-935" />
<rect fill="#84A1AE" height="70" rx="15" width="70" x="1165" y="-1035" />
<rect fill="#84A1AE" height="70" rx="15" width="70" x="1165" y="-1135" />
<rect fill="#84A1AE" height="70" rx="15" width="70" x="1165" y="-1235" />
<circle cx="800" cy="-500" fill="#c1433c" r="35"> <animate attributeName="cy" dur="35.84s" keyTimes="0.0;0.007751938;0.015503876;0.023255814;0.0310077519;0.0387596899;0.3255813953;0.3333333333;0.3410852713;0.5426356589;0.5503875969;0.5581395349;0.5658914729;0.5736434109;0.5813953488;0.7364341085;0.7441860465;0.7519379845;0.7596899225;0.7674418605;0.7751937984;0.7829457364;0.7906976744;0.7984496124;0.8062015504;0.8139534884;1.0" repeatCount="indefinite" values="-500;-500;-600;-600;-700;-800;-800;-700;-800;-800;-900;-1000;-900;-1000;-1100;-1100;-1000;-900;-900;-1000;-1000;-900;-1000;-900;-1000;-1100;-1100"/>
<animate attributeName="cx" dur="35.84s" keyTimes="0.0;0.007751938;0.015503876;0.023255814;0.0387596899;0.0465116279;0.0542635659;0.0620155039;0.0697674419;0.1627906977;0.1705426357;0.1782945736;0.2790697674;0.2868217054;0.2945736434;0.3178294574;0.3255813953;0.3410852713;0.3488372093;0.4573643411;0.4651162791;0.4728682171;0.488372093;0.496124031;0.503875969;0.5271317829;0.5348837209;0.5426356589;0.5813953488;0.5891472868;0.6279069767;0.6356589147;0.6434108527;0.6511627907;0.6589147287;0.6666666667;0.7286821705;0.7364341085;0.7519379845;0.7596899225;0.7674418605;0.7751937984;0.8139534884;0.8217054264;0.8294573643;0.8372093023;0.8837209302;0.8914728682;0.8992248062;0.9069767442;0.9147286822;0.9457364341;0.9534883721;0.9612403101;0.976744186;0.984496124;0.992248062;1.0" repeatCount="indefinite" values="800;800;800;700;700;800;800;700;800;800;700;800;800;700;800;800;700;700;800;800;700;800;800;700;800;800;700;600;600;700;700;600;700;700;600;700;700;600;600;500;500;600;600;700;600;700;700;600;700;600;700;700;600;700;700;600;700;700"/>
<animate attributeName="visibility" dur="35.84s" keyTimes="0.0;0.007751938;1.0" repeatCount="indefinite" values="visible;visible;visible"/> </circle>
<circle cx="1000" cy="-1100" fill="none" r="35" stroke="#c1433c" stroke-width="10"> <animate attributeName="visibility" dur="35.84s" keyTimes="0.0;0.007751938;1.0" repeatCount="indefinite" values="visible;visible;visible"/> </circle>
</svg>