<?xml version="1.0" encoding="UTF-8"?>
        <svg xmlns="http://www.w3.org/2000/svg" xmlns:xlink="http://www.w3.org/1999/xlink"
             width="150" height="150" viewBox="0 -1500 1500 1500">

<defs>

</defs>

<rect fill="#84A1AE" height="70" rx="15" width="70" x="265" y="-335" />
<rect fill="#84A1AE" height="70" rx="15" width="70" x="265" y="-435" />
<rect fill="#84A1AE" height="70" rx="15" width="70" x="265" y="-535" />
<rect fill="#84A1AE" height="70" rx="15" width="70" x="265" y="-635" />
<rect fill="#84A1AE" height="70" rx="15" width="70" x="265" y="-735" />
<rect fill="#84A1AE" height="70" rx="15" width="70" x="265" y="-835" />
<rect fill="#84A1AE" height="70" rx="15" width="70" x="265" y="-935" />
<rect fill="#84A1AE" height="70" rx="15" width="70" x="265" y="-1035" />
<rect fill="#84A1AE" height="70" rx="15" width="70" x="265" y="-1135" />
<rect fill="#84A1AE" height="70" rx="15" width="70" x="265" y="-1235" />
<rect fill="#84A1AE" height="70" rx="15" width="70" x="365" y="-335" />
<rect fill="#84A1AE" height="70" rx="15" width="70" x="365" y="-635" />
<rect fill="#84A1AE" height="70" rx="15" width="70" x="365" y="-1135" />
<rect fill="#84A1AE" height="70" rx="15" width="70" x="365" y="-1235" />
<rect fill="#84A1AE" height="70" rx="15" width="70" x="465" y="-335" />
<rect fill="#84A1AE" height="70" rx="15" width="70" x="465" y="-435" />
<rect fill="#84A1AE" height="70" rx="15" width="70" x="465" y="-835" />
<rect fill="#84A1AE" height="70" rx="15" width="70" x="465" y="-1135" />
<rect fill="#84A1AE" height="70" rx="15" width="70" x="465" y="-1235" />
<rect fill="#84A1AE" height="70" rx="15" width="70" x="565" y="-335" />
<rect fill="#84A1AE" height="70" rx="15" width="70" x="565" y="-835" />
<rect fill="#84A1AE" height="70" rx="15" width="70" x="565" y="-1235" />
<rect fill="#84A1AE" height="70" rx="15" width="70" x="665" y="-335" />
<rect fill="#84A1AE" height="70" rx="15" width="70" x="665" y="-1235" />
<rect fill="#84A1AE" height="70" rx="15" width="70" x="765" y="-335" />
<rect fill="#84A1AE" height="70" rx="15" width="70" x="765" y="-735" />
<rect fill="#84A1AE" height="70" rx="15" width="70" x="765" y="-835" />
<rect fill="#84A1AE" height="70" rx="15" width="70" x="765" y="-935" />
<rect fill="#84A1AE" height="70" rx="15" width="70" x="765" y="-1135" />
<rect fill="#84A1AE" height="70" rx="15" width="70" x="765" y="-1235" />
<rect fill="#84A1AE" height="70" rx="15" width="70" x="865" y="-335" />
<rect fill="#84A1AE" height="70" rx="15" width="70" x="865" y="-535" />
<rect fill="#84A1AE" height="70" rx="15" width="70" x="865" y="-635" />
<rect fill="#84A1AE" height="70" rx="15" width="70" x="865" y="-935" />
<rect fill="#84A1AE" height="70" rx="15" width="70" x="865" y="-1235" />
<rect fill="#84A1AE" height="70" rx="15" width="70" x="965" y="-335" />
<rect fill="#84A1AE" height="70" rx="15" width="70" x="965" y="-535" />
<rect fill="#84A1AE" height="70" rx="15" width="70" x="965" y="-735" />
<rect fill="#84A1AE" height="70" rx="15" width="70" x="965" y="-1135" />
<rect fill="#84A1AE" height="70" rx="15" width="70" x="965" y="-1235" />
<rect fill="#84A1AE" height="70" rx="15" width="70" x="1065" y="-335" />
<rect fill="#84A1AE" height="70" rx="15" width="70" x="1065" y="-635" />
<rect fill="#84A1AE" height="70" rx="15" width="70" x="1065" y="-735" />
<rect fill="#84A1AE" height="70" rx="15" width="70" x="1065" y="-1035" />
<rect fill="#84A1AE" height="70" rx="15" width="70" x="1065" y="-1135" />
<rect fill="#84A1AE" height="70" rx="15" width="70" x="1065" y="-1235" />
<rect fill="#84A1AE" height="70" rx="15" width="70" x="1165" y="-335" />
<rect fill="#84A1AE" height="70" rx="15" width="70" x="1165" y="-435" />
<rect fill="#84A1AE" height="70" rx="15" width="70" x="1165" y="-535" />
<rect fill="#84A1AE" height="70" rx="15" width="70" x="1165" y="-635" />
<rect fill="#84A1AE" height="70" rx="15" width="70" x="1165" y="-735" />
<rect fill="#84A1AE" height="70" rx="15" width="70" x="1165" y="-835" />
<rect fill="#84A1AE" height="70" rx="15" width="70" x="1165" y="-935" />
<rect fill="#84A1AE" height="70" rx="15" width="70" x="1165" y="-1035" />
<rect fill="#84A1AE" height="70" rx="15" width="70" x="1165" y="-1135" />
<rect fill="#84A1AE" height="70" rx="15" width="70" x="1165" y="-1235" />
<circle cx="500" cy="-900" fill="#c1433c" r="35"> <animate attributeName="cy" dur="2.24s" keyTimes="0.0;0.1111111111;0.4444444444;0.5555555556;0.6666666667;0.7777777778;0.8888888889;1.0" repeatCount="indefinite" values="-900;-900;-900;-800;-700;-600;-500;-500"/>
<animate attributeName="cx" dur="2.24s" keyTimes="0.0;0.1111111111;0.2222222222;0.3333333333;0.4444444444;1.0" repeatCount="indefinite" values="500;500;600;600;700;700"/>
<animate attributeName="visibility" dur="2.24s" keyTimes="0.0;0.1111111111;0.7777777778;0.8888888889;1.0" repeatCount="indefinite" values="visible;visible;visible;hidden;hidden"/> </circle>
<circle cx="700" cy="-500" fill="none" r="35" stroke="#c1433c" stroke-width="10"> <animate attributeName="visibility" dur="2.24s" keyTimes="0.0;0.1111111111;0.7777777778;0.8888888889;1.0" repeatCount="indefinite" values="visible;visible;visible;hidden;hidden"/> </circle>
</svg>