<?xml version="1.0" encoding="UTF-8"?>
        <svg xmlns="http://www.w3.org/2000/svg" xmlns:xlink="http://www.w3.org/1999/xlink"
             width="190" height="190" viewBox="0 -1900 1900 1900">

<defs>

</defs>

<rect fill="#84A1AE" height="70" rx="15" width="70" x="465" y="-535" />
<rect fill="#84A1AE" height="70" rx="15" width="70" x="465" y="-635" />
<rect fill="#84A1AE" height="70" rx="15" width="70" x="465" y="-735" />
<rect fill="#84A1AE" height="70" rx="15" width="70" x="465" y="-835" />
<rect fill="#84A1AE" height="70" rx="15" width="70" x="465" y="-935" />
<rect fill="#84A1AE" height="70" rx="15" width="70" x="465" y="-1035" />
<rect fill="#84A1AE" height="70" rx="15" width="70" x="465" y="-1135" />
<rect fill="#84A1AE" height="70" rx="15" width="70" x="465" y="-1235" />
<rect fill="#84A1AE" height="70" rx="15" width="70" x="465" y="-1335" />
<rect fill="#84A1AE" height="70" rx="15" width="70" x="465" y="-1435" />
<rect fill="#84A1AE" height="70" rx="15" width="70" x="565" y="-535" />
<rect fill="#84A1AE" height="70" rx="15" width="70" x="565" y="-735" />
<rect fill="#84A1AE" height="70" rx="15" width="70" x="565" y="-835" />
<rect fill="#84A1AE" height="70" rx="15" width="70" x="565" y="-1335" />
<rect fill="#84A1AE" height="70" rx="15" width="70" x="565" y="-1435" />
<rect fill="#84A1AE" height="70" rx="15" width="70" x="665" y="-535" />
<rect fill="#84A1AE" height="70" rx="15" width="70" x="665" y="-635" />
<rect fill="#84A1AE" height="70" rx="15" width="70" x="665" y="-835" />
<rect fill="#84A1AE" height="70" rx="15" width="70" x="665" y="-1135" />
<rect fill="#84A1AE" height="70" rx="15" width="70" x="665" y="-1335" />
<rect fill="#84A1AE" height="70" rx="15" width="70" x="665" y="-1435" />
<rect fill="#84A1AE" height="70" rx="15" width="70" x="765" y="-535" />
<rect fill="#84A1AE" height="70" rx="15" width="70" x="765" y="-635" />
<rect fill="#84A1AE" height="70" rx="15" width="70" x="765" y="-1335" />
<rect fill="#84A1AE" height="70" rx="15" width="70" x="765" y="-1435" />
<rect fill="#84A1AE" height="70" rx="15" width="70" x="865" y="-535" />
<rect fill="#84A1AE" height="70" rx="15" width="70" x="865" y="-735" />
<rect fill="#84A1AE" height="70" rx="15" width="70" x="865" y="-835" />
<rect fill="#84A1AE" height="70" rx="15" width="70" x="865" y="-1235" />
<rect fill="#84A1AE" height="70" rx="15" width="70" x="865" y="-1435" />
<rect fill="#84A1AE" height="70" rx="15" width="70" x="965" y="-535" />
<rect fill="#84A1AE" height="70" rx="15" width="70" x="965" y="-1235" />
<rect fill="#84A1AE" height="70" rx="15" width="70" x="965" y="-1335" />
<rect fill="#84A1AE" height="70" rx="15" width="70" x="965" y="-1435" />
<rect fill="#84A1AE" height="70" rx="15" width="70" x="1065" y="-535" />
<rect fill="#84A1AE" height="70" rx="15" width="70" x="1065" y="-1335" />
<rect fill="#84A1AE" height="70" rx="15" width="70" x="1065" y="-1435" />
<rect fill="#84A1AE" height="70" rx="15" width="70" x="1165" y="-535" />
<rect fill="#84A1AE" height="70" rx="15" width="70" x="1165" y="-1235" />
<rect fill="#84A1AE" height="70" rx="15" width="70" x="1165" y="-1435" />
<rect fill="#84A1AE" height="70" rx="15" width="70" x="1265" y="-535" />
<rect fill="#84A1AE" height="70" rx="15" width="70" x="1265" y="-635" />
<rect fill="#84A1AE" height="70" rx="15" width="70" x="1265" y="-935" />
<rect fill="#84A1AE" height="70" rx="15" width="70" x="1265" y="-1035" />
<rect fill="#84A1AE" height="70" rx="15" width="70" x="1265" y="-1435" />
<rect fill="#84A1AE" height="70" rx="15" width="70" x="1365" y="-535" />
<rect fill="#84A1AE" height="70" rx="15" width="70" x="1365" y="-635" />
<rect fill="#84A1AE" height="70" rx="15" width="70" x="1365" y="-735" />
<rect fill="#84A1AE" height="70" rx="15" width="70" x="1365" y="-835" />
<rect fill="#84A1AE" height="70" rx="15" width="70" x="1365" y="-935" />
<rect fill="#84A1AE" height="70" rx="15" width="70" x="1365" y="-1035" />
<rect fill="#84A1AE" height="70" rx="15" width="70" x="1365" y="-1135" />
<rect fill="#84A1AE" height="70" rx="15" width="70" x="1365" y="-1235" />
<rect fill="#84A1AE" height="70" rx="15" width="70" x="1365" y="-1335" />
<rect fill="#84A1AE" height="70" rx="15" width="70" x="1365" y="-1435" />
<circle cx="1200" cy="-800" fill="#c1433c" r="35"> <animate attributeName="cy" dur="25.76s" keyTimes="0.0;0.0107526882;0.0215053763;0.0322580645;0.0430107527;0.0537634409;0.064516129;0.0752688172;0.0860215054;0.0967741935;0.1075268817;0.1290322581;0.1397849462;0.1505376344;0.1612903226;0.1935483871;0.2043010753;0.2150537634;0.2688172043;0.2795698925;0.2903225806;0.3010752688;0.311827957;0.3225806452;0.3333333333;0.3440860215;0.3548387097;0.3655913978;0.376344086;0.3870967742;0.3978494624;0.4086021505;0.4193548387;0.4301075269;0.5268817204;0.5376344086;0.5483870968;0.5591397849;0.5698924731;0.6344086022;0.6451612903;0.6559139785;0.6666666667;0.6774193548;0.688172043;0.6989247312;0.7096774194;0.7204301075;0.7311827957;0.7419354839;0.752688172;0.7741935484;0.7849462366;0.8064516129;0.8172043011;0.8709677419;0.8817204301;0.935483871;0.9462365591;0.9677419355;0.9784946237;1.0" repeatCount="indefinite" values="-800;-800;-800;-700;-700;-800;-700;-800;-900;-900;-800;-800;-700;-700;-800;-800;-700;-800;-800;-900;-1000;-1100;-1100;-1000;-900;-900;-1000;-900;-900;-800;-700;-600;-700;-600;-600;-700;-800;-700;-600;-600;-700;-700;-800;-800;-900;-800;-800;-900;-800;-900;-1000;-1000;-1100;-1100;-1000;-1000;-900;-900;-1000;-1000;-900;-900"/>
<animate attributeName="cx" dur="25.76s" keyTimes="0.0;0.0107526882;0.0322580645;0.0430107527;0.0860215054;0.0967741935;0.1075268817;0.1182795699;0.2365591398;0.247311828;0.2580645161;0.2688172043;0.3010752688;0.311827957;0.3655913978;0.376344086;0.4301075269;0.4408602151;0.5161290323;0.5268817204;0.5698924731;0.5806451613;0.623655914;0.6344086022;0.6451612903;0.6559139785;0.6666666667;0.6774193548;0.6989247312;0.7096774194;0.752688172;0.7634408602;0.7741935484;0.7849462366;0.7956989247;0.8064516129;0.8172043011;0.8279569892;0.8387096774;0.8494623656;0.8602150538;0.8709677419;0.8817204301;0.8924731183;0.9462365591;0.9569892473;0.9677419355;0.9784946237;0.9892473118;1.0" repeatCount="indefinite" values="1200;1200;1200;1100;1100;1200;1200;1300;1300;1200;1100;1000;1000;1100;1100;1000;1000;900;900;1000;1000;900;900;1000;1000;1100;1100;1200;1200;1100;1100;1000;1100;1100;1000;900;900;800;900;800;700;600;600;700;700;800;700;700;800;800"/>
<animate attributeName="visibility" dur="25.76s" keyTimes="0.0;0.0107526882;0.9784946237;0.9892473118;1.0" repeatCount="indefinite" values="visible;visible;visible;hidden;hidden"/> </circle>
<circle cx="800" cy="-900" fill="none" r="35" stroke="#c1433c" stroke-width="10"> <animate attributeName="visibility" dur="25.76s" keyTimes="0.0;0.0107526882;0.9784946237;0.9892473118;1.0" repeatCount="indefinite" values="visible;visible;visible;hidden;hidden"/> </circle>
</svg>