<?xml version="1.0" encoding="UTF-8"?>
        <svg xmlns="http://www.w3.org/2000/svg" xmlns:xlink="http://www.w3.org/1999/xlink"
             width="190" height="190" viewBox="0 -1900 1900 1900">

<defs>

</defs>

<rect fill="#84A1AE" height="70" rx="15" width="70" x="465" y="-535" />
<rect fill="#84A1AE" height="70" rx="15" width="70" x="465" y="-635" />
<rect fill="#84A1AE" height="70" rx="15" width="70" x="465" y="-735" />
<rect fill="#84A1AE" height="70" rx="15" width="70" x="465" y="-835" />
<rect fill="#84A1AE" height="70" rx="15" width="70" x="465" y="-935" />
<rect fill="#84A1AE" height="70" rx="15" width="70" x="465" y="-1035" />
<rect fill="#84A1AE" height="70" rx="15" width="70" x="465" y="-1135" />
<rect fill="#84A1AE" height="70" rx="15" width="70" x="465" y="-1235" />
<rect fill="#84A1AE" height="70" rx="15" width="70" x="465" y="-1335" />
<rect fill="#84A1AE" height="70" rx="15" width="70" x="465" y="-1435" />
<rect fill="#84A1AE" height="70" rx="15" width="70" x="565" y="-535" />
<rect fill="#84A1AE" height="70" rx="15" width="70" x="565" y="-635" />
<rect fill="#84A1AE" height="70" rx="15" width="70" x="565" y="-935" />
<rect fill="#84A1AE" height="70" rx="15" width="70" x="565" y="-1035" />
<rect fill="#84A1AE" height="70" rx="15" width="70" x="565" y="-1235" />
<rect fill="#84A1AE" height="70" rx="15" width="70" x="565" y="-1435" />
<rect fill="#84A1AE" height="70" rx="15" width="70" x="665" y="-535" />
<rect fill="#84A1AE" height="70" rx="15" width="70" x="665" y="-735" />
<rect fill="#84A1AE" height="70" rx="15" width="70" x="665" y="-835" />
<rect fill="#84A1AE" height="70" rx="15" width="70" x="665" y="-1335" />
<rect fill="#84A1AE" height="70" rx="15" width="70" x="665" y="-1435" />
<rect fill="#84A1AE" height="70" rx="15" width="70" x="765" y="-535" />
<rect fill="#84A1AE" height="70" rx="15" width="70" x="765" y="-635" />
<rect fill="#84A1AE" height="70" rx="15" width="70" x="765" y="-1035" />
<rect fill="#84A1AE" height="70" rx="15" width="70" x="765" y="-1235" />
<rect fill="#84A1AE" height="70" rx="15" width="70" x="765" y="-1435" />
<rect fill="#84A1AE" height="70" rx="15" width="70" x="865" y="-535" />
<rect fill="#84A1AE" height="70" rx="15" width="70" x="865" y="-635" />
<rect fill="#84A1AE" height="70" rx="15" width="70" x="865" y="-935" />
<rect fill="#84A1AE" height="70" rx="15" width="70" x="865" y="-1035" />
<rect fill="#84A1AE" height="70" rx="15" width="70" x="865" y="-1235" />
<rect fill="#84A1AE" height="70" rx="15" width="70" x="865" y="-1435" />
<rect fill="#84A1AE" height="70" rx="15" width="70" x="965" y="-535" />
<rect fill="#84A1AE" height="70" rx="15" width="70" x="965" y="-1035" />
<rect fill="#84A1AE" height="70" rx="15" width="70" x="965" y="-1135" />
<rect fill="#84A1AE" height="70" rx="15" width="70" x="965" y="-1435" />
<rect fill="#84A1AE" height="70" rx="15" width="70" x="1065" y="-535" />
<rect fill="#84A1AE" height="70" rx="15" width="70" x="1065" y="-1135" />
<rect fill="#84A1AE" height="70" rx="15" width="70" x="1065" y="-1435" />
<rect fill="#84A1AE" height="70" rx="15" width="70" x="1165" y="-535" />
<rect fill="#84A1AE" height="70" rx="15" width="70" x="1165" y="-635" />
<rect fill="#84A1AE" height="70" rx="15" width="70" x="1165" y="-1035" />
<rect fill="#84A1AE" height="70" rx="15" width="70" x="1165" y="-1235" />
<rect fill="#84A1AE" height="70" rx="15" width="70" x="1165" y="-1435" />
<rect fill="#84A1AE" height="70" rx="15" width="70" x="1265" y="-535" />
<rect fill="#84A1AE" height="70" rx="15" width="70" x="1265" y="-635" />
<rect fill="#84A1AE" height="70" rx="15" width="70" x="1265" y="-735" />
<rect fill="#84A1AE" height="70" rx="15" width="70" x="1265" y="-1035" />
<rect fill="#84A1AE" height="70" rx="15" width="70" x="1265" y="-1135" />
<rect fill="#84A1AE" height="70" rx="15" width="70" x="1265" y="-1235" />
<rect fill="#84A1AE" height="70" rx="15" width="70" x="1265" y="-1435" />
<rect fill="#84A1AE" height="70" rx="15" width="70" x="1365" y="-535" />
<rect fill="#84A1AE" height="70" rx="15" width="70" x="1365" y="-635" />
<rect fill="#84A1AE" height="70" rx="15" width="70" x="1365" y="-735" />
<rect fill="#84A1AE" height="70" rx="15" width="70" x="1365" y="-835" />
<rect fill="#84A1AE" height="70" rx="15" width="70" x="1365" y="-935" />
<rect fill="#84A1AE" height="70" rx="15" width="70" x="1365" y="-1035" />
<rect fill="#84A1AE" height="70" rx="15" width="70" x="1365" y="-1135" />
<rect fill="#84A1AE" height="70" rx="15" width="70" x="1365" y="-1235" />
<rect fill="#84A1AE" height="70" rx="15" width="70" x="1365" y="-1335" />
<rect fill="#84A1AE" height="70" rx="15" width="70" x="1365" y="-1435" />
<circle cx="1300" cy="-800" fill="#c1433c" r="35"> <animate attributeName="cy" dur="24.360000000000003s" keyTimes="0.0;0.0113636364;0.0340909091;0.0454545455;0.125;0.1363636364;0.1477272727;0.1590909091;0.1704545455;0.1818181818;0.1931818182;0.2045454545;0.2159090909;0.2272727273;0.25;0.2613636364;0.2727272727;0.2840909091;0.3522727273;0.3636363636;0.375;0.3863636364;0.4090909091;0.4204545455;0.4545454545;0.4659090909;0.4772727273;0.5227272727;0.5340909091;0.5454545455;0.5568181818;0.5909090909;0.6022727273;0.6136363636;0.625;0.6363636364;0.6477272727;0.8068181818;0.8181818182;0.8522727273;0.8636363636;0.875;0.9090909091;0.9204545455;0.9318181818;0.9431818182;0.9545454545;0.9772727273;0.9886363636;1.0" repeatCount="indefinite" values="-800;-800;-800;-700;-700;-800;-700;-800;-900;-900;-800;-700;-700;-800;-800;-900;-900;-800;-800;-900;-1000;-900;-900;-800;-800;-700;-800;-800;-700;-700;-600;-600;-700;-700;-800;-700;-800;-800;-900;-900;-800;-900;-900;-800;-800;-900;-800;-800;-900;-900"/>
<animate attributeName="cx" dur="24.360000000000003s" keyTimes="0.0;0.0113636364;0.0227272727;0.0340909091;0.0568181818;0.0681818182;0.0909090909;0.1022727273;0.1136363636;0.125;0.1704545455;0.1818181818;0.2272727273;0.2386363636;0.2840909091;0.2954545455;0.3068181818;0.3181818182;0.3295454545;0.3409090909;0.3522727273;0.3863636364;0.3977272727;0.4318181818;0.4431818182;0.4545454545;0.4886363636;0.5;0.5113636364;0.5340909091;0.5454545455;0.5568181818;0.5681818182;0.5795454545;0.5909090909;0.6022727273;0.6136363636;0.6477272727;0.6590909091;0.6704545455;0.6818181818;0.6931818182;0.7045454545;0.7159090909;0.7386363636;0.75;0.7613636364;0.7727272727;0.7840909091;0.7954545455;0.9545454545;0.9659090909;0.9772727273;1.0" repeatCount="indefinite" values="1300;1300;1200;1100;1100;1200;1200;1100;1200;1100;1100;1200;1200;1300;1300;1200;1100;1200;1300;1200;1100;1100;1200;1200;1100;1000;1000;900;1000;1000;1100;1100;1000;1000;1100;1100;1200;1200;1300;1300;1200;1100;1000;900;900;800;900;800;900;800;800;900;1000;1000"/>
<animate attributeName="visibility" dur="24.360000000000003s" keyTimes="0.0;0.0113636364;0.9772727273;0.9886363636;1.0" repeatCount="indefinite" values="visible;visible;visible;hidden;hidden"/> </circle>
<circle cx="1000" cy="-900" fill="none" r="35" stroke="#c1433c" stroke-width="10"> <animate attributeName="visibility" dur="24.360000000000003s" keyTimes="0.0;0.0113636364;0.9772727273;0.9886363636;1.0" repeatCount="indefinite" values="visible;visible;visible;hidden;hidden"/> </circle>
</svg>