<?xml version="1.0" encoding="UTF-8"?>
        <svg xmlns="http://www.w3.org/2000/svg" xmlns:xlink="http://www.w3.org/1999/xlink"
             width="190" height="190" viewBox="0 -1900 1900 1900">

<defs>

</defs>

<rect fill="#84A1AE" height="70" rx="15" width="70" x="465" y="-535" />
<rect fill="#84A1AE" height="70" rx="15" width="70" x="465" y="-635" />
<rect fill="#84A1AE" height="70" rx="15" width="70" x="465" y="-735" />
<rect fill="#84A1AE" height="70" rx="15" width="70" x="465" y="-835" />
<rect fill="#84A1AE" height="70" rx="15" width="70" x="465" y="-935" />
<rect fill="#84A1AE" height="70" rx="15" width="70" x="465" y="-1035" />
<rect fill="#84A1AE" height="70" rx="15" width="70" x="465" y="-1135" />
<rect fill="#84A1AE" height="70" rx="15" width="70" x="465" y="-1235" />
<rect fill="#84A1AE" height="70" rx="15" width="70" x="465" y="-1335" />
<rect fill="#84A1AE" height="70" rx="15" width="70" x="465" y="-1435" />
<rect fill="#84A1AE" height="70" rx="15" width="70" x="565" y="-535" />
<rect fill="#84A1AE" height="70" rx="15" width="70" x="565" y="-635" />
<rect fill="#84A1AE" height="70" rx="15" width="70" x="565" y="-1435" />
<rect fill="#84A1AE" height="70" rx="15" width="70" x="665" y="-535" />
<rect fill="#84A1AE" height="70" rx="15" width="70" x="665" y="-735" />
<rect fill="#84A1AE" height="70" rx="15" width="70" x="665" y="-1335" />
<rect fill="#84A1AE" height="70" rx="15" width="70" x="665" y="-1435" />
<rect fill="#84A1AE" height="70" rx="15" width="70" x="765" y="-535" />
<rect fill="#84A1AE" height="70" rx="15" width="70" x="765" y="-735" />
<rect fill="#84A1AE" height="70" rx="15" width="70" x="765" y="-1435" />
<rect fill="#84A1AE" height="70" rx="15" width="70" x="865" y="-535" />
<rect fill="#84A1AE" height="70" rx="15" width="70" x="865" y="-635" />
<rect fill="#84A1AE" height="70" rx="15" width="70" x="865" y="-1435" />
<rect fill="#84A1AE" height="70" rx="15" width="70" x="965" y="-535" />
<rect fill="#84A1AE" height="70" rx="15" width="70" x="965" y="-1035" />
<rect fill="#84A1AE" height="70" rx="15" width="70" x="965" y="-1235" />
<rect fill="#84A1AE" height="70" rx="15" width="70" x="965" y="-1435" />
<rect fill="#84A1AE" height="70" rx="15" width="70" x="1065" y="-535" />
<rect fill="#84A1AE" height="70" rx="15" width="70" x="1065" y="-935" />
<rect fill="#84A1AE" height="70" rx="15" width="70" x="1065" y="-1335" />
<rect fill="#84A1AE" height="70" rx="15" width="70" x="1065" y="-1435" />
<rect fill="#84A1AE" height="70" rx="15" width="70" x="1165" y="-535" />
<rect fill="#84A1AE" height="70" rx="15" width="70" x="1165" y="-635" />
<rect fill="#84A1AE" height="70" rx="15" width="70" x="1165" y="-1035" />
<rect fill="#84A1AE" height="70" rx="15" width="70" x="1165" y="-1335" />
<rect fill="#84A1AE" height="70" rx="15" width="70" x="1165" y="-1435" />
<rect fill="#84A1AE" height="70" rx="15" width="70" x="1265" y="-535" />
<rect fill="#84A1AE" height="70" rx="15" width="70" x="1265" y="-635" />
<rect fill="#84A1AE" height="70" rx="15" width="70" x="1265" y="-1435" />
<rect fill="#84A1AE" height="70" rx="15" width="70" x="1365" y="-535" />
<rect fill="#84A1AE" height="70" rx="15" width="70" x="1365" y="-635" />
<rect fill="#84A1AE" height="70" rx="15" width="70" x="1365" y="-735" />
<rect fill="#84A1AE" height="70" rx="15" width="70" x="1365" y="-835" />
<rect fill="#84A1AE" height="70" rx="15" width="70" x="1365" y="-935" />
<rect fill="#84A1AE" height="70" rx="15" width="70" x="1365" y="-1035" />
<rect fill="#84A1AE" height="70" rx="15" width="70" x="1365" y="-1135" />
<rect fill="#84A1AE" height="70" rx="15" width="70" x="1365" y="-1235" />
<rect fill="#84A1AE" height="70" rx="15" width="70" x="1365" y="-1335" />
<rect fill="#84A1AE" height="70" rx="15" width="70" x="1365" y="-1435" />
<circle cx="900" cy="-700" fill="#c1433c" r="35"> <animate attributeName="cy" dur="27.720000000000002s" keyTimes="0.0;0.01;0.04;0.05;0.06;0.07;0.08;0.09;0.13;0.14;0.16;0.17;0.19;0.2;0.21;0.23;0.24;0.31;0.32;0.36;0.37;0.39;0.4;0.43;0.44;0.45;0.5;0.51;0.52;0.53;0.54;0.6;0.61;0.62;0.63;0.64;0.65;0.66;0.67;0.68;0.7;0.71;0.83;0.84;0.85;0.87;0.88;0.89;0.9;0.91;0.92;0.95;0.96;0.97;0.98;0.99;1.0" repeatCount="indefinite" values="-700;-700;-700;-800;-900;-800;-800;-700;-700;-600;-600;-700;-700;-800;-700;-700;-600;-600;-700;-700;-800;-800;-900;-900;-800;-700;-700;-800;-900;-900;-800;-800;-700;-800;-800;-900;-800;-800;-700;-800;-800;-900;-900;-1000;-1100;-1100;-1200;-1200;-1100;-1100;-1200;-1200;-1100;-1200;-1200;-1300;-1300"/>
<animate attributeName="cx" dur="27.720000000000002s" keyTimes="0.0;0.01;0.07;0.08;0.09;0.1;0.12;0.13;0.14;0.15;0.16;0.17;0.18;0.21;0.22;0.23;0.29;0.3;0.31;0.33;0.34;0.35;0.36;0.38;0.39;0.4;0.41;0.42;0.43;0.52;0.53;0.54;0.55;0.56;0.57;0.58;0.59;0.6;0.71;0.72;0.79;0.8;0.81;0.82;0.83;0.85;0.86;0.88;0.89;0.9;0.91;0.92;0.93;0.94;0.95;0.97;0.98;1.0" repeatCount="indefinite" values="900;900;900;1000;1000;900;900;1000;1000;1100;1000;1000;900;900;1000;1100;1100;1000;1100;1100;1200;1200;1100;1100;1000;1000;900;1000;900;900;1000;1000;900;1000;1100;1100;1200;1300;1300;1200;1200;1300;1200;1200;1300;1300;1200;1200;1100;1100;1200;1200;1100;1100;1200;1200;1300;1300"/>
<animate attributeName="visibility" dur="27.720000000000002s" keyTimes="0.0;0.01;1.0" repeatCount="indefinite" values="visible;visible;visible"/> </circle>
<circle cx="600" cy="-800" fill="none" r="35" stroke="#c1433c" stroke-width="10"> <animate attributeName="visibility" dur="27.720000000000002s" keyTimes="0.0;0.01;1.0" repeatCount="indefinite" values="visible;visible;visible"/> </circle>
</svg>