<?xml version="1.0" encoding="UTF-8"?>
        <svg xmlns="http://www.w3.org/2000/svg" xmlns:xlink="http://www.w3.org/1999/xlink"
             width="190" height="190" viewBox="0 -1900 1900 1900">

<defs>

</defs>

<rect fill="#84A1AE" height="70" rx="15" width="70" x="465" y="-535" />
<rect fill="#84A1AE" height="70" rx="15" width="70" x="465" y="-635" />
<rect fill="#84A1AE" height="70" rx="15" width="70" x="465" y="-735" />
<rect fill="#84A1AE" height="70" rx="15" width="70" x="465" y="-835" />
<rect fill="#84A1AE" height="70" rx="15" width="70" x="465" y="-935" />
<rect fill="#84A1AE" height="70" rx="15" width="70" x="465" y="-1035" />
<rect fill="#84A1AE" height="70" rx="15" width="70" x="465" y="-1135" />
<rect fill="#84A1AE" height="70" rx="15" width="70" x="465" y="-1235" />
<rect fill="#84A1AE" height="70" rx="15" width="70" x="465" y="-1335" />
<rect fill="#84A1AE" height="70" rx="15" width="70" x="465" y="-1435" />
<rect fill="#84A1AE" height="70" rx="15" width="70" x="565" y="-535" />
<rect fill="#84A1AE" height="70" rx="15" width="70" x="565" y="-735" />
<rect fill="#84A1AE" height="70" rx="15" width="70" x="565" y="-1335" />
<rect fill="#84A1AE" height="70" rx="15" width="70" x="565" y="-1435" />
<rect fill="#84A1AE" height="70" rx="15" width="70" x="665" y="-535" />
<rect fill="#84A1AE" height="70" rx="15" width="70" x="665" y="-935" />
<rect fill="#84A1AE" height="70" rx="15" width="70" x="665" y="-1035" />
<rect fill="#84A1AE" height="70" rx="15" width="70" x="665" y="-1135" />
<rect fill="#84A1AE" height="70" rx="15" width="70" x="665" y="-1435" />
<rect fill="#84A1AE" height="70" rx="15" width="70" x="765" y="-535" />
<rect fill="#84A1AE" height="70" rx="15" width="70" x="765" y="-835" />
<rect fill="#84A1AE" height="70" rx="15" width="70" x="765" y="-1035" />
<rect fill="#84A1AE" height="70" rx="15" width="70" x="765" y="-1435" />
<rect fill="#84A1AE" height="70" rx="15" width="70" x="865" y="-535" />
<rect fill="#84A1AE" height="70" rx="15" width="70" x="865" y="-1435" />
<rect fill="#84A1AE" height="70" rx="15" width="70" x="965" y="-535" />
<rect fill="#84A1AE" height="70" rx="15" width="70" x="965" y="-735" />
<rect fill="#84A1AE" height="70" rx="15" width="70" x="965" y="-1435" />
<rect fill="#84A1AE" height="70" rx="15" width="70" x="1065" y="-535" />
<rect fill="#84A1AE" height="70" rx="15" width="70" x="1065" y="-1435" />
<rect fill="#84A1AE" height="70" rx="15" width="70" x="1165" y="-535" />
<rect fill="#84A1AE" height="70" rx="15" width="70" x="1165" y="-835" />
<rect fill="#84A1AE" height="70" rx="15" width="70" x="1165" y="-1035" />
<rect fill="#84A1AE" height="70" rx="15" width="70" x="1165" y="-1435" />
<rect fill="#84A1AE" height="70" rx="15" width="70" x="1265" y="-535" />
<rect fill="#84A1AE" height="70" rx="15" width="70" x="1265" y="-735" />
<rect fill="#84A1AE" height="70" rx="15" width="70" x="1265" y="-935" />
<rect fill="#84A1AE" height="70" rx="15" width="70" x="1265" y="-1435" />
<rect fill="#84A1AE" height="70" rx="15" width="70" x="1365" y="-535" />
<rect fill="#84A1AE" height="70" rx="15" width="70" x="1365" y="-635" />
<rect fill="#84A1AE" height="70" rx="15" width="70" x="1365" y="-735" />
<rect fill="#84A1AE" height="70" rx="15" width="70" x="1365" y="-835" />
<rect fill="#84A1AE" height="70" rx="15" width="70" x="1365" y="-935" />
<rect fill="#84A1AE" height="70" rx="15" width="70" x="1365" y="-1035" />
<rect fill="#84A1AE" height="70" rx="15" width="70" x="1365" y="-1135" />
<rect fill="#84A1AE" height="70" rx="15" width="70" x="1365" y="-1235" />
<rect fill="#84A1AE" height="70" rx="15" width="70" x="1365" y="-1335" />
<rect fill="#84A1AE" height="70" rx="15" width="70" x="1365" y="-1435" />
<circle cx="700" cy="-1300" fill="#c1433c" r="35"> <animate attributeName="cy" dur="18.200000000000003s" keyTimes="0.0;0.0151515152;0.0454545455;0.0606060606;0.0757575758;0.0909090909;0.1060606061;0.2575757576;0.2727272727;0.2878787879;0.303030303;0.3333333333;0.3484848485;0.3636363636;0.3787878788;0.4090909091;0.4242424242;0.4393939394;0.4545454545;0.4696969697;0.4848484848;0.5;0.5151515152;0.5303030303;0.5606060606;0.5757575758;0.5909090909;0.6060606061;0.6515151515;0.6666666667;0.696969697;0.7121212121;0.7727272727;0.7878787879;0.8181818182;0.8333333333;0.8636363636;0.8787878788;0.8939393939;1.0" repeatCount="indefinite" values="-1300;-1300;-1300;-1200;-1200;-1100;-1200;-1200;-1100;-1100;-1200;-1200;-1100;-1100;-1200;-1200;-1100;-1200;-1200;-1100;-1200;-1200;-1100;-1200;-1200;-1100;-1100;-1200;-1200;-1100;-1100;-1200;-1200;-1100;-1100;-1200;-1200;-1100;-1200;-1200"/>
<animate attributeName="cx" dur="18.200000000000003s" keyTimes="0.0;0.0151515152;0.0303030303;0.0454545455;0.0606060606;0.0757575758;0.1060606061;0.1212121212;0.1363636364;0.1515151515;0.1666666667;0.1818181818;0.196969697;0.2121212121;0.2272727273;0.2424242424;0.2575757576;0.2727272727;0.2878787879;0.303030303;0.3181818182;0.3333333333;0.3484848485;0.3636363636;0.3787878788;0.3939393939;0.4090909091;0.4393939394;0.4545454545;0.4848484848;0.5;0.5303030303;0.5454545455;0.5606060606;0.5757575758;0.5909090909;0.6060606061;0.6212121212;0.6363636364;0.6515151515;0.6666666667;0.6818181818;0.696969697;0.7121212121;0.7272727273;0.7424242424;0.7575757576;0.7727272727;0.7878787879;0.803030303;0.8181818182;0.8333333333;0.8484848485;0.8636363636;0.8939393939;0.9090909091;0.9242424242;0.9393939394;0.9545454545;0.9696969697;0.9848484848;1.0" repeatCount="indefinite" values="700;700;800;900;900;1000;1000;900;1000;900;1000;900;1000;900;1000;900;1000;1000;900;900;1000;900;900;800;800;900;1000;1000;900;900;1000;1000;900;1000;1000;900;900;1000;900;1000;1000;900;800;800;900;1000;900;1000;1000;900;800;800;900;1000;1000;900;1000;900;1000;900;1000;1000"/>
<animate attributeName="visibility" dur="18.200000000000003s" keyTimes="0.0;0.0151515152;1.0" repeatCount="indefinite" values="visible;visible;visible"/> </circle>
<circle cx="1200" cy="-1200" fill="none" r="35" stroke="#c1433c" stroke-width="10"> <animate attributeName="visibility" dur="18.200000000000003s" keyTimes="0.0;0.0151515152;1.0" repeatCount="indefinite" values="visible;visible;visible"/> </circle>
</svg>