<?xml version="1.0" encoding="UTF-8"?>
        <svg xmlns="http://www.w3.org/2000/svg" xmlns:xlink="http://www.w3.org/1999/xlink"
             width="190" height="190" viewBox="0 -1900 1900 1900">

<defs>

</defs>

<rect fill="#84A1AE" height="70" rx="15" width="70" x="465" y="-535" />
<rect fill="#84A1AE" height="70" rx="15" width="70" x="465" y="-635" />
<rect fill="#84A1AE" height="70" rx="15" width="70" x="465" y="-735" />
<rect fill="#84A1AE" height="70" rx="15" width="70" x="465" y="-835" />
<rect fill="#84A1AE" height="70" rx="15" width="70" x="465" y="-935" />
<rect fill="#84A1AE" height="70" rx="15" width="70" x="465" y="-1035" />
<rect fill="#84A1AE" height="70" rx="15" width="70" x="465" y="-1135" />
<rect fill="#84A1AE" height="70" rx="15" width="70" x="465" y="-1235" />
<rect fill="#84A1AE" height="70" rx="15" width="70" x="465" y="-1335" />
<rect fill="#84A1AE" height="70" rx="15" width="70" x="465" y="-1435" />
<rect fill="#84A1AE" height="70" rx="15" width="70" x="565" y="-535" />
<rect fill="#84A1AE" height="70" rx="15" width="70" x="565" y="-835" />
<rect fill="#84A1AE" height="70" rx="15" width="70" x="565" y="-1135" />
<rect fill="#84A1AE" height="70" rx="15" width="70" x="565" y="-1235" />
<rect fill="#84A1AE" height="70" rx="15" width="70" x="565" y="-1335" />
<rect fill="#84A1AE" height="70" rx="15" width="70" x="565" y="-1435" />
<rect fill="#84A1AE" height="70" rx="15" width="70" x="665" y="-535" />
<rect fill="#84A1AE" height="70" rx="15" width="70" x="665" y="-635" />
<rect fill="#84A1AE" height="70" rx="15" width="70" x="665" y="-735" />
<rect fill="#84A1AE" height="70" rx="15" width="70" x="665" y="-1435" />
<rect fill="#84A1AE" height="70" rx="15" width="70" x="765" y="-535" />
<rect fill="#84A1AE" height="70" rx="15" width="70" x="765" y="-1435" />
<rect fill="#84A1AE" height="70" rx="15" width="70" x="865" y="-535" />
<rect fill="#84A1AE" height="70" rx="15" width="70" x="865" y="-835" />
<rect fill="#84A1AE" height="70" rx="15" width="70" x="865" y="-935" />
<rect fill="#84A1AE" height="70" rx="15" width="70" x="865" y="-1035" />
<rect fill="#84A1AE" height="70" rx="15" width="70" x="865" y="-1135" />
<rect fill="#84A1AE" height="70" rx="15" width="70" x="865" y="-1235" />
<rect fill="#84A1AE" height="70" rx="15" width="70" x="865" y="-1435" />
<rect fill="#84A1AE" height="70" rx="15" width="70" x="965" y="-535" />
<rect fill="#84A1AE" height="70" rx="15" width="70" x="965" y="-635" />
<rect fill="#84A1AE" height="70" rx="15" width="70" x="965" y="-735" />
<rect fill="#84A1AE" height="70" rx="15" width="70" x="965" y="-935" />
<rect fill="#84A1AE" height="70" rx="15" width="70" x="965" y="-1035" />
<rect fill="#84A1AE" height="70" rx="15" width="70" x="965" y="-1135" />
<rect fill="#84A1AE" height="70" rx="15" width="70" x="965" y="-1435" />
<rect fill="#84A1AE" height="70" rx="15" width="70" x="1065" y="-535" />
<rect fill="#84A1AE" height="70" rx="15" width="70" x="1065" y="-735" />
<rect fill="#84A1AE" height="70" rx="15" width="70" x="1065" y="-935" />
<rect fill="#84A1AE" height="70" rx="15" width="70" x="1065" y="-1435" />
<rect fill="#84A1AE" height="70" rx="15" width="70" x="1165" y="-535" />
<rect fill="#84A1AE" height="70" rx="15" width="70" x="1165" y="-835" />
<rect fill="#84A1AE" height="70" rx="15" width="70" x="1165" y="-935" />
<rect fill="#84A1AE" height="70" rx="15" width="70" x="1165" y="-1035" />
<rect fill="#84A1AE" height="70" rx="15" width="70" x="1165" y="-1335" />
<rect fill="#84A1AE" height="70" rx="15" width="70" x="1165" y="-1435" />
<rect fill="#84A1AE" height="70" rx="15" width="70" x="1265" y="-535" />
<rect fill="#84A1AE" height="70" rx="15" width="70" x="1265" y="-1135" />
<rect fill="#84A1AE" height="70" rx="15" width="70" x="1265" y="-1235" />
<rect fill="#84A1AE" height="70" rx="15" width="70" x="1265" y="-1435" />
<rect fill="#84A1AE" height="70" rx="15" width="70" x="1365" y="-535" />
<rect fill="#84A1AE" height="70" rx="15" width="70" x="1365" y="-635" />
<rect fill="#84A1AE" height="70" rx="15" width="70" x="1365" y="-735" />
<rect fill="#84A1AE" height="70" rx="15" width="70" x="1365" y="-835" />
<rect fill="#84A1AE" height="70" rx="15" width="70" x="1365" y="-935" />
<rect fill="#84A1AE" height="70" rx="15" width="70" x="1365" y="-1035" />
<rect fill="#84A1AE" height="70" rx="15" width="70" x="1365" y="-1135" />
<rect fill="#84A1AE" height="70" rx="15" width="70" x="1365" y="-1235" />
<rect fill="#84A1AE" height="70" rx="15" width="70" x="1365" y="-1335" />
<rect fill="#84A1AE" height="70" rx="15" width="70" x="1365" y="-1435" />
<circle cx="700" cy="-800" fill="#c1433c" r="35"> <animate attributeName="cy" dur="26.880000000000003s" keyTimes="0.0;0.0103092784;0.0206185567;0.0412371134;0.0515463918;0.0618556701;0.0824742268;0.0927835052;0.1030927835;0.1134020619;0.1237113402;0.1340206186;0.1443298969;0.1546391753;0.1649484536;0.175257732;0.1855670103;0.1958762887;0.206185567;0.2474226804;0.2577319588;0.2680412371;0.2783505155;0.2886597938;0.2989690722;0.3092783505;0.3195876289;0.3402061856;0.3505154639;0.3608247423;0.3711340206;0.381443299;0.3917525773;0.4020618557;0.412371134;0.4226804124;0.4329896907;0.4432989691;0.4639175258;0.4742268041;0.4845360825;0.4948453608;0.5051546392;0.5154639175;0.5257731959;0.5360824742;0.5463917526;0.5567010309;0.5670103093;0.5773195876;0.587628866;0.5979381443;0.6082474227;0.618556701;0.6288659794;0.6391752577;0.6494845361;0.6701030928;0.6804123711;0.6907216495;0.7010309278;0.7216494845;0.7319587629;0.7422680412;0.7525773196;0.7628865979;0.7731958763;0.7835051546;0.793814433;0.8041237113;0.824742268;0.8350515464;0.8659793814;0.8762886598;0.8865979381;0.8969072165;0.9072164948;0.9175257732;0.9278350515;0.9381443299;0.9484536082;0.9587628866;0.9690721649;0.9793814433;0.9896907216;1.0" repeatCount="indefinite" values="-800;-800;-900;-900;-1000;-900;-900;-1000;-900;-1000;-1000;-900;-1000;-900;-900;-1000;-900;-1000;-900;-900;-1000;-900;-1000;-900;-1000;-900;-1000;-1000;-900;-1000;-900;-1000;-900;-1000;-900;-1000;-1000;-900;-900;-1000;-900;-900;-1000;-900;-1000;-900;-1000;-900;-1000;-900;-1000;-900;-1000;-900;-1000;-1000;-900;-900;-1000;-900;-1000;-1000;-1100;-1100;-1000;-900;-1000;-900;-1000;-900;-900;-1000;-1000;-900;-900;-1000;-900;-900;-1000;-1000;-1100;-1100;-1200;-1200;-1300;-1300"/>
<animate attributeName="cx" dur="26.880000000000003s" keyTimes="0.0;0.0103092784;0.0206185567;0.0309278351;0.4226804124;0.4329896907;0.4432989691;0.4536082474;0.7113402062;0.7216494845;0.8041237113;0.8144329897;0.8453608247;0.8556701031;0.8659793814;0.9072164948;0.9175257732;0.9278350515;0.9381443299;0.9484536082;0.9587628866;0.9690721649;0.9793814433;1.0" repeatCount="indefinite" values="700;700;700;600;600;700;700;600;600;700;700;600;600;700;600;600;700;700;800;800;700;700;800;800"/>
<animate attributeName="visibility" dur="26.880000000000003s" keyTimes="0.0;0.0103092784;0.9793814433;0.9896907216;1.0" repeatCount="indefinite" values="visible;visible;visible;hidden;hidden"/> </circle>
<circle cx="800" cy="-1300" fill="none" r="35" stroke="#c1433c" stroke-width="10"> <animate attributeName="visibility" dur="26.880000000000003s" keyTimes="0.0;0.0103092784;0.9793814433;0.9896907216;1.0" repeatCount="indefinite" values="visible;visible;visible;hidden;hidden"/> </circle>
</svg>