<?xml version="1.0" encoding="UTF-8"?>
        <svg xmlns="http://www.w3.org/2000/svg" xmlns:xlink="http://www.w3.org/1999/xlink"
             width="150" height="150" viewBox="0 -1500 1500 1500">

<defs>

</defs>

<rect fill="#84A1AE" height="70" rx="15" width="70" x="265" y="-335" />
<rect fill="#84A1AE" height="70" rx="15" width="70" x="265" y="-435" />
<rect fill="#84A1AE" height="70" rx="15" width="70" x="265" y="-535" />
<rect fill="#84A1AE" height="70" rx="15" width="70" x="265" y="-635" />
<rect fill="#84A1AE" height="70" rx="15" width="70" x="265" y="-735" />
<rect fill="#84A1AE" height="70" rx="15" width="70" x="265" y="-835" />
<rect fill="#84A1AE" height="70" rx="15" width="70" x="265" y="-935" />
<rect fill="#84A1AE" height="70" rx="15" width="70" x="265" y="-1035" />
<rect fill="#84A1AE" height="70" rx="15" width="70" x="265" y="-1135" />
<rect fill="#84A1AE" height="70" rx="15" width="70" x="265" y="-1235" />
<rect fill="#84A1AE" height="70" rx="15" width="70" x="365" y="-335" />
<rect fill="#84A1AE" height="70" rx="15" width="70" x="365" y="-1035" />
<rect fill="#84A1AE" height="70" rx="15" width="70" x="365" y="-1235" />
<rect fill="#84A1AE" height="70" rx="15" width="70" x="465" y="-335" />
<rect fill="#84A1AE" height="70" rx="15" width="70" x="465" y="-635" />
<rect fill="#84A1AE" height="70" rx="15" width="70" x="465" y="-1235" />
<rect fill="#84A1AE" height="70" rx="15" width="70" x="565" y="-335" />
<rect fill="#84A1AE" height="70" rx="15" width="70" x="565" y="-635" />
<rect fill="#84A1AE" height="70" rx="15" width="70" x="565" y="-735" />
<rect fill="#84A1AE" height="70" rx="15" width="70" x="565" y="-935" />
<rect fill="#84A1AE" height="70" rx="15" width="70" x="565" y="-1235" />
<rect fill="#84A1AE" height="70" rx="15" width="70" x="665" y="-335" />
<rect fill="#84A1AE" height="70" rx="15" width="70" x="665" y="-1235" />
<rect fill="#84A1AE" height="70" rx="15" width="70" x="765" y="-335" />
<rect fill="#84A1AE" height="70" rx="15" width="70" x="765" y="-435" />
<rect fill="#84A1AE" height="70" rx="15" width="70" x="765" y="-735" />
<rect fill="#84A1AE" height="70" rx="15" width="70" x="765" y="-1235" />
<rect fill="#84A1AE" height="70" rx="15" width="70" x="865" y="-335" />
<rect fill="#84A1AE" height="70" rx="15" width="70" x="865" y="-435" />
<rect fill="#84A1AE" height="70" rx="15" width="70" x="865" y="-535" />
<rect fill="#84A1AE" height="70" rx="15" width="70" x="865" y="-735" />
<rect fill="#84A1AE" height="70" rx="15" width="70" x="865" y="-935" />
<rect fill="#84A1AE" height="70" rx="15" width="70" x="865" y="-1035" />
<rect fill="#84A1AE" height="70" rx="15" width="70" x="865" y="-1235" />
<rect fill="#84A1AE" height="70" rx="15" width="70" x="965" y="-335" />
<rect fill="#84A1AE" height="70" rx="15" width="70" x="965" y="-435" />
<rect fill="#84A1AE" height="70" rx="15" width="70" x="965" y="-1135" />
<rect fill="#84A1AE" height="70" rx="15" width="70" x="965" y="-1235" />
<rect fill="#84A1AE" height="70" rx="15" width="70" x="1065" y="-335" />
<rect fill="#84A1AE" height="70" rx="15" width="70" x="1065" y="-435" />
<rect fill="#84A1AE" height="70" rx="15" width="70" x="1065" y="-635" />
<rect fill="#84A1AE" height="70" rx="15" width="70" x="1065" y="-735" />
<rect fill="#84A1AE" height="70" rx="15" width="70" x="1065" y="-935" />
<rect fill="#84A1AE" height="70" rx="15" width="70" x="1065" y="-1235" />
<rect fill="#84A1AE" height="70" rx="15" width="70" x="1165" y="-335" />
<rect fill="#84A1AE" height="70" rx="15" width="70" x="1165" y="-435" />
<rect fill="#84A1AE" height="70" rx="15" width="70" x="1165" y="-535" />
<rect fill="#84A1AE" height="70" rx="15" width="70" x="1165" y="-635" />
<rect fill="#84A1AE" height="70" rx="15" width="70" x="1165" y="-735" />
<rect fill="#84A1AE" height="70" rx="15" width="70" x="1165" y="-835" />
<rect fill="#84A1AE" height="70" rx="15" width="70" x="1165" y="-935" />
<rect fill="#84A1AE" height="70" rx="15" width="70" x="1165" y="-1035" />
<rect fill="#84A1AE" height="70" rx="15" width="70" x="1165" y="-1135" />
<rect fill="#84A1AE" height="70" rx="15" width="70" x="1165" y="-1235" />
<circle cx="1000" cy="-1000" fill="#c1433c" r="35"> <animate attributeName="cy" dur="34.440000000000005s" keyTimes="0.0;0.0080645161;0.0241935484;0.0322580645;0.0403225806;0.0483870968;0.0564516129;0.064516129;0.0725806452;0.0806451613;0.0887096774;0.0967741935;0.1048387097;0.1209677419;0.1290322581;0.1370967742;0.1532258065;0.1612903226;0.1693548387;0.1935483871;0.2016129032;0.2096774194;0.2822580645;0.2903225806;0.2983870968;0.3225806452;0.3306451613;0.3387096774;0.3467741935;0.3548387097;0.4032258065;0.4112903226;0.4193548387;0.4758064516;0.4838709677;0.4919354839;0.5;0.5080645161;0.5161290323;0.5241935484;0.564516129;0.5725806452;0.5806451613;0.6290322581;0.6370967742;0.6451612903;0.7419354839;0.75;0.7580645161;0.8870967742;0.8951612903;0.9032258065;0.9758064516;0.9838709677;0.9919354839;1.0" repeatCount="indefinite" values="-1000;-1000;-1000;-900;-1000;-1000;-900;-1000;-1000;-900;-1000;-900;-1000;-1000;-900;-1000;-1000;-900;-1000;-1000;-900;-1000;-1000;-900;-1000;-1000;-900;-1000;-900;-1000;-1000;-900;-1000;-1000;-900;-1000;-900;-1000;-900;-1000;-1000;-900;-1000;-1000;-900;-1000;-1000;-1100;-1000;-1000;-900;-1000;-1000;-900;-1000;-1000"/>
<animate attributeName="cx" dur="34.440000000000005s" keyTimes="0.0;0.0080645161;0.1048387097;0.1129032258;0.1209677419;0.1693548387;0.1774193548;0.185483871;0.2419354839;0.25;0.2580645161;0.2661290323;0.2741935484;0.2822580645;0.2983870968;0.3064516129;0.314516129;0.3548387097;0.3629032258;0.3709677419;0.3790322581;0.3870967742;0.3951612903;0.4032258065;0.4193548387;0.4274193548;0.435483871;0.4435483871;0.4516129032;0.4596774194;0.4677419355;0.4758064516;0.5241935484;0.5322580645;0.5403225806;0.5483870968;0.5564516129;0.564516129;0.5806451613;0.5887096774;0.5967741935;0.6048387097;0.6129032258;0.6451612903;0.6532258065;0.6612903226;0.6774193548;0.685483871;0.6935483871;0.7096774194;0.7177419355;0.7258064516;0.7338709677;0.7419354839;0.7580645161;0.7661290323;0.7741935484;0.7822580645;0.7903225806;0.7983870968;0.8064516129;0.814516129;0.8225806452;0.8306451613;0.8387096774;0.8548387097;0.8629032258;0.8709677419;0.9435483871;0.9516129032;0.9596774194;0.9677419355;0.9758064516;1.0" repeatCount="indefinite" values="1000;1000;1000;1100;1000;1000;1100;1000;1000;1100;1000;1000;1100;1000;1000;1100;1000;1000;1100;1000;1100;1000;1100;1000;1000;1100;1000;1100;1000;1000;1100;1000;1000;1100;1000;1000;1100;1000;1000;1100;1000;1100;1000;1000;1100;1000;1000;1100;1000;1000;1100;1000;1000;1100;1100;1000;1100;1000;1100;1000;1000;1100;1000;1100;1000;1000;1100;1000;1000;1100;1000;1100;1000;1000"/>
<animate attributeName="visibility" dur="34.440000000000005s" keyTimes="0.0;0.0080645161;1.0" repeatCount="indefinite" values="visible;visible;visible"/> </circle>
<circle cx="400" cy="-1100" fill="none" r="35" stroke="#c1433c" stroke-width="10"> <animate attributeName="visibility" dur="34.440000000000005s" keyTimes="0.0;0.0080645161;1.0" repeatCount="indefinite" values="visible;visible;visible"/> </circle>
</svg>