<?xml version="1.0" encoding="UTF-8"?>
        <svg xmlns="http://www.w3.org/2000/svg" xmlns:xlink="http://www.w3.org/1999/xlink"
             width="190" height="190" viewBox="0 -1900 1900 1900">

<defs>

</defs>

<rect fill="#84A1AE" height="70" rx="15" width="70" x="465" y="-535" />
<rect fill="#84A1AE" height="70" rx="15" width="70" x="465" y="-635" />
<rect fill="#84A1AE" height="70" rx="15" width="70" x="465" y="-735" />
<rect fill="#84A1AE" height="70" rx="15" width="70" x="465" y="-835" />
<rect fill="#84A1AE" height="70" rx="15" width="70" x="465" y="-935" />
<rect fill="#84A1AE" height="70" rx="15" width="70" x="465" y="-1035" />
<rect fill="#84A1AE" height="70" rx="15" width="70" x="465" y="-1135" />
<rect fill="#84A1AE" height="70" rx="15" width="70" x="465" y="-1235" />
<rect fill="#84A1AE" height="70" rx="15" width="70" x="465" y="-1335" />
<rect fill="#84A1AE" height="70" rx="15" width="70" x="465" y="-1435" />
<rect fill="#84A1AE" height="70" rx="15" width="70" x="565" y="-535" />
<rect fill="#84A1AE" height="70" rx="15" width="70" x="565" y="-835" />
<rect fill="#84A1AE" height="70" rx="15" width="70" x="565" y="-1435" />
<rect fill="#84A1AE" height="70" rx="15" width="70" x="665" y="-535" />
<rect fill="#84A1AE" height="70" rx="15" width="70" x="665" y="-635" />
<rect fill="#84A1AE" height="70" rx="15" width="70" x="665" y="-735" />
<rect fill="#84A1AE" height="70" rx="15" width="70" x="665" y="-935" />
<rect fill="#84A1AE" height="70" rx="15" width="70" x="665" y="-1235" />
<rect fill="#84A1AE" height="70" rx="15" width="70" x="665" y="-1435" />
<rect fill="#84A1AE" height="70" rx="15" width="70" x="765" y="-535" />
<rect fill="#84A1AE" height="70" rx="15" width="70" x="765" y="-635" />
<rect fill="#84A1AE" height="70" rx="15" width="70" x="765" y="-1035" />
<rect fill="#84A1AE" height="70" rx="15" width="70" x="765" y="-1335" />
<rect fill="#84A1AE" height="70" rx="15" width="70" x="765" y="-1435" />
<rect fill="#84A1AE" height="70" rx="15" width="70" x="865" y="-535" />
<rect fill="#84A1AE" height="70" rx="15" width="70" x="865" y="-935" />
<rect fill="#84A1AE" height="70" rx="15" width="70" x="865" y="-1435" />
<rect fill="#84A1AE" height="70" rx="15" width="70" x="965" y="-535" />
<rect fill="#84A1AE" height="70" rx="15" width="70" x="965" y="-835" />
<rect fill="#84A1AE" height="70" rx="15" width="70" x="965" y="-1235" />
<rect fill="#84A1AE" height="70" rx="15" width="70" x="965" y="-1335" />
<rect fill="#84A1AE" height="70" rx="15" width="70" x="965" y="-1435" />
<rect fill="#84A1AE" height="70" rx="15" width="70" x="1065" y="-535" />
<rect fill="#84A1AE" height="70" rx="15" width="70" x="1065" y="-635" />
<rect fill="#84A1AE" height="70" rx="15" width="70" x="1065" y="-735" />
<rect fill="#84A1AE" height="70" rx="15" width="70" x="1065" y="-835" />
<rect fill="#84A1AE" height="70" rx="15" width="70" x="1065" y="-1335" />
<rect fill="#84A1AE" height="70" rx="15" width="70" x="1065" y="-1435" />
<rect fill="#84A1AE" height="70" rx="15" width="70" x="1165" y="-535" />
<rect fill="#84A1AE" height="70" rx="15" width="70" x="1165" y="-1035" />
<rect fill="#84A1AE" height="70" rx="15" width="70" x="1165" y="-1135" />
<rect fill="#84A1AE" height="70" rx="15" width="70" x="1165" y="-1335" />
<rect fill="#84A1AE" height="70" rx="15" width="70" x="1165" y="-1435" />
<rect fill="#84A1AE" height="70" rx="15" width="70" x="1265" y="-535" />
<rect fill="#84A1AE" height="70" rx="15" width="70" x="1265" y="-735" />
<rect fill="#84A1AE" height="70" rx="15" width="70" x="1265" y="-935" />
<rect fill="#84A1AE" height="70" rx="15" width="70" x="1265" y="-1035" />
<rect fill="#84A1AE" height="70" rx="15" width="70" x="1265" y="-1135" />
<rect fill="#84A1AE" height="70" rx="15" width="70" x="1265" y="-1235" />
<rect fill="#84A1AE" height="70" rx="15" width="70" x="1265" y="-1435" />
<rect fill="#84A1AE" height="70" rx="15" width="70" x="1365" y="-535" />
<rect fill="#84A1AE" height="70" rx="15" width="70" x="1365" y="-635" />
<rect fill="#84A1AE" height="70" rx="15" width="70" x="1365" y="-735" />
<rect fill="#84A1AE" height="70" rx="15" width="70" x="1365" y="-835" />
<rect fill="#84A1AE" height="70" rx="15" width="70" x="1365" y="-935" />
<rect fill="#84A1AE" height="70" rx="15" width="70" x="1365" y="-1035" />
<rect fill="#84A1AE" height="70" rx="15" width="70" x="1365" y="-1135" />
<rect fill="#84A1AE" height="70" rx="15" width="70" x="1365" y="-1235" />
<rect fill="#84A1AE" height="70" rx="15" width="70" x="1365" y="-1335" />
<rect fill="#84A1AE" height="70" rx="15" width="70" x="1365" y="-1435" />
<circle cx="800" cy="-1100" fill="#c1433c" r="35"> <animate attributeName="cy" dur="23.8s" keyTimes="0.0;0.011627907;0.0930232558;0.1046511628;0.1162790698;0.1279069767;0.1395348837;0.1860465116;0.1976744186;0.2441860465;0.2558139535;0.3023255814;0.3139534884;0.3255813953;0.3372093023;0.3488372093;0.3604651163;0.4302325581;0.4418604651;0.476744186;0.488372093;0.5465116279;0.5581395349;0.5697674419;0.5813953488;0.5930232558;0.6046511628;0.6279069767;0.6395348837;0.6860465116;0.6976744186;0.7209302326;0.7325581395;0.7441860465;0.8953488372;0.9069767442;0.9186046512;0.9302325581;0.976744186;0.988372093;1.0" repeatCount="indefinite" values="-1100;-1100;-1100;-1000;-900;-900;-1000;-1000;-900;-900;-1000;-1000;-1100;-1000;-1000;-900;-1000;-1000;-900;-900;-1000;-1000;-1100;-1200;-1100;-1000;-1100;-1100;-1000;-1000;-1100;-1100;-1000;-900;-900;-800;-900;-800;-800;-700;-700"/>
<animate attributeName="cx" dur="23.8s" keyTimes="0.0;0.011627907;0.0465116279;0.0581395349;0.0697674419;0.0813953488;0.0930232558;0.1395348837;0.1511627907;0.1744186047;0.1860465116;0.2093023256;0.2209302326;0.2325581395;0.2558139535;0.2674418605;0.2790697674;0.2906976744;0.3255813953;0.3372093023;0.3604651163;0.3720930233;0.3837209302;0.3953488372;0.4069767442;0.4186046512;0.4302325581;0.4418604651;0.4534883721;0.4651162791;0.476744186;0.488372093;0.5;0.6046511628;0.6162790698;0.6279069767;0.6511627907;0.6627906977;0.6744186047;0.6976744186;0.7093023256;0.7209302326;0.7558139535;0.7674418605;0.7790697674;0.7906976744;0.8023255814;0.8139534884;0.8255813953;0.8372093023;0.8488372093;0.9302325581;0.9418604651;0.9651162791;0.976744186;1.0" repeatCount="indefinite" values="800;800;800;700;800;900;1000;1000;900;900;1000;1000;1100;1000;1000;900;1000;900;900;1000;1000;900;900;1000;1100;1000;1100;1100;1200;1100;1000;1000;900;900;1000;900;900;1000;900;900;1000;1100;1100;1200;1200;1100;1200;1200;1100;1100;1200;1200;1300;1300;1200;1200"/>
<animate attributeName="visibility" dur="23.8s" keyTimes="0.0;0.011627907;0.976744186;0.988372093;1.0" repeatCount="indefinite" values="visible;visible;visible;hidden;hidden"/> </circle>
<circle cx="1200" cy="-700" fill="none" r="35" stroke="#c1433c" stroke-width="10"> <animate attributeName="visibility" dur="23.8s" keyTimes="0.0;0.011627907;0.976744186;0.988372093;1.0" repeatCount="indefinite" values="visible;visible;visible;hidden;hidden"/> </circle>
</svg>