<?xml version="1.0" encoding="UTF-8"?>
        <svg xmlns="http://www.w3.org/2000/svg" xmlns:xlink="http://www.w3.org/1999/xlink"
             width="190" height="190" viewBox="0 -1900 1900 1900">

<defs>

</defs>

<rect fill="#84A1AE" height="70" rx="15" width="70" x="465" y="-535" />
<rect fill="#84A1AE" height="70" rx="15" width="70" x="465" y="-635" />
<rect fill="#84A1AE" height="70" rx="15" width="70" x="465" y="-735" />
<rect fill="#84A1AE" height="70" rx="15" width="70" x="465" y="-835" />
<rect fill="#84A1AE" height="70" rx="15" width="70" x="465" y="-935" />
<rect fill="#84A1AE" height="70" rx="15" width="70" x="465" y="-1035" />
<rect fill="#84A1AE" height="70" rx="15" width="70" x="465" y="-1135" />
<rect fill="#84A1AE" height="70" rx="15" width="70" x="465" y="-1235" />
<rect fill="#84A1AE" height="70" rx="15" width="70" x="465" y="-1335" />
<rect fill="#84A1AE" height="70" rx="15" width="70" x="465" y="-1435" />
<rect fill="#84A1AE" height="70" rx="15" width="70" x="565" y="-535" />
<rect fill="#84A1AE" height="70" rx="15" width="70" x="565" y="-635" />
<rect fill="#84A1AE" height="70" rx="15" width="70" x="565" y="-1035" />
<rect fill="#84A1AE" height="70" rx="15" width="70" x="565" y="-1435" />
<rect fill="#84A1AE" height="70" rx="15" width="70" x="665" y="-535" />
<rect fill="#84A1AE" height="70" rx="15" width="70" x="665" y="-635" />
<rect fill="#84A1AE" height="70" rx="15" width="70" x="665" y="-935" />
<rect fill="#84A1AE" height="70" rx="15" width="70" x="665" y="-1235" />
<rect fill="#84A1AE" height="70" rx="15" width="70" x="665" y="-1435" />
<rect fill="#84A1AE" height="70" rx="15" width="70" x="765" y="-535" />
<rect fill="#84A1AE" height="70" rx="15" width="70" x="765" y="-635" />
<rect fill="#84A1AE" height="70" rx="15" width="70" x="765" y="-735" />
<rect fill="#84A1AE" height="70" rx="15" width="70" x="765" y="-835" />
<rect fill="#84A1AE" height="70" rx="15" width="70" x="765" y="-1135" />
<rect fill="#84A1AE" height="70" rx="15" width="70" x="765" y="-1435" />
<rect fill="#84A1AE" height="70" rx="15" width="70" x="865" y="-535" />
<rect fill="#84A1AE" height="70" rx="15" width="70" x="865" y="-835" />
<rect fill="#84A1AE" height="70" rx="15" width="70" x="865" y="-1335" />
<rect fill="#84A1AE" height="70" rx="15" width="70" x="865" y="-1435" />
<rect fill="#84A1AE" height="70" rx="15" width="70" x="965" y="-535" />
<rect fill="#84A1AE" height="70" rx="15" width="70" x="965" y="-735" />
<rect fill="#84A1AE" height="70" rx="15" width="70" x="965" y="-1135" />
<rect fill="#84A1AE" height="70" rx="15" width="70" x="965" y="-1435" />
<rect fill="#84A1AE" height="70" rx="15" width="70" x="1065" y="-535" />
<rect fill="#84A1AE" height="70" rx="15" width="70" x="1065" y="-635" />
<rect fill="#84A1AE" height="70" rx="15" width="70" x="1065" y="-1035" />
<rect fill="#84A1AE" height="70" rx="15" width="70" x="1065" y="-1135" />
<rect fill="#84A1AE" height="70" rx="15" width="70" x="1065" y="-1435" />
<rect fill="#84A1AE" height="70" rx="15" width="70" x="1165" y="-535" />
<rect fill="#84A1AE" height="70" rx="15" width="70" x="1165" y="-835" />
<rect fill="#84A1AE" height="70" rx="15" width="70" x="1165" y="-935" />
<rect fill="#84A1AE" height="70" rx="15" width="70" x="1165" y="-1035" />
<rect fill="#84A1AE" height="70" rx="15" width="70" x="1165" y="-1335" />
<rect fill="#84A1AE" height="70" rx="15" width="70" x="1165" y="-1435" />
<rect fill="#84A1AE" height="70" rx="15" width="70" x="1265" y="-535" />
<rect fill="#84A1AE" height="70" rx="15" width="70" x="1265" y="-735" />
<rect fill="#84A1AE" height="70" rx="15" width="70" x="1265" y="-935" />
<rect fill="#84A1AE" height="70" rx="15" width="70" x="1265" y="-1135" />
<rect fill="#84A1AE" height="70" rx="15" width="70" x="1265" y="-1435" />
<rect fill="#84A1AE" height="70" rx="15" width="70" x="1365" y="-535" />
<rect fill="#84A1AE" height="70" rx="15" width="70" x="1365" y="-635" />
<rect fill="#84A1AE" height="70" rx="15" width="70" x="1365" y="-735" />
<rect fill="#84A1AE" height="70" rx="15" width="70" x="1365" y="-835" />
<rect fill="#84A1AE" height="70" rx="15" width="70" x="1365" y="-935" />
<rect fill="#84A1AE" height="70" rx="15" width="70" x="1365" y="-1035" />
<rect fill="#84A1AE" height="70" rx="15" width="70" x="1365" y="-1135" />
<rect fill="#84A1AE" height="70" rx="15" width="70" x="1365" y="-1235" />
<rect fill="#84A1AE" height="70" rx="15" width="70" x="1365" y="-1335" />
<rect fill="#84A1AE" height="70" rx="15" width="70" x="1365" y="-1435" />
<circle cx="1200" cy="-1100" fill="#c1433c" r="35"> <animate attributeName="cy" dur="16.8s" keyTimes="0.0;0.0163934426;0.0655737705;0.0819672131;0.1147540984;0.131147541;0.1475409836;0.1639344262;0.4262295082;0.4426229508;0.4754098361;0.4918032787;0.5409836066;0.5573770492;0.6721311475;0.6885245902;1.0" repeatCount="indefinite" values="-1100;-1100;-1100;-1200;-1200;-1100;-1100;-1200;-1200;-1300;-1300;-1200;-1200;-1300;-1300;-1200;-1200"/>
<animate attributeName="cx" dur="16.8s" keyTimes="0.0;0.0163934426;0.0819672131;0.0983606557;0.1147540984;0.1639344262;0.1803278689;0.1967213115;0.2131147541;0.9508196721;0.9672131148;0.9836065574;1.0" repeatCount="indefinite" values="1200;1200;1200;1100;1200;1200;1100;1200;1300;1300;1200;1300;1300"/>
<animate attributeName="visibility" dur="16.8s" keyTimes="0.0;0.0163934426;1.0" repeatCount="indefinite" values="visible;visible;visible"/> </circle>
<circle cx="1300" cy="-600" fill="none" r="35" stroke="#c1433c" stroke-width="10"> <animate attributeName="visibility" dur="16.8s" keyTimes="0.0;0.0163934426;1.0" repeatCount="indefinite" values="visible;visible;visible"/> </circle>
</svg>